<svg xmlns="http://www.w3.org/2000/svg" xmlns:xlink="http://www.w3.org/1999/xlink" id="Layer_1" x="0" y="0" version="1.1" viewBox="0 0 500 500" xml:space="preserve" style="enable-background:new 0 0 500 500"><style type="text/css">.st2{opacity:.5}.st3{clip-path:url(#PhBxqe_6_);fill:#fff}</style><g class="st2"><defs><path id="PhBxqe_5_" d="M238.5,14.1c7.7,0,15.4,0,23.1,0c3.3,0.8,6.6,1.8,10,2.3c7.9,1.1,16,1.4,23.8,3 c57.9,12,105.5,41,141.5,88c27.5,35.9,43.6,76.6,46.9,122.1c0.2,3,1.4,6,2.2,8.9c0,8.4,0,16.8,0,25.2c-1,6.1-1.9,12.1-2.9,18.2 c-8.6,54.4-31.6,101.5-72.2,139.3c-39.6,36.9-86.3,58.1-140.4,62.5c-3,0.2-5.9,1.5-8.9,2.2c-7.7,0-15.4,0-23.1,0 c-3.3-0.8-6.6-1.8-10-2.3c-8.6-1.3-17.3-1.9-25.8-3.7c-50.1-10.2-92.5-34.3-126.8-72.2C41,369,20.9,323.6,16.4,271.4 c-0.2-2.6-1.5-5.2-2.2-7.8c0-9.1,0-18.2,0-27.3c1-6.1,1.9-12.1,2.9-18.2c9.9-63,39-115.1,89.6-154.2 c36.1-27.9,77.1-44.2,122.9-47.6C232.6,16.2,235.5,14.9,238.5,14.1z M327.3,190.4c0.1-11.5-1.8-18.8-6.5-26.5 c-8.8-14.2-22.3-20.7-38.3-22.2c-7.3-0.7-14.6-0.2-22-0.1c-8.7,0-8.7,0.1-11.2-8.7c-1.2-4.4-2.4-8.7-3.6-13.1 c-5.9-22.2-1.3-19.1-24.5-13.5c-6.2,1.5-6.8,2.9-5.4,8.9c1.6,7.1,3.6,14.2,5.4,21.3c3.4,13.6,3.3,13.4-10.3,16.4 c-3.6,0.8-5,0.4-5.8-3.3c-1.8-7.8-3.8-15.6-6-23.3c-3.8-13-0.9-14.5-16.2-10.1c-2.7,0.8-5.4,1.6-8.1,2.1c-5.2,0.9-5.8,3.6-4.4,8.3 c2.6,9,4.8,18.2,6.9,27.3c1.7,7.1,1.6,7.2-5.2,9.1c-12.4,3.4-24.9,6.8-37.4,9.9c-4.9,1.2-6.2,3.7-4.7,8.3 c1.7,5.7,3.1,11.4,4.6,17.1c0.9,3.2,2.6,4.6,6.2,3.5c4-1.2,8.1-2.1,12.2-2.9c12.8-2.4,16.7,0.2,20,13.1 c6.8,26.3,13.7,52.6,20.6,78.9c2.1,8.1,4.4,16.2,6.2,24.3c1.8,8.2-0.2,11.6-8.1,14.3c-3,1-6.1,1.6-9.1,2.4 c-7.4,2.1-7.6,2.3-7.1,10.1c0.4,5.9,1.2,11.8,1.8,17.7c0.7,6.2,0.9,6.6,7.1,5.2c11.9-2.7,23.7-5.6,35.5-8.8 c9.1-2.5,8.8-3.2,11.7,7.2c2.4,8.7,4.5,17.5,6.7,26.4c1,4.2,3.2,5.9,7.5,4.6c5-1.5,10.1-2.8,15.2-3.9c4.4-1,5.6-3.5,4.5-7.7 c-2.2-8.4-4.3-16.9-6.5-25.3c-2.9-11.3-3-11.3,8.8-13.6c6.8-1.3,6.8-1.4,8.8,5.9c2.6,9.4,5.1,18.8,7.4,28.3c1,4.3,3.1,5.9,7.4,4.6 c5-1.5,10.1-2.6,15.2-4c3.9-1.1,5.6-3.1,4.3-7.7c-2.6-9-4.7-18.2-6.9-27.4c-1.9-8-1.9-8.1,6-10.8c12.7-4.3,24.4-10.3,34.5-19.3 c22.2-19.8,28-58.3-1.9-81.1c-6.8-5.2-15.1-8.5-22.9-12.1c-3.6-1.6-4.1-2.5-1.4-5.6C324.4,207.4,328,198.8,327.3,190.4z M239.3,259.7c-4.1,0.9-5,3.2-4,6.8c3.8,13.7,7.8,27.4,11.1,41.3c1.3,5.6,4.3,6.9,9,5.6c11.4-3.1,22.9-6,33.9-10.1 c5.3-2,10.6-5.8,14.3-10.1c15.6-17.9,4.6-38-12.1-40.1c-3.8-0.5-7.5-1.3-13.1-2.3C266.3,253.6,252.8,256.7,239.3,259.7z M250.7,176.4c-10.1,2.4-20.3,4.7-30.4,7.1c-3.7,0.9-5.1,3.4-4.1,7.1c3.4,12.8,6.9,25.6,10.3,38.4c0.9,3.4,2.6,4.5,6.1,3.5 c9-2.6,18.4-4.2,27.1-7.6c5.3-2,10.4-5.8,14.3-10.1c5.7-6.2,7.8-14,4.4-22.3c-3.5-8.6-10-13.1-19-14.3c-2.8-0.4-5.6-0.3-8.4-0.4 C250.9,177.2,250.8,176.8,250.7,176.4z" class="st2"/></defs><clipPath id="PhBxqe_6_"><use xlink:href="#PhBxqe_5_" style="overflow:visible"/></clipPath><path id="LVCgAj_9_" d="M547.5,14.2c-4,3.1-8,6.1-11.9,9.2c-97,78.2-193.9,156.5-290.9,234.7 C146.4,337.4,48.2,416.6-50,495.8c-0.8,0.6-1.4,1.4-2.1,2.1c-1.3,0-2.5,0-3.8,0c17.6-14.2,35.1-28.5,52.7-42.7 c66-53.3,132-106.5,198-159.7c113.6-91.6,227.2-183.3,340.8-274.9c3.9-3.2,7.9-6.3,11.8-9.4C547.5,12.2,547.5,13.2,547.5,14.2z M-56.6,487.6c0.6-0.4,1.1-0.8,1.7-1.2c90.1-72.7,180.1-145.4,270.2-218.1c26.8-21.7,53.8-43.3,80.6-64.9 c56.1-45.3,112.3-90.5,168.4-135.8c23.5-18.9,46.9-37.9,70.4-56.9c-1.3,0-2.5,0-3.8,0c-0.9,0.8-1.7,1.7-2.7,2.5 c-108.9,87.8-217.7,175.7-326.6,263.5c-84.5,68.2-169,136.3-253.5,204.5c-1.5,1.2-3.1,2.3-4.7,3.4 C-56.6,485.5-56.6,486.6-56.6,487.6z M-35.4,497.9c1.3-1.2,2.6-2.5,4-3.6c21.2-17.1,42.3-34.2,63.5-51.2 c83.2-67.2,166.5-134.3,249.7-201.5C362.2,176.7,442.6,111.9,523,47c8.1-6.5,16.3-12.9,24.5-19.4c0-0.8,0-1.6,0-2.4 c-1.3,0.9-2.8,1.6-4,2.6c-43.3,34.9-86.6,69.9-130,104.8c-59.1,47.7-118.3,95.4-177.4,143.1c-37.7,30.4-75.4,60.8-113.1,91.3 C68.9,410.7,14.9,454.3-39.2,497.9C-37.9,497.9-36.7,497.9-35.4,497.9z M514.3,10.6c-0.8,0.8-1.6,1.6-2.5,2.3 c-16.5,13.3-32.9,26.6-49.4,39.8C371.7,125.9,281,199.1,190.3,272.4C120.1,329,49.8,385.6-20.4,442.2c-12,9.7-24.1,19.3-36.2,28.9 c0,0.8,0,1.6,0,2.4c1-0.6,2-1.1,2.9-1.8C37.9,397.9,129.5,324,221.1,250.1c97.7-78.9,195.5-157.7,293.2-236.6c1.1-0.9,2-2,3-3 C516.3,10.6,515.3,10.6,514.3,10.6z M547.5,78.8c-1.1,0.8-2.3,1.5-3.4,2.4c-88.3,71.2-176.5,142.5-264.8,213.7 c-74.2,59.9-148.5,119.8-222.7,179.7c-9.6,7.7-19.1,15.6-28.6,23.4c1.3,0,2.5,0,3.8,0c0.7-0.8,1.3-1.6,2.2-2.3 c47.7-38.5,95.5-77.1,143.3-115.6c55.2-44.6,110.4-89.1,165.7-133.7c67.2-54.2,134.5-108.5,201.7-162.7c0.8-0.7,1.9-1.2,2.9-1.8 C547.5,80.8,547.5,79.8,547.5,78.8z M-56.6,420c0.7-0.5,1.5-1,2.2-1.6c24.8-20,49.6-40,74.5-60c41.1-33.2,82.1-66.3,123.2-99.5 c45.6-36.8,91.3-73.6,136.9-110.4c43.4-35,86.8-70,130.2-105c13.5-10.9,26.9-21.9,40.4-32.8c-1.3,0-2.5,0-3.8,0 c-0.7,0.7-1.2,1.5-2,2.1c-20.9,16.9-41.8,33.8-62.7,50.6C296.2,132.9,210,202.4,123.8,271.9C65.9,318.7,8,365.4-50,412.1 c-2.1,1.7-4.4,3.2-6.6,4.8C-56.6,417.9-56.6,418.9-56.6,420z M547.5,92.2c-0.7,0.5-1.5,1-2.2,1.6 c-72.9,58.8-145.8,117.7-218.7,176.5C247.7,333.9,168.9,397.5,90.1,461c-15.2,12.3-30.3,24.6-45.5,36.9c1.3,0,2.5,0,3.8,0 c3.5-3,6.9-6.1,10.5-9c57.3-46.3,114.7-92.5,172.1-138.8c36.7-29.6,73.4-59.2,110.1-88.9c22.8-18.4,45.7-36.9,68.5-55.3 c39.8-32.1,79.7-64.3,119.5-96.4c6-4.8,12.2-9.5,18.3-14.3C547.5,94.2,547.5,93.2,547.5,92.2z M-56.6,406.6 c4.3-3.4,8.6-6.8,12.9-10.3C43.6,325.9,131,255.4,218.3,185c51.6-41.6,103.1-83.2,154.7-124.8c20.4-16.5,40.8-33,61.3-49.6 c-1.3,0-2.5,0-3.8,0c-0.8,0.8-1.5,1.6-2.3,2.3c-49.8,40.2-99.6,80.4-149.4,120.6c-53.5,43.2-107.1,86.4-160.6,129.6 C65.9,305.2,13.6,347.4-38.7,389.6c-5.8,4.7-11.9,9.3-17.8,13.9C-56.6,404.5-56.6,405.5-56.6,406.6z M547.5,105.6 c-0.9,0.7-1.8,1.4-2.7,2.1c-69.5,56-139,112.1-208.5,168.1c-65.5,52.8-131,105.7-196.4,158.5c-26.2,21.2-52.4,42.4-78.7,63.6 c1.3,0,2.5,0,3.8,0c0.3-0.4,0.6-0.9,1-1.2c43.9-35.5,87.8-70.9,131.8-106.4c49.4-39.8,98.8-79.6,148.1-119.4 c61.5-49.6,122.9-99.2,184.3-148.8c5.7-4.6,11.5-9,17.3-13.5C547.5,107.6,547.5,106.6,547.5,105.6z M-56.6,433.4 c0.8-0.5,1.6-1,2.3-1.6C17.5,373.9,89.3,316,161,258.1C254.1,183,347.2,108,440.2,32.9c9.2-7.4,18.2-14.9,27.3-22.3 c-1.3,0-2.5,0-3.8,0c-0.6,0.7-1.1,1.5-1.9,2.1c-46.9,37.9-93.9,75.8-140.9,113.7c-61.4,49.5-122.7,99-184.1,148.5 C73.4,326,10,377.2-53.4,428.4c-0.9,0.8-2.1,1.3-3.2,2C-56.6,431.3-56.6,432.3-56.6,433.4z M413.9,10.6c-0.4,0.5-0.8,1-1.3,1.4 c-52.1,42-104.2,84.1-156.3,126.1C159.9,215.8,63.7,293.5-32.6,371.2c-7.9,6.4-15.9,12.6-23.9,18.9c0,1,0,2,0,3 C9.4,340,75.3,286.8,141.2,233.7c53.5-43.1,106.9-86.3,160.4-129.4c38.7-31.2,77.4-62.4,116-93.7C416.4,10.6,415.1,10.6,413.9,10.6 z M81.6,497.9c0.5-0.5,0.9-1,1.4-1.4c56.1-45.3,112.2-90.5,168.3-135.8c90.2-72.7,180.3-145.5,270.5-218.2 c8.5-6.9,17.2-13.6,25.8-20.5c0-1,0-2,0-3c-17.9,14.4-35.8,28.8-53.7,43.2C416.3,224.8,338.7,287.4,261.2,350 c-61.1,49.3-122.2,98.6-183.3,147.9C79.1,497.9,80.4,497.9,81.6,497.9z M547.5,38.6c-0.9,0.5-1.9,1-2.6,1.6 c-94.5,76.2-189,152.5-283.6,228.8C170.7,342,80.1,415.1-10.5,488.3c-3.9,3.1-7.5,6.4-11.3,9.7c1,0,2,0,3,0 c0.8-0.8,1.6-1.5,2.5-2.3c23.2-18.7,46.4-37.5,69.6-56.2c79.3-64,158.6-128,237.9-192c26.6-21.4,53.1-42.9,79.7-64.4 c50.1-40.4,100.1-80.8,150.2-121.2c8.7-7,17.5-14,26.3-20.9C547.5,40.2,547.5,39.4,547.5,38.6z M-56.6,460.2c1-0.7,2.2-1.3,3.1-2.1 c84.1-67.8,168.1-135.6,252.2-203.4c98.9-79.8,197.8-159.6,296.7-239.4c1.8-1.5,3.5-3.1,5.2-4.7c-1,0-2,0-3,0 c-0.8,0.7-1.5,1.4-2.3,2c-108.5,87.6-217,175.1-325.5,262.7C107.6,325.5,45.3,375.7-17,426c-13.2,10.6-26.4,21.2-39.6,31.8 C-56.6,458.5-56.6,459.3-56.6,460.2z M547.5,52c-1,0.6-2,1.2-2.8,1.9c-91.7,74-183.4,147.9-275.1,221.9 C185.1,343.9,100.7,412,16.3,480.1C9.1,486,2,492-5.2,497.9c1,0,2,0,3,0c0.5-0.5,1-0.9,1.5-1.4C96.9,417.8,194.4,339.1,292,260.4 c70.6-57,141.3-114,211.9-171c14.5-11.7,29.1-23.3,43.6-35C547.5,53.6,547.5,52.8,547.5,52z M547.5,65.4 c-6.5,5.2-13.1,10.3-19.6,15.5C430.4,159.5,333,238.2,235.5,316.8c-66,53.2-132,106.5-197.9,159.7c-8.8,7.1-17.4,14.3-26.2,21.4 c1.3,0,2.5,0,3.8,0c0.9-0.9,1.6-2,2.6-2.8c48.7-39.3,97.5-78.7,146.2-118c63.3-51.1,126.7-102.2,190-153.3 c63.5-51.2,127-102.5,190.5-153.7c0.8-0.7,1.9-1.1,2.9-1.7C547.5,67.4,547.5,66.4,547.5,65.4z M-56.6,446.8c1.4-1,2.9-1.9,4.2-3 C25,381.4,102.3,319,179.7,256.5C274.2,180.3,368.8,104,463.3,27.7c7-5.7,13.8-11.4,20.8-17.2c-1,0-2,0-3,0c-0.5,0.5-1,0.9-1.5,1.3 C373.4,97.5,267.3,183.1,161.2,268.7C108.3,311.4,55.4,354.1,2.5,396.8c-19.7,15.9-39.4,31.7-59,47.5 C-56.6,445.1-56.6,445.9-56.6,446.8z M547.5,173.2c-0.9,0.7-1.9,1.3-2.8,2c-120.5,97.2-241,194.4-361.5,291.6 c-12.8,10.3-25.5,20.7-38.2,31.1c1.3,0,2.5,0,3.8,0c0.7-0.8,1.4-1.6,2.2-2.3C281.9,390,412.7,284.5,543.6,178.9 c1.2-1,2.6-1.8,4-2.6C547.5,175.3,547.5,174.2,547.5,173.2z M-56.6,379.1c1.1-0.7,2.2-1.2,3.2-2c58-46.8,116-93.6,174-140.3 c89.7-72.3,179.3-144.6,269-217c3.7-3,7.1-6.2,10.7-9.2c-1,0-2,0-3,0c-0.9,0.8-1.8,1.7-2.7,2.5c-140,112.9-280,225.9-420,338.8 c-10.3,8.3-20.7,16.5-31.1,24.8C-56.6,377.5-56.6,378.3-56.6,379.1z M-56.6,325.5c0.7-0.5,1.4-0.9,2-1.4 C-38.3,311-22,297.9-5.8,284.7C92.6,205.4,191,126,289.4,46.6c14.8-12,29.6-24,44.4-36c-1.3,0-2.5,0-3.8,0 c-1.2,1.1-2.3,2.3-3.6,3.4C201,115.2,75.5,216.4-50,317.6c-2.1,1.7-4.4,3.2-6.6,4.8C-56.6,323.5-56.6,324.5-56.6,325.5z M-56.6,338.9c5.2-4.1,10.5-8.2,15.6-12.3C78.3,230.4,197.5,134.2,316.7,38c11.3-9.1,22.5-18.3,33.7-27.4c-1.3,0-2.5,0-3.8,0 c-1.1,1.1-2.1,2.2-3.3,3.2c-36.9,29.8-73.8,59.6-110.7,89.4c-95.4,77-190.9,154-286.4,231c-0.8,0.7-1.9,1.2-2.9,1.8 C-56.6,336.9-56.6,337.9-56.6,338.9z M547.5,186.6c-13.4,10.7-26.8,21.4-40.1,32.2c-100,80.7-200,161.3-300,242 c-15.3,12.3-30.5,24.7-45.8,37.1c1.3,0,2.5,0,3.8,0c1.4-1.3,2.7-2.6,4.2-3.8c124.6-100.6,249.3-201.2,374-301.7 c1.2-1,2.6-1.8,3.9-2.7C547.5,188.7,547.5,187.6,547.5,186.6z M-56.6,312.1c0.5-0.3,1-0.7,1.4-1c44.6-36,89.3-72,133.9-108.1 c58-46.8,116-93.5,174-140.3c21.5-17.4,43-34.8,64.5-52.2c-1.3,0-2.5,0-3.8,0c-0.8,0.8-1.5,1.6-2.3,2.3 c-116.5,94-233,188-349.6,282c-5.9,4.8-12,9.4-18.1,14.2C-56.6,310.1-56.6,311.1-56.6,312.1z M547.5,200 c-43.6,35.1-87.2,70.3-130.8,105.4c-49.6,40-99.3,80.1-148.9,120.1c-29.9,24.1-59.7,48.2-89.6,72.4c1.3,0,2.5,0,3.8,0 c4.8-4,9.5-8,14.4-12c53.3-43,106.5-86,159.8-129c55.7-44.9,111.3-89.9,167-134.8c8-6.4,16.1-12.8,24.2-19.1 C547.5,202.1,547.5,201.1,547.5,200z M547.5,133c-1,0.6-2,1.1-2.9,1.8c-9,7.2-18,14.5-27,21.7c-140.1,113-280.1,226-420.2,339 c-0.9,0.7-1.5,1.5-2.3,2.3c1,0,2,0,3,0c0.8-0.8,1.6-1.5,2.5-2.2c26.1-21.1,52.3-42.2,78.4-63.3c53.2-42.9,106.4-85.8,159.5-128.7 c58-46.8,116-93.6,174-140.3c11.6-9.3,23.2-18.6,34.8-27.8C547.5,134.7,547.5,133.8,547.5,133z M296.8,10.6 c-3.5,2.9-6.9,5.9-10.4,8.7C182.2,103.4,78,187.5-26.3,271.6c-10,8.1-20.2,16.1-30.3,24.1c0,1,0,2,0,3c3.6-2.9,7.1-5.7,10.7-8.6 c69.7-56.2,139.3-112.4,209-168.6c45.8-37,91.6-74,137.4-110.9C299.3,10.6,298.1,10.6,296.8,10.6z M-56.6,365.7 c0.8-0.5,1.7-0.9,2.3-1.4c20.5-16.5,40.9-33,61.4-49.5c57.2-46.2,114.4-92.3,171.6-138.5C242.4,125,306,73.7,369.6,22.4 c4.8-3.9,9.4-7.9,14-11.8c-1,0-2,0-3,0c-0.6,0.5-1.2,1.1-1.8,1.6C319.4,60.1,260,108.1,200.6,156c-68,54.8-136,109.7-203.9,164.5 c-17.7,14.3-35.5,28.5-53.2,42.8C-56.6,364.1-56.6,364.9-56.6,365.7z M-56.6,352.3c1-0.6,2-1.2,2.8-1.9 c7.4-5.9,14.8-11.9,22.2-17.9c130.7-105.4,261.3-210.8,392-316.2c2.3-1.9,4.4-3.8,6.6-5.7c-1.3,0-2.5,0-3.8,0 c-0.7,0.8-1.3,1.7-2.1,2.4c-17.8,14.4-35.7,28.9-53.6,43.3C212,133.3,116.4,210.4,20.8,287.5c-25.8,20.8-51.6,41.6-77.4,62.4 C-56.6,350.7-56.6,351.5-56.6,352.3z M547.5,146.4c-1,0.6-2,1.2-2.8,1.9c-16,12.9-32,25.8-48,38.8C372.7,287,248.7,387,124.8,487 c-4.4,3.6-8.7,7.3-13,10.9c1,0,2,0,3,0c1.4-1.2,2.8-2.4,4.2-3.5C244.4,393.3,369.8,292.1,495.1,191c17.4-14.1,34.9-28.1,52.4-42.1 C547.5,148.1,547.5,147.2,547.5,146.4z M547.5,159.8c-1,0.7-2.1,1.4-3.1,2.2c-65.3,52.7-130.6,105.3-195.9,158 c-63.9,51.6-127.9,103.2-191.8,154.8c-9.5,7.7-18.9,15.4-28.3,23.2c1,0,2,0,3,0c44.9-36.2,89.8-72.5,134.7-108.7 c92.5-74.7,185.1-149.3,277.7-224c1.1-0.9,2.5-1.6,3.7-2.3C547.5,161.9,547.5,160.8,547.5,159.8z M547.5,213.4 c-41.7,33.6-83.4,67.3-125.1,100.9c-74.6,60.2-149.2,120.4-223.8,180.6c-1.1,0.9-2,2-3,3c1,0,2,0,3,0c0.5-0.5,1-1.1,1.7-1.6 c39-31.5,78.1-63,117.1-94.5c67.8-54.7,135.5-109.3,203.3-164c8.9-7.2,17.9-14.2,26.8-21.4C547.5,215.5,547.5,214.5,547.5,213.4z M-56.6,244.5c12.1-9.7,24.3-19.4,36.4-29.1C53.1,156.3,126.4,97.1,199.7,38c11.3-9.1,22.5-18.3,33.7-27.4c-1.3,0-2.5,0-3.8,0 c-0.7,0.8-1.4,1.6-2.3,2.3c-10.6,8.6-21.3,17.2-32,25.8C113.8,104.6,32.2,170.4-49.4,236.3c-2.3,1.8-4.8,3.5-7.2,5.2 C-56.6,242.5-56.6,243.5-56.6,244.5z M-56.6,284.7c0.9-0.5,1.9-1,2.6-1.6c22.8-18.4,45.5-36.7,68.3-55.1 c85.8-69.2,171.6-138.4,257.3-207.6c4-3.2,7.7-6.6,11.6-9.9c-1,0-2,0-3,0c-1,0.9-2,1.8-3,2.7C176.7,94.3,76.3,175.3-24.2,256.3 c-10.8,8.7-21.6,17.3-32.4,25.9C-56.6,283.1-56.6,283.9-56.6,284.7z M-56.6,231.1c0.7-0.5,1.5-1.1,2.2-1.6 c31.2-25.2,62.4-50.3,93.6-75.5c41-33.1,81.9-66.1,122.9-99.2c18.2-14.7,36.4-29.4,54.6-44.2c-1.3,0-2.5,0-3.8,0 c-0.7,0.7-1.3,1.5-2,2.1c-14.4,11.6-28.8,23.3-43.2,34.9c-35,28.3-70.1,56.6-105.1,84.8C29,159.5-4.6,186.6-38.2,213.7 c-6,4.9-12.2,9.5-18.4,14.3C-56.6,229.1-56.6,230.1-56.6,231.1z M547.5,267.7c-8.8,7.1-17.7,14.1-26.5,21.2 c-70.3,56.7-140.5,113.3-210.8,170c-16.1,13-32.1,26-48.1,39.1c1.3,0,2.5,0,3.8,0c0.7-0.8,1.4-1.6,2.3-2.3 c12.2-9.9,24.5-19.8,36.8-29.7c37-29.8,73.9-59.7,110.9-89.5c37.9-30.6,75.7-61.1,113.6-91.6c5.9-4.8,12.1-9.4,18.1-14.1 C547.5,269.7,547.5,268.7,547.5,267.7z M-56.6,257.9c0.9-0.6,1.8-1.1,2.6-1.7C46.4,175.2,146.7,94.3,247.1,13.3 c1.1-0.9,2-1.8,2.9-2.7c-1.3,0-2.5,0-3.8,0c-1.2,1.1-2.2,2.4-3.5,3.4c-27,21.8-54.1,43.6-81.1,65.4C90,137.2,18.5,195-53.1,252.7 c-1,0.8-2.3,1.4-3.5,2.2C-56.6,255.9-56.6,256.9-56.6,257.9z M547.5,281.1c-1.2,0.9-2.4,1.8-3.5,2.7c-65,52.4-130,104.8-195,157.3 c-23.5,18.9-46.9,37.9-70.3,56.9c1.3,0,2.5,0,3.8,0c2.2-1.9,4.3-3.9,6.6-5.8c39.1-31.6,78.3-63.1,117.4-94.7 c41.4-33.4,82.7-66.8,124-100.1c5.6-4.5,11.3-8.8,17-13.3C547.5,283.1,547.5,282.1,547.5,281.1z M547.5,227.5 c-1.2,0.8-2.6,1.6-3.7,2.5C434,318.5,324.3,407,214.5,495.6c-0.9,0.7-1.5,1.5-2.3,2.3c1,0,2,0,3,0c0.2-0.2,0.4-0.5,0.7-0.7 c42.6-34.4,85.2-68.8,127.8-103.1c51.4-41.5,102.8-83,154.3-124.5c16.5-13.3,33-26.5,49.5-39.7 C547.5,229.1,547.5,228.3,547.5,227.5z M-56.6,271.3c0.8-0.5,1.6-0.9,2.3-1.5c11.2-9,22.4-18.1,33.6-27.1 C71.7,168.3,164,93.8,256.3,19.4c3.5-2.9,6.9-5.8,10.3-8.8c-1,0-2,0-3,0c-0.3,0.3-0.6,0.7-1,0.9c-33.9,27.3-67.8,54.7-101.7,82 C107.2,136.9,53.4,180.3-0.5,223.7c-18.7,15.1-37.4,30.1-56.1,45.1C-56.6,269.7-56.6,270.5-56.6,271.3z M547.5,254.3 c-1.4,1-2.8,2-4.1,3c-90.2,72.8-180.5,145.6-270.7,218.3c-9.1,7.4-18.2,14.9-27.2,22.3c1.3,0,2.5,0,3.8,0c0.8-0.9,1.5-1.8,2.4-2.5 c42.1-34,84.3-68,126.5-102c55.4-44.7,110.8-89.4,166.2-134.1c0.9-0.7,2.1-1.3,3.2-1.9C547.5,256.3,547.5,255.3,547.5,254.3z M-56.6,217.7c43.6-35.2,87.2-70.3,130.8-105.5c42-33.9,83.9-67.8,125.9-101.7c-1.3,0-2.5,0-3.8,0c-1.9,1.7-3.8,3.5-5.8,5.1 C114.3,77.2,38,138.8-38.2,200.3c-6,4.9-12.2,9.6-18.3,14.4C-56.6,215.7-56.6,216.7-56.6,217.7z M547.5,240.9 c-2.3,1.7-4.6,3.4-6.8,5.1c-97.5,78.6-194.9,157.2-292.4,235.8c-6.6,5.3-13,10.7-19.4,16.1c1,0,2,0,3,0 c33.7-27.2,67.4-54.4,101.1-81.6c50.9-41.1,101.7-82.1,152.6-123.1c20.6-16.6,41.3-33.2,62-49.9 C547.5,242.5,547.5,241.7,547.5,240.9z M547.5,294.5c-0.6,0.5-1.3,1-1.9,1.5c-52.2,42.1-104.5,84.2-156.7,126.4 c-31.2,25.2-62.4,50.4-93.6,75.6c1.3,0,2.5,0,3.8,0c0.9-0.8,1.7-1.7,2.7-2.5c74.5-60.1,149-120.2,223.5-180.3 c7.4-5.9,14.9-11.8,22.3-17.6C547.5,296.5,547.5,295.5,547.5,294.5z M-56.6,203.7c1.1-0.7,2.2-1.2,3.2-2 c79-63.7,158-127.4,237-191.1c-1.3,0-2.5,0-3.8,0c-0.7,0.7-1.4,1.4-2.2,2C108.1,68.7,38.7,124.7-30.8,180.8 c-8.5,6.9-17.2,13.7-25.8,20.5C-56.6,202.1-56.6,202.9-56.6,203.7z M547.5,308.5c-0.9,0.5-1.9,1-2.6,1.6 c-76.6,61.8-153.2,123.6-229.7,185.3c-0.9,0.8-1.7,1.7-2.5,2.5c1,0,2,0,3,0c9.8-8,19.6-16,29.4-24c55.8-45,111.5-90,167.3-135 c11.6-9.4,23.4-18.7,35.1-28.1C547.5,310.1,547.5,309.3,547.5,308.5z M-56.6,190.3c0.9-0.5,1.8-1,2.6-1.6 C18.7,130.1,91.3,71.5,163.9,12.9c0.9-0.7,1.5-1.5,2.3-2.3c-1,0-2,0-3,0c-0.8,0.7-1.5,1.4-2.3,2C104.4,58.1,48,103.7-8.5,149.2 c-16,12.9-32.1,25.8-48.1,38.6C-56.6,188.7-56.6,189.5-56.6,190.3z M-56.6,163.5c1.1-0.8,2.3-1.5,3.4-2.4 C0,118.1,53.3,75.2,106.5,32.2c8.9-7.2,17.6-14.4,26.4-21.6c-1.3,0-2.5,0-3.8,0c-0.5,0.6-0.8,1.2-1.4,1.7 C67.1,61.3,6.3,110.3-54.5,159.3c-0.6,0.5-1.4,0.7-2.1,1.1C-56.6,161.5-56.6,162.5-56.6,163.5z M547.5,321.9 c-0.9,0.5-1.8,1-2.6,1.7c-67.4,54.3-134.8,108.7-202.2,163c-4.6,3.7-9,7.6-13.5,11.4c1,0,2,0,3,0c0.9-0.8,1.9-1.6,2.8-2.4 c54.2-43.8,108.4-87.5,162.7-131.3c16.5-13.3,33.1-26.6,49.7-39.9C547.5,323.5,547.5,322.7,547.5,321.9z M-56.6,150.1 c0.8-0.6,1.7-1.2,2.5-1.8C-10,112.7,34.1,77.2,78.1,41.6c12.8-10.3,25.5-20.7,38.2-31.1c-1.3,0-2.5,0-3.8,0 c-0.8,0.8-1.6,1.8-2.5,2.5C60.5,53.1,11,93-38.5,133c-5.9,4.8-12,9.4-18.1,14.1C-56.6,148.1-56.6,149.1-56.6,150.1z M547.5,335.3 c-1,0.6-2,1.2-2.9,1.9c-59,47.6-118,95.1-176.9,142.7c-7.4,5.9-14.6,12-21.9,18c1,0,2,0,3,0c65.5-52.9,131-105.7,196.5-158.5 c0.6-0.5,1.4-0.7,2.1-1.1C547.5,337.3,547.5,336.3,547.5,335.3z M547.5,362.1c-0.9,0.7-1.9,1.3-2.8,2 c-40.7,32.8-81.4,65.6-122,98.5c-14.6,11.8-29.1,23.5-43.6,35.3c1.3,0,2.5,0,3.8,0c0.7-0.8,1.4-1.6,2.3-2.3 c53.2-43,106.5-85.9,159.7-128.9c0.8-0.6,1.7-1.1,2.6-1.6C547.5,364.1,547.5,363.1,547.5,362.1z M-56.6,176.9 c0.9-0.6,1.8-1.1,2.6-1.7C11.4,122.5,76.8,69.7,142.2,17c2.6-2.1,4.9-4.3,7.4-6.4c-1,0-2,0-3,0c-0.7,0.6-1.4,1.2-2.1,1.8 C101.2,47.2,58,82.1,14.8,117c-23.8,19.2-47.6,38.3-71.3,57.4C-56.6,175.3-56.6,176.1-56.6,176.9z M547.5,348.7 c-0.8,0.6-1.7,1.1-2.5,1.8c-51.3,41.4-102.6,82.7-153.9,124.1c-9.6,7.7-19.1,15.6-28.6,23.3c1,0,2,0,3,0 c60.7-48.9,121.3-97.9,182-146.8C547.5,350.3,547.5,349.5,547.5,348.7z M-56.6,136.7c0.6-0.4,1.2-0.8,1.7-1.2 c34.2-27.5,68.3-55.1,102.4-82.6C65,38.8,82.3,24.7,99.7,10.6c-1.3,0-2.5,0-3.8,0c-0.7,0.7-1.3,1.5-2.1,2.1 C49.9,48.2,5.8,83.7-38.2,119.3c-6,4.9-12.2,9.6-18.3,14.4C-56.6,134.7-56.6,135.7-56.6,136.7z M547.5,375.5 c-50.6,40.8-101.2,81.6-151.8,122.4c1.3,0,2.5,0,3.8,0c0.9-0.8,1.6-1.7,2.6-2.5c41.1-33.2,82.2-66.4,123.4-99.5 c7.3-5.9,14.7-11.6,22-17.4C547.5,377.5,547.5,376.5,547.5,375.5z M-56.6,123.3C-10,85.7,36.6,48.1,83.1,10.6c-1.3,0-2.5,0-3.8,0 c-0.8,0.8-1.5,1.6-2.4,2.3C40.1,42.6,3.2,72.4-33.7,102.2c-7.5,6.1-15.2,12-22.8,18.1C-56.6,121.2-56.6,122.3-56.6,123.3z M547.5,388.9c-45.1,36.3-90.1,72.7-135.2,109c1.3,0,2.5,0,3.8,0c1.1-1,2.1-2,3.2-2.9c34.3-27.7,68.6-55.4,102.9-83 c8.3-6.7,16.8-13.3,25.2-20C547.5,390.9,547.5,389.9,547.5,388.9z M-56.6,109.3c1.1-0.7,2.4-1.4,3.4-2.2 c35.9-28.9,71.8-57.9,107.6-86.8c3.9-3.1,7.5-6.4,11.3-9.6c-1,0-2,0-3,0c-1.1,1-2.1,2-3.2,2.9c-30,24.2-60,48.4-90.1,72.6 c-8.6,6.9-17.3,13.8-26,20.7C-56.6,107.6-56.6,108.5-56.6,109.3z M547.5,402.9c-0.8,0.5-1.7,0.8-2.3,1.4 c-37.8,30.5-75.7,61-113.5,91.6c-0.8,0.6-1.3,1.4-2,2.1c1,0,2,0,3,0c0.6-0.5,1.1-1.1,1.7-1.6c25.7-20.8,51.5-41.6,77.3-62.3 c11.9-9.6,23.9-19.1,35.8-28.7C547.5,404.5,547.5,403.7,547.5,402.9z M-56.6,95.9c0.8-0.5,1.6-0.9,2.3-1.5 C-26.5,72.1,1.3,49.7,29,27.3c6.8-5.5,13.5-11.1,20.2-16.7c-1,0-2,0-3,0c-0.4,0.4-0.8,0.8-1.2,1.2C25.4,27.5,5.8,43.3-13.8,59.1 C-28,70.6-42.3,82-56.6,93.4C-56.6,94.2-56.6,95.1-56.6,95.9z M547.5,416.3c-1.1,0.7-2.2,1.3-3.2,2.1 c-26.4,21.3-52.8,42.6-79.2,63.9c-6.4,5.1-12.6,10.4-18.8,15.6c1,0,2,0,3,0c15.2-12.3,30.3-24.6,45.5-36.9 c17.5-14.1,35.1-28.2,52.6-42.3C547.5,417.9,547.5,417.1,547.5,416.3z M547.5,429.7c-1.1,0.8-2.3,1.5-3.4,2.4 c-19.1,15.4-38.2,30.8-57.2,46.2c-8,6.5-16,13.1-24,19.7c1,0,2,0,3,0c27.2-21.9,54.4-43.9,81.5-65.8 C547.5,431.3,547.5,430.5,547.5,429.7z M-56.6,69.1c1.1-0.8,2.3-1.5,3.4-2.4C-38.9,55.1-24.6,43.6-10.3,32 c8.8-7.1,17.5-14.3,26.2-21.4c-1.3,0-2.5,0-3.8,0c-0.5,0.6-0.8,1.2-1.4,1.7c-21.6,17.5-43.3,35-65,52.4c-0.7,0.5-1.6,0.9-2.3,1.3 C-56.6,67-56.6,68-56.6,69.1z M-56.6,82.5c0.9-0.6,1.8-1.1,2.6-1.7c22.5-18.1,45-36.2,67.4-54.3c6.5-5.2,12.8-10.6,19.1-15.8 c-1,0-2,0-3,0c-28,22.6-56,45.2-84,67.8c-0.6,0.5-1.4,0.7-2.1,1C-56.6,80.4-56.6,81.4-56.6,82.5z M547.5,443.1 c-11.3,9-22.6,17.9-33.7,27c-11.5,9.2-22.8,18.6-34.2,27.9c1.3,0,2.5,0,3.8,0c0.7-0.7,1.2-1.5,2-2.1c15.5-12.5,31-25.1,46.6-37.6 c5.1-4.1,10.4-8.1,15.6-12.1C547.5,445.1,547.5,444.1,547.5,443.1z M-56.6,55.7c18.6-15,37.3-30.1,55.9-45.1c-1.3,0-2.5,0-3.8,0 C-5,11.1-5.4,11.8-6,12.2c-11.3,9.1-22.5,18.3-33.9,27.4c-5.5,4.4-11.2,8.7-16.8,13C-56.6,53.6-56.6,54.6-56.6,55.7z M547.5,456.5 c-17.1,13.8-34.2,27.6-51.3,41.4c1.3,0,2.5,0,3.8,0c0.3-0.4,0.5-0.9,0.9-1.2c10.1-8.2,20.2-16.4,30.4-24.5 c5.3-4.3,10.8-8.4,16.2-12.6C547.5,458.5,547.5,457.5,547.5,456.5z M-56.6,42.3c13.1-10.6,26.2-21.1,39.3-31.7c-1.3,0-2.5,0-3.8,0 c-8.4,6.9-16.8,13.8-25.2,20.7c-3.3,2.7-6.8,5.3-10.3,7.9C-56.6,40.2-56.6,41.2-56.6,42.3z M547.5,469.9 c-11.6,9.3-23.2,18.7-34.7,28c1.3,0,2.5,0,3.8,0c3.7-3.1,7.3-6.3,11.1-9.4c6.6-5.3,13.2-10.4,19.8-15.6 C547.5,471.9,547.5,470.9,547.5,469.9z M-56.6,28.9c7.6-6.1,15.1-12.2,22.7-18.3c-1.3,0-2.5,0-3.8,0c-6.3,5.1-12.6,10.2-18.9,15.2 C-56.6,26.8-56.6,27.8-56.6,28.9z M547.5,483.9c-5.8,4.7-11.6,9.3-17.4,14c1,0,2,0,3,0c4.8-3.9,9.6-7.7,14.3-11.6 C547.5,485.5,547.5,484.7,547.5,483.9z M-54.3,10.6c-0.8,0.6-1.5,1.2-2.3,1.8c0,0.8,0,1.6,0,2.4c1.8-1.4,3.5-2.8,5.3-4.3 C-52.3,10.6-53.3,10.6-54.3,10.6z M547.5,497.3c-0.3,0.2-0.5,0.4-0.8,0.6C547,497.7,547.3,497.5,547.5,497.3z" class="st3"/></g></svg>