<?xml version="1.0" encoding="utf-8"?>
<!-- Generator: Adobe Illustrator 24.2.1, SVG Export Plug-In . SVG Version: 6.00 Build 0)  -->
<svg version="1.1" id="Layer_1" xmlns="http://www.w3.org/2000/svg" xmlns:xlink="http://www.w3.org/1999/xlink" x="0px" y="0px"
	 viewBox="0 0 435.3 154.1" style="enable-background:new 0 0 435.3 154.1;" xml:space="preserve">
<style type="text/css">
	.st0{fill:#61BB71;}
	.st1{opacity:0.5;clip-path:url(#SVGID_2_);}
	.st2{opacity:0.5;}
	.st3{clip-path:url(#PhBxqe_5_);fill:#FFFFFF;}
	.st4{fill:#081E29;}
	.st5{fill:#FFFFFF;}
	.st6{clip-path:url(#SVGID_4_);}
	.st7{fill:#E6E6E6;}
	.st8{fill:none;stroke:#E6E6E6;stroke-miterlimit:10;}
	.st9{fill:#F2F2F2;}
	.st10{clip-path:url(#SVGID_6_);}
	.st11{fill:#DAFFCE;}
	.st12{fill:#F2F2F2;stroke:#000000;stroke-miterlimit:10;}
	.st13{fill:#FFFFFF;stroke:#000000;stroke-miterlimit:10;}
	.st14{fill:none;stroke:#000000;stroke-miterlimit:10;}
	.st15{fill:none;stroke:#61BB71;stroke-width:5;stroke-miterlimit:10;}
	.st16{fill:#FFFFFF;stroke:#61BB71;stroke-width:5;stroke-miterlimit:10;}
	.st17{clip-path:url(#SVGID_8_);}
	.st18{clip-path:url(#PhBxqe_6_);fill:#E6E6E6;}
	.st19{clip-path:url(#SVGID_10_);}
	.st20{clip-path:url(#SVGID_12_);}
	.st21{clip-path:url(#SVGID_14_);}
	.st22{opacity:0.5;clip-path:url(#SVGID_16_);}
	.st23{clip-path:url(#PhBxqe_7_);fill:#FFFFFF;}
	.st24{clip-path:url(#SVGID_20_);}
	.st25{clip-path:url(#SVGID_22_);}
	.st26{clip-path:url(#SVGID_24_);}
	.st27{opacity:0.5;clip-path:url(#SVGID_26_);}
	.st28{clip-path:url(#PhBxqe_8_);fill:#FFFFFF;}
	.st29{fill:#606060;}
	.st30{clip-path:url(#SVGID_30_);}
	.st31{clip-path:url(#SVGID_32_);}
	.st32{clip-path:url(#SVGID_34_);}
	.st33{clip-path:url(#SVGID_36_);}
</style>
<g class="st2">
	<defs>
		<path id="SVGID_33_" class="st2" d="M432,149.2c-16,0.3-31.9,1.1-47.9,0.6c-23.2-0.7-46.5-2.5-69.7-3.6c-11-0.6-21.9-1-32.9-1.1
			c-28.6-0.2-57.2-0.5-85.6-5.1c-24.9-4.1-49-11.1-72.6-19.8c-20.4-7.5-40.1-16.5-57.5-29.7C38.3,69.5,16,44.1,2.4,11.8
			C1.3,9.4,0.8,6.7,0,4.2c142.5,0,285,0,427.5-0.1c3.7,0,4.6,0.8,4.6,4.6C431.9,55.5,432,102.4,432,149.2z"/>
	</defs>
	<clipPath id="SVGID_2_">
		<use xlink:href="#SVGID_33_"  style="overflow:visible;"/>
	</clipPath>
	<g id="LVCgAj_21_" style="clip-path:url(#SVGID_2_);">
		<g>
			<g>
				<path class="st0" d="M522.7-61.4c-5,3.8-10,7.6-14.9,11.5C387.2,47.4,266.5,144.8,145.8,242.2C23.5,340.8-98.7,439.4-220.9,538
					c-1,0.8-1.7,1.7-2.6,2.6c-1.6,0-3.1,0-4.7,0c21.9-17.7,43.7-35.5,65.6-53.2C-80.5,421.2,1.7,354.9,83.9,288.6
					C225.3,174.6,366.6,60.5,508-53.5c4.9-3.9,9.8-7.8,14.7-11.7C522.7-64,522.7-62.7,522.7-61.4z"/>
				<path class="st0" d="M-229.2,524c2-1.4,4-2.8,5.9-4.3C-118.1,434.8-12.9,350,92.2,265.1c135.5-109.3,271-218.6,406.5-328
					c1.2-1,2.2-2.1,3.3-3.1c1.6,0,3.1,0,4.7,0c-29.2,23.6-58.4,47.2-87.6,70.8c-69.8,56.4-139.7,112.7-209.6,169.1
					c-33.4,27-67,53.9-100.4,80.8C-2.9,345.2-115,435.7-227.1,526.2c-0.7,0.5-1.4,1-2.1,1.5C-229.2,526.5-229.2,525.2-229.2,524z"/>
				<path class="st0" d="M-207.5,540.6C-140.2,486.3-72.9,432-5.6,377.7c46.9-37.9,93.9-75.7,140.8-113.6
					C208.8,204.7,282.4,145.3,356,85.9c53.9-43.5,107.8-87,161.8-130.5c1.5-1.2,3.3-2.1,4.9-3.2c0,1,0,2,0,3
					c-10.2,8-20.4,16-30.4,24.1C392.2,60.1,292.1,140.8,192,221.6C88.4,305.2-15.2,388.8-118.8,472.4c-26.4,21.3-52.7,42.5-79,63.8
					c-1.7,1.4-3.3,3-5,4.5C-204.4,540.6-206,540.6-207.5,540.6z"/>
				<path class="st0" d="M485.1-66c-1.2,1.2-2.3,2.6-3.7,3.7C359.8,35.9,238.2,134.1,116.5,232.2c-114,92-228,183.9-342.1,275.9
					c-1.1,0.8-2.4,1.5-3.6,2.2c0-1,0-2,0-3c15-12,30.1-23.9,45-36C-96.7,400.8-9.3,330.4,78.1,259.9
					C191,168.7,303.9,77.6,416.8-13.6c20.5-16.5,41-33.1,61.5-49.6c1.1-0.9,2.1-1.9,3.1-2.8C482.6-66,483.9-66,485.1-66z"/>
				<path class="st0" d="M522.7,22.7c-1.2,0.7-2.6,1.3-3.6,2.2C435.4,92.4,351.7,160,268,227.5c-68.7,55.5-137.5,110.9-206.2,166.4
					c-59.4,48-118.9,95.9-178.3,143.9c-1,0.8-1.8,1.9-2.7,2.9c-1.6,0-3.1,0-4.7,0c11.9-9.7,23.6-19.5,35.6-29.1
					C4.1,437,96.5,362.5,188.9,287.9c109.9-88.7,219.7-177.3,329.6-266c1.3-1.1,2.8-2,4.2-3C522.7,20.2,522.7,21.5,522.7,22.7z"/>
				<path class="st0" d="M-229.2,439.8c2.7-2,5.6-3.9,8.2-6c72.1-58.1,144.2-116.3,216.3-174.4C102.7,172.8,210,86.2,317.3-0.3
					c26-21,52-42,78-63c0.9-0.8,1.7-1.7,2.5-2.6c1.6,0,3.1,0,4.7,0c-16.8,13.6-33.5,27.3-50.3,40.8c-54,43.6-108,87.2-162.1,130.7
					C133.3,151.4,76.4,197.2,19.6,243c-51.1,41.3-102.2,82.6-153.3,123.8c-30.9,24.9-61.8,49.8-92.7,74.7c-0.9,0.7-1.8,1.3-2.8,2
					C-229.2,442.3-229.2,441-229.2,439.8z"/>
				<path class="st0" d="M522.7,39.4c-7.6,5.9-15.3,11.8-22.8,17.8c-49.6,40-99.2,80-148.8,120c-28.4,22.9-56.8,45.9-85.3,68.9
					c-45.7,36.9-91.4,73.7-137.1,110.6C57.4,414.3-14,471.8-85.4,529.4c-4.5,3.6-8.7,7.5-13.1,11.2c-1.6,0-3.1,0-4.7,0
					c18.9-15.3,37.7-30.7,56.6-45.9c98.1-79.1,196.2-158.3,294.3-237.4c90.8-73.2,181.5-146.5,272.3-219.7c0.9-0.7,1.9-1.3,2.8-2
					C522.7,36.9,522.7,38.2,522.7,39.4z"/>
				<path class="st0" d="M-229.2,423.1c7.4-5.8,14.9-11.4,22.2-17.3c65.1-52.5,130.2-105,195.3-157.5
					c66.6-53.8,133.3-107.6,199.9-161.3c62-50,124-100,186-150.1c1.1-0.9,1.9-1.9,2.9-2.9c1.6,0,3.1,0,4.7,0
					c-25.4,20.6-50.8,41.1-76.3,61.7C241.3,47.5,177.1,99.3,112.9,151.1c-108.7,87.7-217.4,175.4-326.1,263
					c-5.3,4.3-10.7,8.5-16,12.8C-229.2,425.6-229.2,424.4-229.2,423.1z"/>
				<path class="st0" d="M522.7,56.1c-7.2,5.6-14.4,11.1-21.5,16.8c-76.5,61.7-153,123.5-229.4,185.2
					c-61.4,49.6-122.9,99.1-184.4,148.7C32.8,450.9-21.9,495-76.6,539.1c-0.5,0.4-0.8,1-1.3,1.5c-1.6,0-3.1,0-4.7,0
					c32.6-26.4,65.3-52.8,97.9-79.1c81.5-65.8,163-131.5,244.5-197.3c86.5-69.8,173-139.5,259.5-209.3c1.1-0.9,2.3-1.7,3.4-2.6
					C522.7,53.6,522.7,54.8,522.7,56.1z"/>
				<path class="st0" d="M-229.2,456.5c1.3-0.8,2.8-1.5,4-2.4c78.9-63.7,157.9-127.4,236.8-191C88,201.4,164.3,139.8,240.7,78.2
					C299.2,31,357.6-16.1,416.1-63.3c0.9-0.8,1.6-1.8,2.3-2.7c1.6,0,3.1,0,4.7,0c-11.3,9.3-22.6,18.6-33.9,27.8
					C273.3,55.2,157.5,148.6,41.7,242.1c-89.3,72.1-178.7,144.2-268,216.2c-0.9,0.7-1.9,1.3-2.8,1.9
					C-229.2,459-229.2,457.7-229.2,456.5z"/>
				<path class="st0" d="M361.1-66c-48.1,38.9-96.3,77.7-144.4,116.6C150.1,104.3,83.6,158,17,211.7
					C-65,277.9-147.1,344-229.2,410.2c0-1.3,0-2.5,0-3.8c9.9-7.9,19.9-15.6,29.8-23.6C-79.5,286.2,40.3,189.5,160.2,92.8
					C225,40.4,289.9-11.9,354.7-64.2c0.6-0.5,1.1-1.2,1.7-1.8C357.9-66,359.5-66,361.1-66z"/>
				<path class="st0" d="M-61.9,540.6c76.1-61.4,152.1-122.7,228.2-184.1c96.5-77.9,193.1-155.8,289.6-233.7
					c22.3-18,44.5-35.9,66.8-53.8c0,1.3,0,2.5,0,3.8c-10.7,8.5-21.5,16.9-32.1,25.5C378.4,188.8,266.2,279.3,154,369.9
					c-69.8,56.3-139.7,112.7-209.5,169c-0.6,0.5-1.1,1.2-1.7,1.8C-58.7,540.6-60.3,540.6-61.9,540.6z"/>
				<path class="st0" d="M522.7-28.1C511.8-19.4,500.8-10.7,490-2C427.7,48.3,365.3,98.5,303,148.8c-33.1,26.7-66.1,53.4-99.2,80.1
					C105.1,308.6,6.4,388.2-92.4,467.9c-28.9,23.3-57.8,46.6-86.7,69.9c-1.1,0.9-2.1,1.9-3.1,2.8c-1.3,0-2.5,0-3.8,0
					c4.7-4,9.2-8.1,14.1-12c112.8-91,225.6-182,338.4-273c117.6-94.9,235.3-189.8,353-284.7c1-0.8,2.2-1.3,3.3-2
					C522.7-30.1,522.7-29.1,522.7-28.1z"/>
				<path class="st0" d="M-229.2,490.6c16.4-13.2,32.9-26.3,49.3-39.5c77.5-62.5,155-125.1,232.5-187.6
					c135.1-109,270.1-218,405.2-326.9c1-0.8,1.9-1.7,2.8-2.5c1.3,0,2.5,0,3.8,0c-2.2,2-4.2,4-6.5,5.9
					c-123.1,99.3-246.2,198.7-369.3,298C-16,322.3-120.6,406.7-225.3,491c-1.2,1-2.6,1.7-3.9,2.6
					C-229.2,492.6-229.2,491.6-229.2,490.6z"/>
				<path class="st0" d="M522.7-11.4c-18.1,14.5-36.2,29-54.3,43.5C380.5,103.1,292.6,174,204.7,244.9
					c-121.5,98-242.9,196-364.4,294c-0.7,0.5-1.2,1.1-1.8,1.7c-1.3,0-2.5,0-3.8,0c8.9-7.4,17.8-14.9,26.8-22.2
					c105-84.8,210.1-169.6,315.2-254.3C290.9,172.1,405,80,519.2-12.1c1.1-0.9,2.4-1.6,3.5-2.3C522.7-13.4,522.7-12.4,522.7-11.4z"
					/>
				<path class="st0" d="M522.7,6.1c-1.2,0.7-2.6,1.3-3.6,2.1C440,71.9,361,135.7,281.9,199.5c-78.8,63.6-157.7,127.2-236.5,190.8
					c-60.7,49-121.4,97.9-182,146.9c-1.3,1-2.2,2.3-3.3,3.5c-1.6,0-3.1,0-4.7,0c10.8-8.9,21.6-17.9,32.6-26.7
					c82.1-66.3,164.3-132.5,246.4-198.8C255.7,217.3,377,119.4,498.3,21.6c8.1-6.5,16.3-12.9,24.4-19.3
					C522.7,3.5,522.7,4.8,522.7,6.1z"/>
				<path class="st0" d="M-229.2,473.9c24.5-19.7,49-39.4,73.5-59.1C-89.8,361.6-23.9,308.5,42,255.4
					C174,148.8,306.1,42.3,438.1-64.3c0.7-0.5,1.3-1.1,1.9-1.7c1.3,0,2.5,0,3.8,0c-8.6,7.1-17.1,14.3-25.8,21.4
					c-117.6,94.9-235.3,189.9-353,284.8C-31.4,317.9-127.6,395.6-224,473.2c-1.6,1.3-3.5,2.5-5.2,3.7
					C-229.2,475.9-229.2,474.9-229.2,473.9z"/>
				<path class="st0" d="M522.7,140.3c-1.6,1.1-3.4,2.1-4.9,3.3C354.9,274.9,192.1,406.3,29.2,537.7c-1.1,0.9-1.8,1.9-2.7,2.9
					c-1.6,0-3.1,0-4.7,0c15.9-12.9,31.7-25.8,47.6-38.7c150-121,299.9-242,449.9-362.9c1.1-0.9,2.3-1.7,3.5-2.5
					C522.7,137.7,522.7,139,522.7,140.3z"/>
				<path class="st0" d="M-229.2,389.7c12.9-10.3,25.9-20.5,38.7-30.9C-16.2,218.3,158,77.7,332.3-62.9c1.2-1,2.3-2.1,3.4-3.1
					c1.3,0,2.5,0,3.8,0c-4.4,3.8-8.7,7.8-13.3,11.5C214.5,35.6,102.9,125.6-8.7,215.6C-80.9,273.8-153,332.1-225.2,390.3
					c-1.2,0.9-2.6,1.7-3.9,2.5C-229.2,391.8-229.2,390.7-229.2,389.7z"/>
				<path class="st0" d="M-229.2,322.3c2.7-2,5.6-3.9,8.2-6c156.2-126,312.4-252,468.5-378c1.6-1.3,3-2.8,4.5-4.2c1.6,0,3.1,0,4.7,0
					c-18.4,15-36.8,29.9-55.3,44.8C79,77.7-43.5,176.5-165.9,275.3c-20.3,16.3-40.5,32.7-60.8,49c-0.8,0.6-1.6,1.2-2.5,1.7
					C-229.2,324.8-229.2,323.5-229.2,322.3z"/>
				<path class="st0" d="M-229.2,338.9c1.2-0.7,2.5-1.3,3.6-2.2c118.8-95.8,237.6-191.7,356.4-287.5C176.8,12.2,222.8-24.9,268.7-62
					c1.5-1.2,2.7-2.6,4-4c1.6,0,3.1,0,4.7,0c-14,11.4-27.9,22.8-41.9,34.2C87.1,87.9-61.3,207.7-209.7,327.4
					c-6.4,5.2-13,10.2-19.4,15.3C-229.2,341.5-229.2,340.2-229.2,338.9z"/>
				<path class="st0" d="M522.7,157c-1.6,1.1-3.4,2.2-4.9,3.4C362.7,285.5,207.5,410.7,52.4,535.9c-1.8,1.5-3.5,3.2-5.2,4.8
					c-1.6,0-3.1,0-4.7,0c19-15.4,37.9-30.8,57-46.2C223.9,394,348.3,293.6,472.8,193.2c16.6-13.4,33.3-26.7,49.9-40.1
					C522.7,154.4,522.7,155.7,522.7,157z"/>
				<path class="st0" d="M-229.2,305.6c7.5-5.9,15.1-11.7,22.5-17.6c145.1-117,290.1-234,435.1-351.1c1.1-0.9,1.9-1.9,2.9-2.9
					c1.6,0,3.1,0,4.7,0c-26.8,21.6-53.5,43.3-80.3,64.9C83.6,57.2,11.5,115.4-60.7,173.6c-55.6,44.8-111.1,89.7-166.7,134.5
					c-0.6,0.4-1.2,0.8-1.7,1.3C-229.2,308.1-229.2,306.8-229.2,305.6z"/>
				<path class="st0" d="M522.7,89.5c-14.4,11.5-29,23.1-43.3,34.6C407.2,182.3,335,240.6,262.8,298.8
					c-66.2,53.4-132.4,106.8-198.6,160.2c-32.5,26.3-65.1,52.5-97.6,78.8c-1.1,0.9-2.1,1.9-3.1,2.8c-1.3,0-2.5,0-3.8,0
					c0.9-1,1.8-2,2.8-2.9c174.3-140.7,348.7-281.3,523-422c11.2-9,22.3-18.1,33.6-27c1.1-0.9,2.4-1.5,3.6-2.3
					C522.7,87.4,522.7,88.5,522.7,89.5z"/>
				<path class="st0" d="M215.4-66c-57,46-114,92.1-171.1,138.1C-42.4,142.1-129.1,212-215.8,282c-4.4,3.6-8.9,7.1-13.3,10.7
					c0-1.3,0-2.5,0-3.8c12.6-10,25.2-19.9,37.7-30C-61.7,154.2,68,49.6,197.7-55.1c4.4-3.6,8.7-7.2,13-10.9
					C212.3-66,213.8-66,215.4-66z"/>
				<path class="st0" d="M-229.2,373.1c22.1-17.7,44.2-35.5,66.2-53.2C-78.3,251.6,6.3,183.3,90.9,115.1
					C164.9,55.4,238.9-4.3,312.8-64c0.8-0.6,1.5-1.3,2.2-2c1.3,0,2.5,0,3.8,0c-5.8,4.9-11.5,9.9-17.5,14.7
					C222.1,12.6,142.9,76.5,63.8,140.3C-7.4,197.8-78.6,255.2-149.8,312.7c-25.5,20.6-50.9,41.1-76.4,61.6c-0.9,0.7-1.9,1.2-2.9,1.8
					C-229.2,375.1-229.2,374.1-229.2,373.1z"/>
				<path class="st0" d="M-229.2,356.4c32.1-25.9,64.2-51.7,96.3-77.6c119-96,237.9-192,356.9-287.9c22.2-17.9,44.5-35.9,66.7-53.9
					c1-0.8,1.7-1.9,2.6-2.9c1.6,0,3.1,0,4.7,0c-2.8,2.4-5.4,4.8-8.3,7.1C127.2,72.4-35.4,203.6-198,334.8
					c-9.2,7.4-18.4,14.8-27.6,22.2c-1.1,0.9-2.4,1.6-3.5,2.4C-229.2,358.4-229.2,357.4-229.2,356.4z"/>
				<path class="st0" d="M522.7,106.2c-21.7,17.5-43.5,34.9-65.2,52.4C301.5,284.5,145.4,410.4-10.6,536.3c-1.8,1.4-3.5,2.9-5.2,4.4
					c-1.3,0-2.5,0-3.8,0c5.4-4.5,10.7-9.2,16.2-13.6c154.2-124.5,308.5-248.9,462.8-373.3c19.9-16.1,39.9-32.2,59.8-48.2
					c1.1-0.9,2.4-1.6,3.5-2.4C522.7,104.1,522.7,105.1,522.7,106.2z"/>
				<path class="st0" d="M522.7,123.6c-1.5,1-3.3,1.8-4.6,2.9c-115.2,92.9-230.4,185.9-345.6,278.8
					C116.6,450.4,60.7,495.5,4.9,540.6c-1.3,0-2.5,0-3.8,0c11.7-9.6,23.4-19.3,35.2-28.8c79.6-64.2,159.2-128.4,238.8-192.6
					c81.3-65.6,162.5-131.1,243.8-196.6c1.2-1,2.6-1.8,3.8-2.7C522.7,121.1,522.7,122.3,522.7,123.6z"/>
				<path class="st0" d="M-229.2,221.4c3-2.1,6.1-4.2,8.9-6.5C-118.6,133-17.1,51,84.5-30.9c13.3-10.7,26.5-21.4,39.8-32.2
					c1.1-0.9,1.9-1.9,2.8-2.9c1.6,0,3.1,0,4.7,0c-14,11.4-27.9,22.8-42,34.2C-1.4,41.8-92.6,115.4-183.8,188.9
					c-15,12.1-30.2,24.2-45.3,36.3C-229.2,223.9-229.2,222.7-229.2,221.4z"/>
				<path class="st0" d="M-229.2,272.2c13.4-10.8,26.9-21.5,40.3-32.3C-63.8,139.1,61.2,38.2,186.3-62.6c1.3-1.1,2.5-2.2,3.8-3.4
					c1.3,0,2.5,0,3.8,0c-4.8,4.1-9.5,8.3-14.4,12.3C72.6,32.5-34.2,118.6-140.9,204.7c-28.3,22.8-56.6,45.7-85,68.6
					c-1,0.8-2.2,1.3-3.3,2C-229.2,274.2-229.2,273.2-229.2,272.2z"/>
				<path class="st0" d="M-229.2,204.7c7.6-5.9,15.3-11.8,22.8-17.8c41.9-33.7,83.7-67.5,125.5-101.3C-37.2,50.4,6.4,15.2,50.1-20
					C68-34.4,85.9-48.9,103.9-63.4c1-0.8,1.7-1.7,2.5-2.6c1.6,0,3.1,0,4.7,0C88.4-47.6,65.8-29.3,43.1-11
					c-51,41.2-102,82.3-153,123.5c-38.8,31.3-77.7,62.7-116.5,94c-0.9,0.7-1.8,1.4-2.8,2C-229.2,207.3-229.2,206-229.2,204.7z"/>
				<path class="st0" d="M-229.2,238.1c1.4-0.9,3-1.7,4.3-2.7C-135.8,163.5-46.7,91.6,42.4,19.7c33.6-27.1,67.3-54.3,101-81.4
					c1.6-1.3,2.9-2.8,4.3-4.3c1.6,0,3.1,0,4.7,0c-1.2,1.1-2.4,2.3-3.7,3.4C23.9,38.2-101,139-226,239.7c-1,0.8-2.1,1.4-3.2,2.2
					C-229.2,240.6-229.2,239.4-229.2,238.1z"/>
				<path class="st0" d="M-229.2,255.5c23.3-18.7,46.6-37.4,69.8-56.2c67-54,133.9-108.1,200.9-162.1c42.2-34,84.4-68,126.6-102.1
					c0.4-0.4,0.8-0.8,1.2-1.2c1.3,0,2.5,0,3.8,0c-4.3,3.6-8.5,7.4-12.9,10.9C45.4,37.7-69.5,130.3-184.4,223
					c-13.9,11.3-27.9,22.5-41.9,33.7c-0.9,0.7-1.9,1.2-2.9,1.8C-229.2,257.5-229.2,256.5-229.2,255.5z"/>
				<path class="st0" d="M-229.2,188c7.6-6,15.3-11.8,22.8-17.9C-111.4,93.6-16.5,17,78.5-59.6c2.5-2,4.8-4.2,7.2-6.3
					c1.6,0,3.1,0,4.7,0C38.2-23.8-14.1,18.4-66.3,60.6c-54.3,43.8-108.5,87.5-162.8,131.3C-229.2,190.6-229.2,189.3-229.2,188z"/>
				<path class="st0" d="M-229.2,171.4c10.7-8.5,21.5-16.9,32.1-25.5C-110.6,76.1-24.2,6.3,62.3-63.4c1-0.8,1.8-1.7,2.7-2.5
					c1.6,0,3.1,0,4.7,0C-28.6,13.3-126.9,92.6-225.2,171.9c-1.2,0.9-2.6,1.7-3.9,2.5C-229.2,173.4-229.2,172.4-229.2,171.4z"/>
				<path class="st0" d="M-229.2,154.7c20-16,40-32,59.9-48.1C-99,49.9-28.7-6.8,41.5-63.5c1-0.8,1.9-1.7,2.8-2.5c1.3,0,2.5,0,3.8,0
					c-0.9,1-1.8,2-2.8,2.9c-90.4,73-180.8,145.9-271.2,218.8c-1,0.8-2.2,1.3-3.3,2C-229.2,156.7-229.2,155.7-229.2,154.7z"/>
				<path class="st0" d="M-229.2,120.6c0.9-0.5,1.9-0.8,2.6-1.4c75.6-61,151.3-122,226.9-183.1C1-64.5,1.5-65.3,2-66
					c1.6,0,3.1,0,4.7,0c-11,9-21.9,18-32.9,26.9C-92.4,14.5-158.7,67.9-225,121.4c-1.3,1.1-2.8,2-4.2,3
					C-229.2,123.1-229.2,121.8-229.2,120.6z"/>
				<path class="st0" d="M-229.2,138c29.6-23.8,59.2-47.6,88.8-71.5C-86.5,23.1-32.7-20.3,21.1-63.8c0.9-0.7,1.7-1.5,2.6-2.2
					c1.3,0,2.5,0,3.8,0c-3.1,2.7-6,5.4-9.2,8C-63.2,7.6-144.6,73.3-226,138.9c-1,0.8-2.1,1.4-3.2,2.1
					C-229.2,140-229.2,139-229.2,138z"/>
			</g>
		</g>
	</g>
</g>
</svg>
