<svg xmlns="http://www.w3.org/2000/svg" xmlns:xlink="http://www.w3.org/1999/xlink" id="Layer_1" x="0" y="0" version="1.1" viewBox="0 0 422.1 145" xml:space="preserve" style="enable-background:new 0 0 422.1 145"><style type="text/css">.st0{fill:#61bb71}.st2{opacity:.5}</style><g class="st2"><defs><path id="SVGID_35_" d="M422,3.2c-15.3-0.3-30.7-1.1-46-0.6c-22.3,0.7-44.6,2.4-66.9,3.5c-10.5,0.5-21.1,1-31.6,1.1 c-27.5,0.2-54.9,0.5-82.1,4.9c-23.9,3.9-47,10.7-69.7,19c-19.6,7.2-38.5,15.8-55.1,28.5c-26.5,20.1-47.9,44.5-61,75.5 c-1,2.3-1.5,4.9-2.3,7.3c136.8,0,273.5,0,410.3,0.1c3.6,0,4.4-0.8,4.4-4.4C422,93.1,422,48.2,422,3.2z" class="st2"/></defs><clipPath id="SVGID_2_"><use xlink:href="#SVGID_35_" style="overflow:visible"/></clipPath><g id="LVCgAj_9_" style="clip-path:url(#SVGID_2_)"><g><g><path d="M509.1,205.4c-4.8-3.7-9.6-7.2-14.3-11C379,100.9,263.2,7.5,147.3-86C30-180.6-87.3-275.3-204.6-370 c-0.9-0.7-1.7-1.7-2.5-2.5c-1.5,0-3,0-4.5,0c21,17,42,34,63,51C-69.8-257.8,9.1-194.2,87.9-130.6 C223.6-21.1,359.3,88.3,495,197.8c4.7,3.8,9.4,7.5,14.1,11.2C509.1,207.8,509.1,206.6,509.1,205.4z" class="st0"/><path d="M-212.5-356.4c1.9,1.4,3.8,2.7,5.6,4.1C-106-270.9-5-189.5,95.9-108C226-3.1,356,101.8,486.1,206.8 c1.1,0.9,2.1,2,3.2,3c1.5,0,3,0,4.5,0c-28-22.7-56-45.3-84.1-68c-67-54.1-134.1-108.2-201.1-162.3 c-32.1-25.9-64.3-51.7-96.3-77.6C4.6-184.9-102.9-271.8-210.5-358.6c-0.6-0.5-1.3-1-2-1.5C-212.5-358.9-212.5-357.7-212.5-356.4 z" class="st0"/><path d="M-191.8-372.5C-127.2-320.3-62.6-268.2,2-216.1c45,36.4,90.1,72.7,135.2,109C207.8-50,278.5,7,349.1,64 c51.7,41.7,103.5,83.5,155.3,125.2c1.4,1.2,3.2,2.1,4.8,3.1c0-1,0-1.9,0-2.9c-9.7-7.7-19.6-15.4-29.2-23.1 c-96.1-77.5-192.2-155-288.2-232.5C92.2-146.5-7.2-226.7-106.6-306.9c-25.3-20.4-50.6-40.8-75.9-61.2c-1.7-1.4-3.2-2.9-4.8-4.3 C-188.8-372.5-190.3-372.5-191.8-372.5z" class="st0"/><path d="M473,209.8c-1.2-1.2-2.2-2.5-3.5-3.6C352.8,112,236,17.8,119.2-76.4C9.8-164.7-99.6-253-209.1-341.2 c-1-0.8-2.3-1.4-3.5-2.1c0,1,0,1.9,0,2.9c14.4,11.5,28.9,23,43.2,34.5C-85.4-238.3-1.5-170.6,82.3-103 C190.7-15.5,299.1,72,407.5,159.5c19.7,15.9,39.3,31.7,59,47.6c1.1,0.8,2,1.8,3,2.7C470.6,209.8,471.8,209.8,473,209.8z" class="st0"/><path d="M509.1,124.6c-1.2-0.7-2.5-1.3-3.5-2.1C425.3,57.7,345-7.1,264.7-71.9c-66-53.2-131.9-106.5-197.9-159.7 c-57.1-46-114.1-92.1-171.1-138.1c-1-0.8-1.7-1.8-2.6-2.8c-1.5,0-3,0-4.5,0c11.4,9.3,22.7,18.7,34.1,27.9 C11.3-273,100-201.4,188.7-129.9C294.2-44.8,399.6,40.3,505.1,125.4c1.3,1,2.7,1.9,4,2.9C509.1,127,509.1,125.8,509.1,124.6z" class="st0"/><path d="M-212.5-275.7c2.6,1.9,5.4,3.7,7.9,5.8C-135.4-214.1-66.2-158.3,3-102.5c103,83.1,206,166.1,308.9,249.2 c25,20.2,49.9,40.3,74.9,60.5c0.9,0.7,1.6,1.7,2.4,2.5c1.5,0,3,0,4.5,0c-16.1-13.1-32.1-26.2-48.3-39.2 c-51.8-41.8-103.7-83.7-155.5-125.5C135.3,1.1,80.8-42.8,26.2-86.8c-49.1-39.6-98.1-79.2-147.2-118.8 c-29.6-23.9-59.3-47.8-88.9-71.7c-0.8-0.7-1.8-1.3-2.7-1.9C-212.5-278.1-212.5-276.9-212.5-275.7z" class="st0"/><path d="M509.1,108.6c-7.3-5.7-14.7-11.3-21.9-17.1C439.6,53.1,392,14.7,344.4-23.7c-27.3-22-54.6-44.1-81.8-66.1 c-43.9-35.4-87.7-70.8-131.6-106.1C62.5-251.2-6.1-306.4-74.6-361.7c-4.3-3.5-8.4-7.2-12.6-10.8c-1.5,0-3,0-4.5,0 c18.1,14.7,36.2,29.4,54.4,44.1c94.1,76,188.3,151.9,282.4,227.8C332.2-30.3,419.3,40,506.4,110.3c0.8,0.7,1.8,1.3,2.7,1.9 C509.1,111,509.1,109.8,509.1,108.6z" class="st0"/><path d="M-212.5-259.6c7.1,5.5,14.3,11,21.3,16.6c62.5,50.4,125,100.8,187.4,151.2C60.1-40.2,124.1,11.4,188,63 c59.5,48,119,96,178.5,144c1,0.8,1.9,1.8,2.8,2.8c1.5,0,3,0,4.5,0c-24.4-19.7-48.8-39.5-73.2-59.2 C239,100.8,177.4,51.1,115.8,1.4C11.5-82.7-92.8-166.9-197.1-251c-5.1-4.1-10.3-8.2-15.4-12.3 C-212.5-262.1-212.5-260.9-212.5-259.6z" class="st0"/><path d="M509.1,92.6c-6.9-5.4-13.8-10.7-20.6-16.1C415.1,17.2,341.7-42,268.3-101.3c-59-47.6-118-95.1-176.9-142.7 C38.8-286.3-13.6-328.6-66.1-371c-0.5-0.4-0.8-1-1.2-1.4c-1.5,0-3,0-4.5,0c31.3,25.3,62.6,50.6,94,75.9 c78.2,63.1,156.4,126.2,234.7,189.3c83,67,166,133.9,249,200.9c1.1,0.9,2.2,1.7,3.3,2.5C509.1,95,509.1,93.8,509.1,92.6z" class="st0"/><path d="M-212.5-291.7c1.3,0.8,2.7,1.4,3.8,2.3C-133-228.2-57.2-167.1,18.5-106C91.8-46.8,165.1,12.3,238.5,71.4 c56.1,45.3,112.2,90.5,168.3,135.8c0.9,0.7,1.5,1.7,2.2,2.5c1.5,0,3,0,4.5,0c-10.9-8.9-21.7-17.8-32.6-26.6 C269.8,93.4,158.6,3.8,47.4-85.9c-85.7-69.2-171.5-138.4-257.2-207.5c-0.8-0.7-1.8-1.2-2.7-1.9 C-212.5-294.1-212.5-292.9-212.5-291.7z" class="st0"/><path d="M354,209.8c-46.2-37.3-92.4-74.6-138.6-111.9C151.5,46.3,87.6-5.2,23.8-56.7 c-78.7-63.5-157.5-127-236.3-190.5c0,1.2,0,2.4,0,3.6c9.5,7.5,19.1,15,28.6,22.6C-68.9-128.2,46.1-35.4,161.2,57.4 c62.2,50.2,124.5,100.4,186.7,150.7c0.6,0.5,1.1,1.1,1.6,1.7C351,209.8,352.5,209.8,354,209.8z" class="st0"/><path d="M-52-372.5c73,58.9,146,117.8,219,176.7C259.7-121,352.3-46.2,445,28.5c21.4,17.2,42.7,34.4,64.1,51.7 c0-1.2,0-2.4,0-3.6c-10.3-8.1-20.6-16.2-30.8-24.5C370.6-34.8,262.9-121.7,155.2-208.5c-67-54.1-134-108.1-201.1-162.2 c-0.6-0.5-1.1-1.1-1.6-1.7C-49-372.5-50.5-372.5-52-372.5z" class="st0"/><path d="M509.1,173.4c-10.5-8.3-21-16.6-31.4-25C417.9,100.1,358,51.9,298.2,3.6C266.5-22,234.8-47.7,203-73.3 C108.3-149.8,13.5-226.2-81.2-302.6c-27.7-22.4-55.5-44.7-83.2-67.1c-1.1-0.9-2-1.8-3-2.7c-1.2,0-2.4,0-3.6,0 c4.5,3.9,8.9,7.8,13.5,11.5C-49.3-273.6,59-186.2,167.2-98.9C280.1-7.8,393,83.3,506,174.4c0.9,0.7,2.1,1.3,3.1,1.9 C509.1,175.3,509.1,174.3,509.1,173.4z" class="st0"/><path d="M-212.5-324.4c15.8,12.6,31.6,25.3,47.3,37.9c74.4,60,148.8,120,223.2,180 C187.6-1.8,317.2,102.7,446.9,207.3c1,0.8,1.8,1.6,2.7,2.4c1.2,0,2.4,0,3.6,0c-2.1-1.9-4-3.8-6.2-5.6 C328.8,108.8,210.6,13.5,92.5-81.9c-100.4-81-200.8-162-301.3-243c-1.1-0.9-2.5-1.7-3.7-2.5 C-212.5-326.4-212.5-325.4-212.5-324.4z" class="st0"/><path d="M509.1,157.4c-17.4-13.9-34.8-27.8-52.1-41.8C372.6,47.5,288.3-20.6,203.9-88.7 C87.3-182.7-29.2-276.8-145.8-370.8c-0.6-0.5-1.2-1.1-1.8-1.6c-1.2,0-2.4,0-3.6,0c8.6,7.1,17,14.3,25.7,21.3 C-24.6-269.8,76.2-188.4,177-107.1C286.6-18.7,396.1,69.7,505.7,158c1,0.8,2.3,1.5,3.4,2.2C509.1,159.3,509.1,158.3,509.1,157.4 z" class="st0"/><path d="M509.1,140.6c-1.2-0.7-2.5-1.2-3.5-2C429.7,77.4,353.9,16.2,278-45.1c-75.7-61-151.3-122.1-227-183.1 c-58.2-47-116.5-94-174.7-141c-1.2-1-2.1-2.2-3.2-3.3c-1.5,0-3,0-4.5,0c10.4,8.5,20.8,17.1,31.3,25.6 C-21.3-283.2,57.6-219.6,136.4-156C252.8-62.1,369.2,31.8,485.7,125.7c7.7,6.2,15.6,12.4,23.4,18.5 C509.1,143,509.1,141.8,509.1,140.6z" class="st0"/><path d="M-212.5-308.4c23.5,18.9,47,37.8,70.5,56.8c63.2,51,126.5,102,189.7,153C174.4,3.6,301.2,105.9,427.9,208.1 c0.6,0.5,1.2,1.1,1.8,1.6c1.2,0,2.4,0,3.6,0c-8.3-6.8-16.4-13.7-24.8-20.5C295.6,98.1,182.7,7,69.7-84.1 c-92.4-74.6-184.8-149.1-277.3-223.7c-1.6-1.3-3.3-2.4-5-3.6C-212.5-310.3-212.5-309.4-212.5-308.4z" class="st0"/><path d="M509.1,11.8c-1.6-1-3.3-2-4.7-3.2C348.1-117.4,191.8-243.5,35.5-369.7c-1-0.8-1.8-1.9-2.6-2.8 c-1.5,0-3,0-4.5,0c15.2,12.4,30.4,24.8,45.7,37.1C217.9-219.2,361.9-103.1,505.8,13c1.1,0.8,2.2,1.6,3.3,2.4 C509.1,14.2,509.1,13,509.1,11.8z" class="st0"/><path d="M-212.5-227.6c12.4,9.9,24.8,19.7,37.1,29.6C-8.1-63.1,159.1,71.9,326.3,206.8c1.2,0.9,2.2,2,3.3,3 c1.2,0,2.4,0,3.6,0c-4.3-3.7-8.4-7.5-12.8-11C213.3,112.3,106.2,25.9-0.9-60.5c-69.3-55.9-138.5-111.8-207.8-167.7 c-1.1-0.9-2.5-1.6-3.8-2.4C-212.5-229.6-212.5-228.6-212.5-227.6z" class="st0"/><path d="M-212.5-162.9c2.6,1.9,5.4,3.8,7.9,5.8C-54.7-36.2,95.2,84.8,245,205.7c1.6,1.3,2.9,2.7,4.3,4 c1.5,0,3,0,4.5,0c-17.7-14.3-35.4-28.7-53.1-43C83.2,71.9-34.3-22.9-151.8-117.8c-19.4-15.7-38.9-31.4-58.3-47.1 c-0.7-0.6-1.6-1.1-2.4-1.7C-212.5-165.3-212.5-164.1-212.5-162.9z" class="st0"/><path d="M-212.5-178.9c1.2,0.7,2.4,1.3,3.4,2.1C-95-84.8,19,7.2,133,99.2c44.1,35.6,88.2,71.2,132.3,106.8 c1.4,1.2,2.6,2.5,3.9,3.8c1.5,0,3,0,4.5,0c-13.4-10.9-26.8-21.9-40.2-32.8C91,62-51.4-52.9-193.9-167.8 c-6.2-5-12.4-9.8-18.7-14.7C-212.5-181.3-212.5-180.1-212.5-178.9z" class="st0"/><path d="M-212.5-146.8c7.2,5.6,14.5,11.2,21.6,16.9C-51.7-17.6,87.5,94.7,226.7,207c1,0.8,1.9,1.8,2.8,2.7 c1.5,0,3,0,4.5,0c-25.7-20.8-51.3-41.6-77-62.3C87.7,91.6,18.4,35.7-50.9-20.2c-53.3-43-106.7-86.1-160-129.1 c-0.5-0.4-1.1-0.8-1.7-1.2C-212.5-149.3-212.5-148.1-212.5-146.8z" class="st0"/><path d="M509.1,60.6c-13.9-11.1-27.8-22.1-41.6-33.3C398.2-28.6,329-84.5,259.7-140.4 c-63.5-51.3-127.1-102.5-190.6-153.8c-31.2-25.2-62.5-50.4-93.7-75.6c-1.1-0.8-2-1.8-3-2.7c-1.2,0-2.4,0-3.6,0 c0.9,0.9,1.7,1.9,2.7,2.8c167.3,135,334.7,270,502,405c10.7,8.7,21.4,17.3,32.2,26c1,0.8,2.3,1.5,3.4,2.2 C509.1,62.5,509.1,61.5,509.1,60.6z" class="st0"/><path d="M214.1,209.8c-54.7-44.2-109.5-88.4-164.2-132.5C-33.3,10.1-116.5-57.1-199.7-124.2 c-4.3-3.4-8.5-6.8-12.8-10.3c0,1.2,0,2.4,0,3.6c12.1,9.6,24.2,19.1,36.2,28.8C-51.8-1.6,72.7,98.9,197.2,199.3 c4.2,3.4,8.3,7,12.5,10.4C211.1,209.8,212.6,209.8,214.1,209.8z" class="st0"/><path d="M-212.5-211.6c21.2,17,42.4,34,63.6,51.1C-67.7-95,13.5-29.5,94.7,36c71,57.3,142,114.6,213,171.9 c0.7,0.6,1.4,1.2,2.1,1.9c1.2,0,2.4,0,3.6,0c-5.6-4.7-11.1-9.5-16.8-14.1c-76-61.3-152-122.6-228-183.9 C0.3-43.4-68-98.5-136.4-153.7c-24.4-19.7-48.9-39.4-73.3-59.2c-0.8-0.7-1.9-1.1-2.8-1.7C-212.5-213.6-212.5-212.6-212.5-211.6z" class="st0"/><path d="M-212.5-195.6c30.8,24.8,61.7,49.7,92.5,74.5C-5.9-29,108.3,63.1,222.5,155.3c21.3,17.2,42.7,34.4,64,51.7 c1,0.8,1.7,1.9,2.5,2.8c1.5,0,3,0,4.5,0c-2.6-2.3-5.2-4.6-7.9-6.9C129.5,77-26.6-49-182.7-174.9c-8.8-7.1-17.6-14.2-26.5-21.3 c-1-0.8-2.3-1.5-3.4-2.3C-212.5-197.5-212.5-196.6-212.5-195.6z" class="st0"/><path d="M509.1,44.6c-20.9-16.8-41.7-33.5-62.6-50.3C296.8-126.6,147-247.4-2.8-368.3c-1.7-1.4-3.3-2.8-5-4.2 c-1.2,0-2.4,0-3.6,0c5.2,4.4,10.3,8.8,15.5,13.1C152.2-240,300.3-120.5,448.3-1.1c19.1,15.4,38.2,30.9,57.4,46.3 c1,0.8,2.3,1.5,3.4,2.3C509.1,46.5,509.1,45.5,509.1,44.6z" class="st0"/><path d="M509.1,27.8c-1.5-0.9-3.1-1.7-4.4-2.8C394.1-64.2,283.5-153.4,172.9-242.6 c-53.6-43.3-107.2-86.6-160.9-129.9c-1.2,0-2.4,0-3.6,0c11.3,9.2,22.5,18.5,33.8,27.7c76.4,61.6,152.8,123.3,229.2,184.9 c78,62.9,156,125.8,234,188.7c1.2,0.9,2.5,1.7,3.7,2.6C509.1,30.2,509.1,29,509.1,27.8z" class="st0"/><path d="M-212.5-66.1c2.9,2.1,5.9,4,8.6,6.2c97.5,78.6,195,157.3,292.4,236c12.7,10.3,25.5,20.6,38.2,30.9 c1,0.8,1.8,1.8,2.7,2.8c1.5,0,3,0,4.5,0c-13.4-10.9-26.8-21.9-40.3-32.8C6.1,106.3-81.5,35.7-169-34.9 c-14.4-11.6-29-23.2-43.5-34.8C-212.5-68.5-212.5-67.3-212.5-66.1z" class="st0"/><path d="M-212.5-114.8c12.9,10.3,25.9,20.6,38.7,31c120,96.8,240,193.6,360,290.4c1.3,1,2.4,2.1,3.6,3.2 c1.2,0,2.4,0,3.6,0c-4.6-3.9-9.1-8-13.8-11.8C77.1,115.3-25.4,32.6-127.8-50c-27.2-21.9-54.3-43.9-81.5-65.8 c-0.9-0.7-2.1-1.3-3.1-1.9C-212.5-116.8-212.5-115.8-212.5-114.8z" class="st0"/><path d="M-212.5-50.1c7.3,5.7,14.7,11.3,21.9,17.1c40.2,32.4,80.3,64.8,120.5,97.2C-28.3,98,13.6,131.8,55.5,165.6 c17.2,13.9,34.4,27.8,51.6,41.7c0.9,0.7,1.6,1.7,2.4,2.5c1.5,0,3,0,4.5,0c-21.7-17.6-43.5-35.2-65.2-52.8 C-0.1,117.5-49.1,78-98,38.5c-37.3-30.1-74.6-60.1-111.9-90.2c-0.8-0.7-1.8-1.3-2.7-2C-212.5-52.5-212.5-51.3-212.5-50.1z" class="st0"/><path d="M-212.5-82.1c1.4,0.9,2.9,1.6,4.1,2.6c85.5,69,171,138,256.5,207c32.3,26.1,64.6,52.1,96.9,78.2 c1.5,1.2,2.8,2.7,4.2,4.1c1.5,0,3,0,4.5,0c-1.2-1.1-2.3-2.2-3.5-3.3C30.3,109.8-89.6,13.1-209.5-83.6c-0.9-0.8-2-1.4-3.1-2.1 C-212.5-84.5-212.5-83.3-212.5-82.1z" class="st0"/><path d="M-212.5-98.8c22.3,18,44.7,35.9,67,53.9C-81.2,6.9-16.9,58.8,47.3,110.7c40.5,32.7,81,65.3,121.5,98 c0.4,0.3,0.8,0.7,1.1,1.1c1.2,0,2.4,0,3.6,0c-4.1-3.5-8.1-7.1-12.3-10.5C51,110.3-59.3,21.3-169.6-67.6 c-13.4-10.8-26.8-21.6-40.2-32.4c-0.8-0.7-1.8-1.2-2.8-1.7C-212.5-100.8-212.5-99.8-212.5-98.8z" class="st0"/><path d="M-212.5-34c7.3,5.7,14.7,11.4,21.9,17.2c91.1,73.5,182.3,147,273.4,220.5c2.4,1.9,4.6,4.1,6.9,6.1 c1.5,0,3,0,4.5,0C44,169.3-6.1,128.8-56.3,88.3c-52.1-42-104.2-84-156.3-126C-212.5-36.5-212.5-35.3-212.5-34z" class="st0"/><path d="M-212.5-18c10.3,8.2,20.6,16.3,30.8,24.5c83,66.9,166,133.9,248.9,200.9c0.9,0.8,1.7,1.6,2.6,2.4 c1.5,0,3,0,4.5,0C-20,133.6-114.4,57.5-208.7-18.6c-1.1-0.9-2.5-1.6-3.8-2.4C-212.5-20-212.5-19-212.5-18z" class="st0"/><path d="M-212.5-2c19.2,15.4,38.4,30.7,57.5,46.1C-87.6,98.5-20.2,152.9,47.3,207.4c0.9,0.8,1.8,1.6,2.7,2.4 c1.2,0,2.4,0,3.6,0c-0.9-0.9-1.7-1.9-2.7-2.8C-35.9,137-122.6,67-209.4-3c-0.9-0.7-2.1-1.3-3.1-1.9C-212.5-4-212.5-3-212.5-2z" class="st0"/><path d="M-212.5,30.7c0.8,0.4,1.8,0.8,2.5,1.3C-137.4,90.6-64.8,149.2,7.7,207.8c0.7,0.6,1.1,1.3,1.7,2 c1.5,0,3,0,4.5,0c-10.5-8.6-21-17.3-31.6-25.9C-81.3,132.6-144.9,81.3-208.5,29.9c-1.3-1-2.7-1.9-4-2.9 C-212.5,28.3-212.5,29.5-212.5,30.7z" class="st0"/><path d="M-212.5,14c28.4,22.9,56.8,45.7,85.2,68.6c51.7,41.7,103.3,83.4,155,125c0.8,0.7,1.7,1.4,2.5,2.1 c1.2,0,2.4,0,3.6,0c-2.9-2.5-5.8-5.2-8.9-7.6c-78.1-63-156.2-126-234.3-189c-0.9-0.7-2-1.3-3.1-2C-212.5,12-212.5,13-212.5,14z" class="st0"/></g></g></g></g></svg>