<svg xmlns="http://www.w3.org/2000/svg" xmlns:xlink="http://www.w3.org/1999/xlink" id="Layer_1" x="0" y="0" version="1.1" viewBox="0 0 202.6 210.8" xml:space="preserve" style="enable-background:new 0 0 202.6 210.8"><style type="text/css">.st0{fill:#61bb71}.st2{opacity:.5}</style><g class="st2"><defs><path id="SVGID_29_" d="M103.4,5c54.6,0.1,96,43.6,96.2,100.8c0.2,54.1-44.9,99-98.2,99.5 c-48.8,0.4-101-48.1-99.9-98.7C2.7,52,49,4.9,103.4,5z M84.3,194.3l0.2-0.2C84.5,194.2,84.3,194.3,84.3,194.3z M117.6,22l-0.2,1.4 l1.3-0.5L117.6,22z" class="st2"/></defs><clipPath id="SVGID_2_"><use xlink:href="#SVGID_29_" style="overflow:visible"/></clipPath><g id="LVCgAj_23_" style="clip-path:url(#SVGID_2_)"><g><g><path d="M384.9-206.6c-5,3.8-10,7.6-14.9,11.5C249.4-97.8,128.7-0.4,8,97c-122.2,98.6-244.5,197.2-366.7,295.9 c-1,0.8-1.7,1.7-2.6,2.6c-1.6,0-3.1,0-4.7,0c21.9-17.7,43.7-35.5,65.6-53.2c82.1-66.3,164.3-132.6,246.5-198.8 C87.5,29.4,228.8-84.6,370.2-198.7c4.9-3.9,9.8-7.8,14.7-11.7C384.9-209.1,384.9-207.8,384.9-206.6z" class="st0"/><path d="M-367,378.8c2-1.4,4-2.8,5.9-4.3C-255.9,289.7-150.7,204.8-45.6,120C89.9,10.6,225.5-98.7,360.9-208 c1.2-1,2.2-2.1,3.3-3.1c1.6,0,3.1,0,4.7,0c-29.2,23.6-58.4,47.2-87.6,70.8C211.5-84,141.7-27.6,71.8,28.7 c-33.4,27-67,53.9-100.4,80.8c-112.1,90.5-224.2,181-336.3,271.5c-0.7,0.5-1.4,1-2.1,1.5C-367,381.3-367,380.1-367,378.8z" class="st0"/><path d="M-345.3,395.5c67.3-54.3,134.6-108.6,201.9-162.9c46.9-37.9,93.9-75.7,140.8-113.6 C71,59.5,144.6,0.1,218.2-59.2c53.9-43.5,107.8-87,161.8-130.5c1.5-1.2,3.3-2.1,4.9-3.2c0,1,0,2,0,3c-10.2,8-20.4,16-30.4,24.1 C254.4-85.1,154.3-4.3,54.2,76.4C-49.4,160-153,243.6-256.6,327.2c-26.4,21.3-52.7,42.5-79,63.8c-1.7,1.4-3.3,3-5,4.5 C-342.2,395.5-343.8,395.5-345.3,395.5z" class="st0"/><path d="M347.3-211.1c-1.2,1.2-2.3,2.6-3.7,3.7C222-109.2,100.4-11.1-21.3,87c-114,92-228,183.9-342.1,275.9 c-1.1,0.8-2.4,1.5-3.6,2.2c0-1,0-2,0-3c15-12,30.1-23.9,45-36c87.4-70.5,174.8-140.9,262.2-211.4 C53.2,23.6,166.1-67.6,279-158.7c20.5-16.5,41-33.1,61.5-49.6c1.1-0.9,2.1-1.9,3.1-2.8C344.8-211.1,346.1-211.1,347.3-211.1z" class="st0"/><path d="M384.9-122.4c-1.2,0.7-2.6,1.3-3.6,2.2c-83.7,67.5-167.4,135-251.1,202.5C61.5,137.8-7.2,193.2-76,248.7 c-59.4,48-118.9,95.9-178.3,143.9c-1,0.8-1.8,1.9-2.7,2.9c-1.6,0-3.1,0-4.7,0c11.9-9.7,23.6-19.5,35.6-29.1 c92.4-74.6,184.8-149.1,277.2-223.6C161,54.1,270.9-34.6,380.7-123.2c1.3-1.1,2.8-2,4.2-3C384.9-124.9,384.9-123.7,384.9-122.4z" class="st0"/><path d="M-367,294.6c2.7-2,5.6-3.9,8.2-6c72.1-58.1,144.2-116.3,216.3-174.4C-35.1,27.6,72.2-58.9,179.5-145.5 c26-21,52-42,78-63c0.9-0.8,1.7-1.7,2.5-2.6c1.6,0,3.1,0,4.7,0c-16.8,13.6-33.5,27.3-50.3,40.8c-54,43.6-108,87.2-162.1,130.7 C-4.5,6.3-61.4,52-118.2,97.8c-51.1,41.3-102.2,82.6-153.3,123.8c-30.9,24.9-61.8,49.8-92.7,74.7c-0.9,0.7-1.8,1.3-2.8,2 C-367,297.2-367,295.9-367,294.6z" class="st0"/><path d="M384.9-105.7c-7.6,5.9-15.3,11.8-22.8,17.8c-49.6,40-99.2,80-148.8,120C184.9,55,156.5,78,128.1,100.9 C82.4,137.8,36.7,174.7-9,211.5c-71.4,57.6-142.8,115.1-214.2,172.7c-4.5,3.6-8.7,7.5-13.1,11.2c-1.6,0-3.1,0-4.7,0 c18.9-15.3,37.7-30.7,56.6-45.9c98.1-79.1,196.2-158.3,294.3-237.4c90.8-73.2,181.5-146.5,272.3-219.7c0.9-0.7,1.9-1.3,2.8-2 C384.9-108.3,384.9-107,384.9-105.7z" class="st0"/><path d="M-367,277.9c7.4-5.8,14.9-11.4,22.2-17.3c65.1-52.5,130.2-105,195.3-157.5C-82.8,49.3-16.2-4.4,50.4-58.2 c62-50,124-100,186-150.1c1.1-0.9,1.9-1.9,2.9-2.9c1.6,0,3.1,0,4.7,0c-25.4,20.6-50.8,41.1-76.3,61.7 C103.5-97.6,39.3-45.9-24.9,5.9c-108.7,87.7-217.4,175.4-326.1,263c-5.3,4.3-10.7,8.5-16,12.8C-367,280.5-367,279.2-367,277.9z" class="st0"/><path d="M384.9-89.1c-7.2,5.6-14.4,11.1-21.5,16.8C287-10.5,210.5,51.2,134,112.9C72.6,162.5,11.1,212-50.4,261.6 c-54.7,44.1-109.4,88.2-164,132.4c-0.5,0.4-0.8,1-1.3,1.5c-1.6,0-3.1,0-4.7,0c32.6-26.4,65.3-52.8,97.9-79.1 c81.5-65.8,163-131.5,244.5-197.3C208.6,49.3,295-20.5,381.5-90.2c1.1-0.9,2.3-1.7,3.4-2.6C384.9-91.6,384.9-90.3,384.9-89.1z" class="st0"/><path d="M-367,311.3c1.3-0.8,2.8-1.5,4-2.4c78.9-63.7,157.9-127.4,236.8-191C-49.8,56.2,26.6-5.4,102.9-67 c58.5-47.2,116.9-94.3,175.3-141.5c0.9-0.8,1.6-1.8,2.3-2.7c1.6,0,3.1,0,4.7,0c-11.3,9.3-22.6,18.6-33.9,27.8 C135.6-89.9,19.7,3.5-96.1,96.9c-89.3,72.1-178.7,144.2-268,216.2c-0.9,0.7-1.9,1.3-2.8,1.9C-367,313.8-367,312.6-367,311.3z" class="st0"/><path d="M223.3-211.1C175.1-172.3,127-133.4,78.8-94.5C12.3-40.8-54.2,12.9-120.8,66.5 c-82,66.2-164.1,132.3-246.2,198.5c0-1.3,0-2.5,0-3.8c9.9-7.9,19.9-15.6,29.8-23.6C-217.3,141-97.5,44.3,22.4-52.4 c64.9-52.3,129.7-104.6,194.5-157c0.6-0.5,1.1-1.2,1.7-1.8C220.1-211.1,221.7-211.1,223.3-211.1z" class="st0"/><path d="M-199.7,395.5c76.1-61.4,152.1-122.7,228.2-184.1c96.5-77.9,193.1-155.8,289.6-233.7 c22.3-18,44.5-35.9,66.8-53.8c0,1.3,0,2.5,0,3.8c-10.7,8.5-21.5,16.9-32.1,25.5C240.6,43.6,128.4,134.2,16.2,224.7 c-69.8,56.3-139.7,112.7-209.5,169c-0.6,0.5-1.1,1.2-1.7,1.8C-196.5,395.5-198.1,395.5-199.7,395.5z" class="st0"/><path d="M384.9-173.2c-10.9,8.7-21.9,17.3-32.7,26.1C289.9-96.9,227.5-46.6,165.2,3.7C132.1,30.4,99.1,57.1,66,83.8 c-98.7,79.7-197.4,159.3-296.2,238.9c-28.9,23.3-57.8,46.6-86.7,69.9c-1.1,0.9-2.1,1.9-3.1,2.8c-1.3,0-2.5,0-3.8,0 c4.7-4,9.2-8.1,14.1-12c112.8-91,225.6-182,338.4-273C146.4,15.5,264-79.4,381.7-174.3c1-0.8,2.2-1.3,3.3-2 C384.9-175.2,384.9-174.2,384.9-173.2z" class="st0"/><path d="M-367,345.4c16.4-13.2,32.9-26.3,49.3-39.5c77.5-62.5,155-125.1,232.5-187.6C49.9,9.3,185-99.6,320.1-208.6 c1-0.8,1.9-1.7,2.8-2.5c1.3,0,2.5,0,3.8,0c-2.2,2-4.2,4-6.5,5.9C197.1-105.9,74-6.6-49.2,92.7 C-153.8,177.1-258.4,261.5-363,345.9c-1.2,1-2.6,1.7-3.9,2.6C-367,347.4-367,346.4-367,345.4z" class="st0"/><path d="M384.9-156.5c-18.1,14.5-36.2,29-54.3,43.5C242.7-42.1,154.8,28.9,66.9,99.8c-121.5,98-242.9,196-364.4,294 c-0.7,0.5-1.2,1.1-1.8,1.7c-1.3,0-2.5,0-3.8,0c8.9-7.4,17.8-14.9,26.8-22.2C-171.2,288.5-66.1,203.7,39,119 C153.1,26.9,267.2-65.2,381.4-157.2c1.1-0.9,2.4-1.6,3.5-2.3C384.9-158.6,384.9-157.6,384.9-156.5z" class="st0"/><path d="M384.9-139.1c-1.2,0.7-2.6,1.3-3.6,2.1C302.2-73.2,223.2-9.4,144.1,54.4C65.3,118-13.5,181.5-92.4,245.1 c-60.7,49-121.4,97.9-182,146.9c-1.3,1-2.2,2.3-3.3,3.5c-1.6,0-3.1,0-4.7,0c10.8-8.9,21.6-17.9,32.6-26.7 C-167.7,302.5-85.5,236.3-3.4,170C117.9,72.1,239.2-25.7,360.5-123.6c8.1-6.5,16.3-12.9,24.4-19.3 C384.9-141.6,384.9-140.4,384.9-139.1z" class="st0"/><path d="M-367,328.7c24.5-19.7,49-39.4,73.5-59.1c65.9-53.1,131.8-106.3,197.6-159.4 C36.2,3.6,168.3-102.9,300.3-209.5c0.7-0.5,1.3-1.1,1.9-1.7c1.3,0,2.5,0,3.8,0c-8.6,7.1-17.1,14.3-25.8,21.4 C162.5-94.8,44.8,0.1-72.9,95c-96.3,77.7-192.6,155.4-288.9,233.1c-1.6,1.3-3.5,2.5-5.2,3.7C-367,330.8-367,329.8-367,328.7z" class="st0"/><path d="M384.9-4.9c-1.6,1.1-3.4,2.1-4.9,3.3C217.1,129.8,54.3,261.2-108.6,392.6c-1.1,0.9-1.8,1.9-2.7,2.9 c-1.6,0-3.1,0-4.7,0c15.9-12.9,31.7-25.8,47.6-38.7c150-121,299.9-242,449.9-362.9c1.1-0.9,2.3-1.7,3.5-2.5 C384.9-7.4,384.9-6.2,384.9-4.9z" class="st0"/><path d="M-367,244.6c12.9-10.3,25.9-20.5,38.7-30.9C-154,73.1,20.2-67.5,194.5-208.1c1.2-1,2.3-2.1,3.4-3.1 c1.3,0,2.5,0,3.8,0c-4.4,3.8-8.7,7.8-13.3,11.5C76.8-109.6-34.9-19.6-146.5,70.4c-72.2,58.2-144.4,116.5-216.6,174.7 c-1.2,0.9-2.6,1.7-3.9,2.5C-367,246.6-367,245.6-367,244.6z" class="st0"/><path d="M-367,177.1c2.7-2,5.6-3.9,8.2-6c156.2-126,312.4-252,468.5-378c1.6-1.3,3-2.8,4.5-4.2c1.6,0,3.1,0,4.7,0 c-18.4,15-36.8,29.9-55.3,44.8C-58.8-67.5-181.3,31.3-303.7,130.1c-20.3,16.3-40.5,32.7-60.8,49c-0.8,0.6-1.6,1.2-2.5,1.7 C-367,179.6-367,178.4-367,177.1z" class="st0"/><path d="M-367,193.8c1.2-0.7,2.5-1.3,3.6-2.2C-244.5,95.8-125.7-0.1-6.9-95.9C39-133,85-170.1,130.9-207.2 c1.5-1.2,2.7-2.6,4-4c1.6,0,3.1,0,4.7,0c-14,11.4-27.9,22.8-41.9,34.2C-50.7-57.2-199.1,62.5-347.5,182.2 c-6.4,5.2-13,10.2-19.4,15.3C-367,196.3-367,195-367,193.8z" class="st0"/><path d="M384.9,11.8c-1.6,1.1-3.4,2.2-4.9,3.4C224.9,140.3,69.7,265.5-85.4,390.7c-1.8,1.5-3.5,3.2-5.2,4.8 c-1.6,0-3.1,0-4.7,0c19-15.4,37.9-30.8,57-46.2C86.1,248.9,210.5,148.5,335,48.1c16.6-13.4,33.3-26.7,49.9-40.1 C384.9,9.3,384.9,10.5,384.9,11.8z" class="st0"/><path d="M-367,160.4c7.5-5.9,15.1-11.7,22.5-17.6c145.1-117,290.1-234,435.1-351.1c1.1-0.9,1.9-1.9,2.9-2.9 c1.6,0,3.1,0,4.7,0c-26.8,21.6-53.5,43.3-80.3,64.9C-54.1-88-126.3-29.8-198.5,28.4c-55.6,44.8-111.1,89.7-166.7,134.5 c-0.6,0.4-1.2,0.8-1.7,1.3C-367,162.9-367,161.7-367,160.4z" class="st0"/><path d="M384.9,28.5c-10,7.9-20.2,15.8-30.1,23.8C285.5,108.2,216.2,164.1,146.9,220 C80.6,273.6,14.3,327.1-52,380.6c-6.1,4.9-12,9.9-17.9,14.9c-1.6,0-3.1,0-4.7,0c37.2-30,74.3-60.1,111.5-90.1 c61.8-49.8,123.5-99.7,185.3-149.5c54.2-43.8,108.5-87.5,162.8-131.2C384.9,25.9,384.9,27.2,384.9,28.5z" class="st0"/><path d="M384.9-55.7c-14.4,11.5-29,23.1-43.3,34.6C269.4,37.2,197.2,95.4,125,153.6 C58.8,207.1-7.3,260.5-73.5,313.9c-32.5,26.3-65.1,52.5-97.6,78.8c-1.1,0.9-2.1,1.9-3.1,2.8c-1.3,0-2.5,0-3.8,0 c0.9-1,1.8-2,2.8-2.9c174.3-140.7,348.7-281.3,523-422c11.2-9,22.3-18.1,33.6-27c1.1-0.9,2.4-1.5,3.6-2.3 C384.9-57.7,384.9-56.7,384.9-55.7z" class="st0"/><path d="M77.6-211.1c-57,46-114,92.1-171.1,138.1c-86.7,70-173.4,139.9-260.2,209.9c-4.4,3.6-8.9,7.1-13.3,10.7 c0-1.3,0-2.5,0-3.8c12.6-10,25.2-19.9,37.7-30C-199.5,9.1-69.8-95.6,59.9-200.3c4.4-3.6,8.7-7.2,13-10.9 C74.5-211.1,76-211.1,77.6-211.1z" class="st0"/><path d="M-367,227.9c22.1-17.7,44.2-35.5,66.2-53.2c84.6-68.2,169.2-136.5,253.8-204.8 c74-59.7,147.9-119.4,221.9-179.1c0.8-0.6,1.5-1.3,2.2-2c1.3,0,2.5,0,3.8,0c-5.8,4.9-11.5,9.9-17.5,14.7 C84.3-132.6,5.1-68.7-74-4.8c-71.2,57.4-142.4,114.9-213.6,172.4c-25.5,20.6-50.9,41.1-76.4,61.6c-0.9,0.7-1.9,1.2-2.9,1.8 C-367,229.9-367,228.9-367,227.9z" class="st0"/><path d="M-367,211.2c32.1-25.9,64.2-51.7,96.3-77.6c119-96,237.9-192,356.9-287.9c22.2-17.9,44.5-35.9,66.7-53.9 c1-0.8,1.7-1.9,2.6-2.9c1.6,0,3.1,0,4.7,0c-2.8,2.4-5.4,4.8-8.3,7.1C-10.6-72.8-173.2,58.4-335.8,189.6 c-9.2,7.4-18.4,14.8-27.6,22.2c-1.1,0.9-2.4,1.6-3.5,2.4C-367,213.2-367,212.2-367,211.2z" class="st0"/><path d="M384.9-39c-21.7,17.5-43.5,34.9-65.2,52.4C163.7,139.3,7.6,265.2-148.4,391.1c-1.8,1.4-3.5,2.9-5.2,4.4 c-1.3,0-2.5,0-3.8,0c5.4-4.5,10.7-9.2,16.2-13.6C13.1,257.4,167.3,133,321.6,8.6c19.9-16.1,39.9-32.2,59.8-48.2 c1.1-0.9,2.4-1.6,3.5-2.4C384.9-41,384.9-40,384.9-39z" class="st0"/><path d="M384.9-21.6c-1.5,1-3.3,1.8-4.6,2.9C265.1,74.3,149.9,167.2,34.7,260.2c-55.9,45.1-111.7,90.2-167.6,135.3 c-1.3,0-2.5,0-3.8,0c11.7-9.6,23.4-19.3,35.2-28.8C-21.9,302.4,57.7,238.2,137.3,174c81.3-65.6,162.5-131.1,243.8-196.6 c1.2-1,2.6-1.8,3.8-2.7C384.9-24.1,384.9-22.8,384.9-21.6z" class="st0"/><path d="M384.9,45.2c-11.1,8.9-22.3,17.7-33.4,26.6c-84.4,68-168.7,136.1-253,204.1C50,315.1,1.4,354.2-47.2,393.4 c-0.8,0.6-1.4,1.3-2.1,2c-1.3,0-2.5,0-3.8,0c1.2-1.2,2.3-2.6,3.7-3.7C43.5,316.8,136.3,241.9,229.2,167 C281.1,125.1,333,83.2,384.9,41.4C384.9,42.6,384.9,43.9,384.9,45.2z" class="st0"/><path d="M-367,127c13.4-10.8,26.9-21.5,40.3-32.3C-201.6-6.1-76.6-106.9,48.5-207.8c1.3-1.1,2.5-2.2,3.8-3.4 c1.3,0,2.5,0,3.8,0c-4.8,4.1-9.5,8.3-14.4,12.3C-65.2-112.7-171.9-26.6-278.7,59.5c-28.3,22.8-56.6,45.7-85,68.6 c-1,0.8-2.2,1.3-3.3,2C-367,129.1-367,128.1-367,127z" class="st0"/><path d="M384.9,112.6c-7.5,5.8-15.2,11.6-22.5,17.5c-47.2,38-94.3,76-141.4,114.1c-46,37.1-92,74.3-138,111.4 c-15.3,12.3-30.5,24.6-45.8,37c-1.1,0.9-1.9,1.9-2.8,2.9c-1.6,0-3.1,0-4.7,0c20-16.2,39.9-32.4,59.9-48.6 c87.4-70.6,174.9-141.1,262.3-211.6c11-8.8,22-17.6,33-26.4C384.9,110.1,384.9,111.4,384.9,112.6z" class="st0"/><path d="M-367,92.9c1.4-0.9,3-1.7,4.3-2.7c89.1-71.9,178.2-143.8,267.3-215.7c33.6-27.1,67.3-54.3,101-81.4 c1.6-1.3,2.9-2.8,4.3-4.3c1.6,0,3.1,0,4.7,0c-1.2,1.1-2.4,2.3-3.7,3.4C-113.9-107-238.8-6.2-363.8,94.6c-1,0.8-2.1,1.4-3.2,2.2 C-367,95.5-367,94.2-367,92.9z" class="st0"/><path d="M384.9,129.3c-7.1,5.5-14.2,10.9-21.2,16.5c-51.5,41.5-102.9,83.1-154.4,124.6 c-48.7,39.3-97.5,78.6-146.2,117.9c-2.8,2.3-5.4,4.8-8.2,7.2c-1.6,0-3.1,0-4.7,0c29.2-23.6,58.3-47.2,87.5-70.8 c80.9-65.3,161.8-130.5,242.7-195.8c1.4-1.2,2.9-2.3,4.4-3.4C384.9,126.8,384.9,128.1,384.9,129.3z" class="st0"/><path d="M384.9,61.8c-20.5,16.5-41.1,32.9-61.6,49.4c-64,51.6-128,103.3-192,154.9C78.3,309,25.3,351.8-27.8,394.6 c-0.3,0.3-0.6,0.6-0.8,0.9c-1.3,0-2.5,0-3.8,0c0.9-1,1.8-2,2.9-2.9C107.1,282.3,243.7,172.1,380.3,61.9c1.4-1.1,3.1-2.1,4.6-3.1 C384.9,59.8,384.9,60.8,384.9,61.8z" class="st0"/><path d="M-367,110.4c23.3-18.7,46.6-37.4,69.8-56.2c67-54,133.9-108.1,200.9-162.1c42.2-34,84.4-68,126.6-102.1 c0.4-0.4,0.8-0.8,1.2-1.2c1.3,0,2.5,0,3.8,0c-4.3,3.6-8.5,7.4-12.9,10.9C-92.4-107.5-207.3-14.8-322.2,77.9 c-13.9,11.3-27.9,22.5-41.9,33.7c-0.9,0.7-1.9,1.2-2.9,1.8C-367,112.4-367,111.4-367,110.4z" class="st0"/><path d="M384.9,96c-1.3,0.8-2.8,1.5-3.9,2.4C312,154,243.1,209.6,174.1,265.3c-52.5,42.3-104.9,84.7-157.4,127 c-1.2,0.9-2,2.1-3,3.2c-1.6,0-3.1,0-4.7,0c11.3-9.2,22.5-18.6,33.9-27.7C155.2,277.1,267.5,186.5,379.8,96 c1.6-1.3,3.4-2.5,5.2-3.8C384.9,93.4,384.9,94.7,384.9,96z" class="st0"/><path d="M384.9,78.5c-25.7,20.7-51.5,41.3-77.1,62.1c-63.3,51.1-126.6,102.2-189.9,153.3 C75.9,327.7,34,361.6-7.9,395.5c-1.3,0-2.5,0-3.8,0c8.1-6.7,16-13.4,24.2-20c121.3-97.9,242.6-195.7,363.9-293.6 c2.7-2.2,5.7-4.3,8.5-6.4C384.9,76.5,384.9,77.5,384.9,78.5z" class="st0"/><path d="M384.9,146c-9.3,7.3-18.6,14.6-27.8,21.9C264.4,242.7,171.7,317.5,79,392.4c-1.2,1-2.2,2.1-3.3,3.1 c-1.6,0-3.1,0-4.7,0c38.8-31.4,77.7-62.8,116.5-94.1c65-52.4,130-104.9,195-157.3c0.8-0.6,1.6-1.2,2.4-1.8 C384.9,143.5,384.9,144.7,384.9,146z" class="st0"/><path d="M384.9,162.7c-14.6,11.6-29.2,23.2-43.7,34.9c-69.4,56-138.8,112-208.2,168c-12.3,9.9-24.4,19.9-36.6,29.9 c-1.3,0-2.5,0-3.8,0c1-1.1,1.9-2.2,3.1-3.2c95.3-76.9,190.6-153.8,285.9-230.7c0.9-0.8,2.2-1.3,3.3-2 C384.9,160.7,384.9,161.7,384.9,162.7z" class="st0"/><path d="M384.9,179.4c-20.6,16.6-41.3,33.1-61.9,49.7c-67.5,54.4-135,108.9-202.5,163.4c-1.2,1-2.4,2-3.5,3 c-1.3,0-2.5,0-3.8,0c5.6-4.7,11.1-9.5,16.8-14.1C214,313.7,297.8,246,381.7,178.4c1-0.8,2.1-1.4,3.2-2.1 C384.9,177.3,384.9,178.4,384.9,179.4z" class="st0"/><path d="M384.9,196.8c-0.9,0.4-1.9,0.7-2.6,1.3c-81.5,65.8-163.1,131.6-244.6,197.3c-1.3,0-2.5,0-3.8,0 c9.1-7.5,18-15,27.2-22.4c73.4-59.2,146.8-118.4,220.2-177.6c1.1-0.9,2.4-1.6,3.5-2.4C384.9,194.3,384.9,195.5,384.9,196.8z" class="st0"/><path d="M384.9,212.7c-75.5,60.9-151,121.8-226.5,182.7c-1.3,0-2.5,0-3.8,0c11.9-9.7,23.7-19.4,35.6-29.1 c63.8-51.5,127.7-103,191.5-154.5c1-0.8,2.1-1.5,3.2-2.2C384.9,210.7,384.9,211.7,384.9,212.7z" class="st0"/></g></g></g></g></svg>