<?xml version="1.0" encoding="utf-8"?>
<!-- Generator: Adobe Illustrator 24.2.1, SVG Export Plug-In . SVG Version: 6.00 Build 0)  -->
<svg version="1.1" id="Layer_1" xmlns="http://www.w3.org/2000/svg" xmlns:xlink="http://www.w3.org/1999/xlink" x="0px" y="0px"
	 viewBox="0 0 727.4 249.2" style="enable-background:new 0 0 727.4 249.2;" xml:space="preserve">
<style type="text/css">
	.st0{fill:#61BB71;}
	.st1{opacity:0.5;clip-path:url(#SVGID_2_);}
	.st2{opacity:0.5;}
	.st3{clip-path:url(#PhBxqe_5_);fill:#FFFFFF;}
	.st4{fill:#081E29;}
	.st5{fill:#FFFFFF;}
	.st6{clip-path:url(#SVGID_4_);}
	.st7{fill:#E6E6E6;}
	.st8{fill:none;stroke:#E6E6E6;stroke-miterlimit:10;}
	.st9{fill:#F2F2F2;}
	.st10{clip-path:url(#SVGID_6_);}
	.st11{fill:#DAFFCE;}
	.st12{fill:#F2F2F2;stroke:#000000;stroke-miterlimit:10;}
	.st13{fill:#FFFFFF;stroke:#000000;stroke-miterlimit:10;}
	.st14{fill:none;stroke:#000000;stroke-miterlimit:10;}
	.st15{fill:none;stroke:#61BB71;stroke-width:5;stroke-miterlimit:10;}
	.st16{fill:#FFFFFF;stroke:#61BB71;stroke-width:5;stroke-miterlimit:10;}
	.st17{clip-path:url(#SVGID_8_);}
	.st18{clip-path:url(#PhBxqe_6_);fill:#E6E6E6;}
	.st19{clip-path:url(#SVGID_10_);}
	.st20{clip-path:url(#SVGID_12_);}
	.st21{clip-path:url(#SVGID_14_);}
	.st22{opacity:0.5;clip-path:url(#SVGID_16_);}
	.st23{clip-path:url(#PhBxqe_7_);fill:#FFFFFF;}
	.st24{clip-path:url(#SVGID_20_);}
	.st25{clip-path:url(#SVGID_22_);}
	.st26{clip-path:url(#SVGID_24_);}
	.st27{opacity:0.5;clip-path:url(#SVGID_26_);}
	.st28{clip-path:url(#PhBxqe_8_);fill:#FFFFFF;}
	.st29{fill:#606060;}
	.st30{clip-path:url(#SVGID_30_);}
	.st31{clip-path:url(#SVGID_32_);}
	.st32{clip-path:url(#SVGID_34_);}
	.st33{clip-path:url(#SVGID_36_);}
</style>
<g class="st2">
	<defs>
		<path id="SVGID_31_" class="st2" d="M0,5.2c6.8-1.5,13.5-3.8,20.3-4.4C49-1.7,76.6,1,101.4,17.4c14,9.3,23.9,22.1,31.1,37
			c4.7,9.6,9.2,19.2,13.8,28.8c13.5,28,36.2,45.9,64.3,57.7c25.9,10.8,53,12.3,80.5,9.8c42.4-3.9,82.7-16.8,123.5-28.1
			c30.8-8.5,61.6-17.1,92.9-23.6c37.8-7.8,76-7.9,113.1,4.2c50.3,16.4,88,48.2,109.5,97c6.8,15.5,10,32.7,14.9,49.1
			c-246.8,0-493.7,0-740.5,0.1c-3.7,0-4.6-0.8-4.6-4.6C0,164.9,0,85.1,0,5.2z"/>
	</defs>
	<clipPath id="SVGID_2_">
		<use xlink:href="#SVGID_31_"  style="overflow:visible;"/>
	</clipPath>
	<g id="LVCgAj_22_" style="clip-path:url(#SVGID_2_);">
		<g>
			<g>
				<path class="st0" d="M727.4-195c-5,3.8-10,7.6-14.9,11.5C591.8-86.2,471.1,11.2,350.4,108.6C228.1,207.2,105.9,305.8-16.3,404.4
					c-1,0.8-1.7,1.7-2.6,2.6c-1.6,0-3.1,0-4.7,0c21.9-17.7,43.7-35.5,65.6-53.2c82.1-66.3,164.3-132.6,246.5-198.8
					C429.9,41,571.3-73.1,712.6-187.1c4.9-3.9,9.8-7.8,14.7-11.7C727.4-197.5,727.4-196.3,727.4-195z"/>
				<path class="st0" d="M-24.5,390.4c2-1.4,4-2.8,5.9-4.3c105.2-84.8,210.4-169.7,315.5-254.6c135.5-109.3,271-218.6,406.5-328
					c1.2-1,2.2-2.1,3.3-3.1c1.6,0,3.1,0,4.7,0c-29.2,23.6-58.4,47.2-87.6,70.8C554-72.4,484.1-16,414.2,40.3
					c-33.4,27-67,53.9-100.4,80.8c-112.1,90.5-224.2,181-336.3,271.5c-0.7,0.5-1.4,1-2.1,1.5C-24.5,392.9-24.5,391.6-24.5,390.4z"/>
				<path class="st0" d="M-2.9,407C64.4,352.7,131.7,298.4,199,244.1c46.9-37.9,93.9-75.7,140.8-113.6
					C413.4,71.1,487,11.7,560.6-47.7c53.9-43.5,107.8-87,161.8-130.5c1.5-1.2,3.3-2.1,4.9-3.2c0,1,0,2,0,3
					c-10.2,8-20.4,16-30.4,24.1C596.8-73.5,496.7,7.3,396.6,88C293,171.6,189.4,255.2,85.8,338.8c-26.4,21.3-52.7,42.5-79,63.8
					c-1.7,1.4-3.3,3-5,4.5C0.2,407-1.3,407-2.9,407z"/>
				<path class="st0" d="M689.8-199.6c-1.2,1.2-2.3,2.6-3.7,3.7C564.4-97.7,442.8,0.5,321.1,98.6c-114,92-228,183.9-342.1,275.9
					c-1.1,0.8-2.4,1.5-3.6,2.2c0-1,0-2,0-3c15-12,30.1-23.9,45-36c87.4-70.5,174.8-140.9,262.2-211.4
					C395.6,35.1,508.5-56,621.5-147.2c20.5-16.5,41-33.1,61.5-49.6c1.1-0.9,2.1-1.9,3.1-2.8C687.3-199.6,688.5-199.6,689.8-199.6z"
					/>
				<path class="st0" d="M727.4-110.8c-1.2,0.7-2.6,1.3-3.6,2.2C640-41.2,556.4,26.4,472.7,93.9c-68.7,55.5-137.5,110.9-206.2,166.4
					c-59.4,48-118.9,95.9-178.3,143.9c-1,0.8-1.8,1.9-2.7,2.9c-1.6,0-3.1,0-4.7,0c11.9-9.7,23.6-19.5,35.6-29.1
					c92.4-74.6,184.8-149.1,277.2-223.6C503.4,65.7,613.3-23,723.2-111.7c1.3-1.1,2.8-2,4.2-3C727.4-113.4,727.4-112.1,727.4-110.8z
					"/>
				<path class="st0" d="M-24.5,306.2c2.7-2,5.6-3.9,8.2-6C55.8,242.1,127.9,183.9,200,125.7C307.3,39.2,414.6-47.4,521.9-133.9
					c26-21,52-42,78-63c0.9-0.8,1.7-1.7,2.5-2.6c1.6,0,3.1,0,4.7,0c-16.8,13.6-33.5,27.3-50.3,40.8c-54,43.6-108,87.2-162.1,130.7
					C337.9,17.8,281,63.6,224.3,109.4C173.1,150.7,122,192,70.9,233.2C40,258.2,9.1,283.1-21.8,308c-0.9,0.7-1.8,1.3-2.8,2
					C-24.5,308.7-24.5,307.5-24.5,306.2z"/>
				<path class="st0" d="M727.4-94.2c-7.6,5.9-15.3,11.8-22.8,17.8c-49.6,40-99.2,80-148.8,120c-28.4,22.9-56.8,45.9-85.3,68.9
					c-45.7,36.9-91.4,73.7-137.1,110.6C262,280.7,190.6,338.2,119.2,395.8c-4.5,3.6-8.7,7.5-13.1,11.2c-1.6,0-3.1,0-4.7,0
					c18.9-15.3,37.7-30.7,56.6-45.9c98.1-79.1,196.2-158.3,294.3-237.4C543.1,50.5,633.8-22.7,724.6-96c0.9-0.7,1.9-1.3,2.8-2
					C727.4-96.7,727.4-95.4,727.4-94.2z"/>
				<path class="st0" d="M-24.5,289.5c7.4-5.8,14.9-11.4,22.2-17.3c65.1-52.5,130.2-105,195.3-157.5
					C259.6,60.9,326.2,7.1,392.8-46.6c62-50,124-100,186-150.1c1.1-0.9,1.9-1.9,2.9-2.9c1.6,0,3.1,0,4.7,0
					c-25.4,20.6-50.8,41.1-76.3,61.7C445.9-86.1,381.8-34.3,317.6,17.5c-108.7,87.7-217.4,175.4-326.1,263
					c-5.3,4.3-10.7,8.5-16,12.8C-24.5,292-24.5,290.8-24.5,289.5z"/>
				<path class="st0" d="M727.4-77.5c-7.2,5.6-14.4,11.1-21.5,16.8C629.4,1,552.9,62.8,476.4,124.5
					c-61.4,49.6-122.9,99.1-184.4,148.7c-54.7,44.1-109.4,88.2-164,132.4c-0.5,0.4-0.8,1-1.3,1.5c-1.6,0-3.1,0-4.7,0
					c32.6-26.4,65.3-52.8,97.9-79.1c81.5-65.8,163-131.5,244.5-197.3C551,60.9,637.5-8.9,724-78.7c1.1-0.9,2.3-1.7,3.4-2.6
					C727.4-80,727.4-78.7,727.4-77.5z"/>
				<path class="st0" d="M-24.5,322.9c1.3-0.8,2.8-1.5,4-2.4c78.9-63.7,157.9-127.4,236.8-191C292.6,67.8,369,6.2,445.4-55.4
					c58.5-47.2,116.9-94.3,175.3-141.5c0.9-0.8,1.6-1.8,2.3-2.7c1.6,0,3.1,0,4.7,0c-11.3,9.3-22.6,18.6-33.9,27.8
					C478-78.4,362.1,15.1,246.3,108.5C157,180.6,67.6,252.7-21.7,324.7c-0.9,0.7-1.9,1.3-2.8,1.9C-24.5,325.4-24.5,324.1-24.5,322.9
					z"/>
				<path class="st0" d="M565.7-199.6c-48.1,38.9-96.3,77.7-144.4,116.6C354.7-29.3,288.2,24.4,221.7,78.1
					c-82,66.2-164.1,132.3-246.2,198.5c0-1.3,0-2.5,0-3.8c9.9-7.9,19.9-15.6,29.8-23.6C125.1,152.6,245,55.9,364.8-40.8
					c64.9-52.3,129.7-104.6,194.5-157c0.6-0.5,1.1-1.2,1.7-1.8C562.6-199.6,564.1-199.6,565.7-199.6z"/>
				<path class="st0" d="M142.8,407c76.1-61.4,152.1-122.7,228.2-184.1C467.5,145,564,67.1,660.6-10.8c22.3-18,44.5-35.9,66.8-53.8
					c0,1.3,0,2.5,0,3.8c-10.7,8.5-21.5,16.9-32.1,25.5C583.1,55.2,470.9,145.7,358.7,236.3c-69.8,56.3-139.7,112.7-209.5,169
					c-0.6,0.5-1.1,1.2-1.7,1.8C145.9,407,144.3,407,142.8,407z"/>
				<path class="st0" d="M727.4-161.7c-10.9,8.7-21.9,17.3-32.7,26.1C632.3-85.3,570-35.1,507.6,15.2
					c-33.1,26.7-66.1,53.4-99.2,80.1C309.7,175,211,254.7,112.3,334.3c-28.9,23.3-57.8,46.6-86.7,69.9c-1.1,0.9-2.1,1.9-3.1,2.8
					c-1.3,0-2.5,0-3.8,0c4.7-4,9.2-8.1,14.1-12c112.8-91,225.6-182,338.4-273c117.6-94.9,235.3-189.8,353-284.7c1-0.8,2.2-1.3,3.3-2
					C727.4-163.7,727.4-162.7,727.4-161.7z"/>
				<path class="st0" d="M-24.5,357c16.4-13.2,32.9-26.3,49.3-39.5c77.5-62.5,155-125.1,232.5-187.6
					c135.1-109,270.1-218,405.2-326.9c1-0.8,1.9-1.7,2.8-2.5c1.3,0,2.5,0,3.8,0c-2.2,2-4.2,4-6.5,5.9
					C539.5-94.4,416.4,5,293.3,104.3C188.6,188.7,84,273.1-20.6,357.5c-1.2,1-2.6,1.7-3.9,2.6C-24.5,359-24.5,358-24.5,357z"/>
				<path class="st0" d="M727.4-145c-18.1,14.5-36.2,29-54.3,43.5C585.2-30.5,497.3,40.4,409.3,111.4c-121.5,98-242.9,196-364.4,294
					c-0.7,0.5-1.2,1.1-1.8,1.7c-1.3,0-2.5,0-3.8,0c8.9-7.4,17.8-14.9,26.8-22.2c105-84.8,210.1-169.6,315.2-254.3
					C495.5,38.5,609.7-53.6,723.8-145.7c1.1-0.9,2.4-1.6,3.5-2.3C727.4-147,727.4-146,727.4-145z"/>
				<path class="st0" d="M727.4-127.5c-1.2,0.7-2.6,1.3-3.6,2.1C644.7-61.7,565.6,2.1,486.6,65.9
					c-78.8,63.6-157.7,127.2-236.5,190.8c-60.7,49-121.4,97.9-182,146.9c-1.3,1-2.2,2.3-3.3,3.5c-1.6,0-3.1,0-4.7,0
					c10.8-8.9,21.6-17.9,32.6-26.7c82.1-66.3,164.3-132.5,246.4-198.8C460.3,83.7,581.6-14.2,702.9-112c8.1-6.5,16.3-12.9,24.4-19.3
					C727.4-130.1,727.4-128.8,727.4-127.5z"/>
				<path class="st0" d="M-24.5,340.3c24.5-19.7,49-39.4,73.5-59.1c65.9-53.1,131.8-106.3,197.6-159.4
					C378.6,15.2,510.7-91.3,642.8-197.9c0.7-0.5,1.3-1.1,1.9-1.7c1.3,0,2.5,0,3.8,0c-8.6,7.1-17.1,14.3-25.8,21.4
					c-117.6,94.9-235.3,189.9-353,284.8C173.3,184.3,77,262-19.3,339.6c-1.6,1.3-3.5,2.5-5.2,3.7C-24.5,342.3-24.5,341.3-24.5,340.3
					z"/>
				<path class="st0" d="M727.4,6.7c-1.6,1.1-3.4,2.1-4.9,3.3C559.6,141.3,396.7,272.7,233.9,404.1c-1.1,0.9-1.8,1.9-2.7,2.9
					c-1.6,0-3.1,0-4.7,0c15.9-12.9,31.7-25.8,47.6-38.7c150-121,299.9-242,449.9-362.9c1.1-0.9,2.3-1.7,3.5-2.5
					C727.4,4.2,727.4,5.4,727.4,6.7z"/>
				<path class="st0" d="M-24.5,256.1c12.9-10.3,25.9-20.5,38.7-30.9C188.4,84.7,362.7-55.9,536.9-196.5c1.2-1,2.3-2.1,3.4-3.1
					c1.3,0,2.5,0,3.8,0c-4.4,3.8-8.7,7.8-13.3,11.5C419.2-98,307.6-8,196,82C123.8,140.2,51.6,198.5-20.6,256.7
					c-1.2,0.9-2.6,1.7-3.9,2.5C-24.5,258.2-24.5,257.2-24.5,256.1z"/>
				<path class="st0" d="M-24.5,188.7c2.7-2,5.6-3.9,8.2-6c156.2-126,312.4-252,468.5-378c1.6-1.3,3-2.8,4.5-4.2c1.6,0,3.1,0,4.7,0
					c-18.4,15-36.8,29.9-55.3,44.8C283.6-55.9,161.2,42.9,38.7,141.7c-20.3,16.3-40.5,32.7-60.8,49c-0.8,0.6-1.6,1.2-2.5,1.7
					C-24.5,191.2-24.5,189.9-24.5,188.7z"/>
				<path class="st0" d="M-24.5,205.3c1.2-0.7,2.5-1.3,3.6-2.2C97.9,107.3,216.7,11.5,335.5-84.3c45.9-37.1,91.9-74.1,137.8-111.2
					c1.5-1.2,2.7-2.6,4-4c1.6,0,3.1,0,4.7,0c-14,11.4-27.9,22.8-41.9,34.2C291.7-45.7,143.3,74.1-5.1,193.8
					c-6.4,5.2-13,10.2-19.4,15.3C-24.5,207.9-24.5,206.6-24.5,205.3z"/>
				<path class="st0" d="M727.4,23.4c-1.6,1.1-3.4,2.2-4.9,3.4C567.3,151.9,412.1,277.1,257,402.3c-1.8,1.5-3.5,3.2-5.2,4.8
					c-1.6,0-3.1,0-4.7,0c19-15.4,37.9-30.8,57-46.2C428.5,260.4,553,160,677.4,59.6c16.6-13.4,33.3-26.7,49.9-40.1
					C727.4,20.8,727.4,22.1,727.4,23.4z"/>
				<path class="st0" d="M-24.5,172c7.5-5.9,15.1-11.7,22.5-17.6c145.1-117,290.1-234,435.1-351.1c1.1-0.9,1.9-1.9,2.9-2.9
					c1.6,0,3.1,0,4.7,0c-26.8,21.6-53.5,43.3-80.3,64.9C288.3-76.4,216.1-18.2,143.9,40C88.3,84.8,32.8,129.7-22.8,174.5
					c-0.6,0.4-1.2,0.8-1.7,1.3C-24.5,174.5-24.5,173.2-24.5,172z"/>
				<path class="st0" d="M727.4,40c-10,7.9-20.2,15.8-30.1,23.8c-69.3,55.9-138.6,111.8-207.9,167.7
					c-66.3,53.5-132.6,107-198.9,160.5c-6.1,4.9-12,9.9-17.9,14.9c-1.6,0-3.1,0-4.7,0c37.2-30,74.3-60.1,111.5-90.1
					c61.8-49.8,123.5-99.7,185.3-149.5C618.8,123.7,673.1,80,727.4,36.3C727.4,37.5,727.4,38.8,727.4,40z"/>
				<path class="st0" d="M727.4-44.1c-14.4,11.5-29,23.1-43.3,34.6C611.8,48.7,539.6,107,467.5,165.2
					C401.3,218.6,335.1,272,268.9,325.5c-32.5,26.3-65.1,52.5-97.6,78.8c-1.1,0.9-2.1,1.9-3.1,2.8c-1.3,0-2.5,0-3.8,0
					c0.9-1,1.8-2,2.8-2.9c174.3-140.7,348.7-281.3,523-422c11.2-9,22.3-18.1,33.6-27c1.1-0.9,2.4-1.5,3.6-2.3
					C727.4-46.1,727.4-45.1,727.4-44.1z"/>
				<path class="st0" d="M420-199.6c-57,46-114,92.1-171.1,138.1C162.2,8.5,75.5,78.4-11.2,148.4c-4.4,3.6-8.9,7.1-13.3,10.7
					c0-1.3,0-2.5,0-3.8c12.6-10,25.2-19.9,37.7-30C142.9,20.6,272.6-84,402.3-188.7c4.4-3.6,8.7-7.2,13-10.9
					C416.9-199.6,418.5-199.6,420-199.6z"/>
				<path class="st0" d="M-24.5,239.5c22.1-17.7,44.2-35.5,66.2-53.2C126.3,118,210.9,49.7,295.5-18.5
					c74-59.7,147.9-119.4,221.9-179.1c0.8-0.6,1.5-1.3,2.2-2c1.3,0,2.5,0,3.8,0c-5.8,4.9-11.5,9.9-17.5,14.7
					C426.8-121,347.6-57.1,268.4,6.7C197.2,64.2,126,121.6,54.8,179.1c-25.5,20.6-50.9,41.1-76.4,61.6c-0.9,0.7-1.9,1.2-2.9,1.8
					C-24.5,241.5-24.5,240.5-24.5,239.5z"/>
				<path class="st0" d="M-24.5,222.8c32.1-25.9,64.2-51.7,96.3-77.6c119-96,237.9-192,356.9-287.9c22.2-17.9,44.5-35.9,66.7-53.9
					c1-0.8,1.7-1.9,2.6-2.9c1.6,0,3.1,0,4.7,0c-2.8,2.4-5.4,4.8-8.3,7.1C331.8-61.2,169.2,70,6.6,201.2
					c-9.2,7.4-18.4,14.8-27.6,22.2c-1.1,0.9-2.4,1.6-3.5,2.4C-24.5,224.8-24.5,223.8-24.5,222.8z"/>
				<path class="st0" d="M727.4-27.4C705.6-10,683.9,7.5,662.2,25C506.1,150.9,350.1,276.8,194,402.7c-1.8,1.4-3.5,2.9-5.2,4.4
					c-1.3,0-2.5,0-3.8,0c5.4-4.5,10.7-9.2,16.2-13.6C355.5,269,509.8,144.6,664,20.1C683.9,4,703.9-12,723.8-28.1
					c1.1-0.9,2.4-1.6,3.5-2.4C727.4-29.5,727.4-28.5,727.4-27.4z"/>
				<path class="st0" d="M727.4-10c-1.5,1-3.3,1.8-4.6,2.9C607.5,85.8,492.3,178.8,377.1,271.7c-55.9,45.1-111.7,90.2-167.6,135.3
					c-1.3,0-2.5,0-3.8,0c11.7-9.6,23.4-19.3,35.2-28.8c79.6-64.2,159.2-128.4,238.8-192.6C561,120,642.2,54.5,723.5-11.1
					c1.2-1,2.6-1.8,3.8-2.7C727.4-12.5,727.4-11.3,727.4-10z"/>
				<path class="st0" d="M727.4,56.7C716.2,65.6,705,74.4,694,83.3c-84.4,68-168.7,136.1-253,204.1
					c-48.6,39.2-97.2,78.4-145.8,117.6c-0.8,0.6-1.4,1.3-2.1,2c-1.3,0-2.5,0-3.8,0c1.2-1.2,2.3-2.6,3.7-3.7
					c92.8-74.9,185.7-149.9,278.5-224.8c51.9-41.9,103.8-83.7,155.7-125.6C727.4,54.2,727.4,55.5,727.4,56.7z"/>
				<path class="st0" d="M-24.5,87.8c3-2.1,6.1-4.2,8.9-6.5C86-0.6,187.5-82.5,289.1-164.5c13.3-10.7,26.5-21.4,39.8-32.2
					c1.1-0.9,1.9-1.9,2.8-2.9c1.6,0,3.1,0,4.7,0c-14,11.4-27.9,22.8-42,34.2C203.2-91.8,112-18.2,20.8,55.3
					C5.7,67.5-9.4,79.5-24.5,91.6C-24.5,90.3-24.5,89.1-24.5,87.8z"/>
				<path class="st0" d="M-24.5,138.6c13.4-10.8,26.9-21.5,40.3-32.3C140.8,5.5,265.9-95.4,390.9-196.2c1.3-1.1,2.5-2.2,3.8-3.4
					c1.3,0,2.5,0,3.8,0c-4.8,4.1-9.5,8.3-14.4,12.3C277.3-101.1,170.5-15,63.7,71.1c-28.3,22.8-56.6,45.7-85,68.6
					c-1,0.8-2.2,1.3-3.3,2C-24.5,140.6-24.5,139.6-24.5,138.6z"/>
				<path class="st0" d="M-24.5,71.1c7.6-5.9,15.3-11.8,22.8-17.8C40.2,19.6,82-14.2,123.9-48c43.6-35.2,87.2-70.4,130.8-105.6
					c17.9-14.5,35.9-28.9,53.8-43.4c1-0.8,1.7-1.7,2.5-2.6c1.6,0,3.1,0,4.7,0c-22.6,18.3-45.3,36.7-67.9,55
					c-51,41.2-102,82.3-153,123.5c-38.8,31.3-77.7,62.7-116.5,94c-0.9,0.7-1.8,1.4-2.8,2C-24.5,73.7-24.5,72.4-24.5,71.1z"/>
				<path class="st0" d="M727.4,124.2c-7.5,5.8-15.2,11.6-22.5,17.5c-47.2,38-94.3,76-141.4,114.1c-46,37.1-92,74.3-138,111.4
					c-15.3,12.3-30.5,24.6-45.8,37c-1.1,0.9-1.9,1.9-2.8,2.9c-1.6,0-3.1,0-4.7,0c20-16.2,39.9-32.4,59.9-48.6
					c87.4-70.6,174.9-141.1,262.3-211.6c11-8.8,22-17.6,33-26.4C727.4,121.7,727.4,122.9,727.4,124.2z"/>
				<path class="st0" d="M-24.5,104.5c1.4-0.9,3-1.7,4.3-2.7C68.9,29.9,158-42,247.1-113.9c33.6-27.1,67.3-54.3,101-81.4
					c1.6-1.3,2.9-2.8,4.3-4.3c1.6,0,3.1,0,4.7,0c-1.2,1.1-2.4,2.3-3.7,3.4C228.5-95.4,103.6,5.4-21.3,106.1c-1,0.8-2.1,1.4-3.2,2.2
					C-24.5,107-24.5,105.8-24.5,104.5z"/>
				<path class="st0" d="M727.4,140.9c-7.1,5.5-14.2,10.9-21.2,16.5c-51.5,41.5-102.9,83.1-154.4,124.6
					c-48.7,39.3-97.5,78.6-146.2,117.9c-2.8,2.3-5.4,4.8-8.2,7.2c-1.6,0-3.1,0-4.7,0c29.2-23.6,58.3-47.2,87.5-70.8
					C561.2,271,642.1,205.8,723,140.5c1.4-1.2,2.9-2.3,4.4-3.4C727.4,138.4,727.4,139.6,727.4,140.9z"/>
				<path class="st0" d="M727.4,73.4c-20.5,16.5-41.1,32.9-61.6,49.4c-64,51.6-128,103.3-192,154.9c-53,42.8-106.1,85.6-159.1,128.4
					c-0.3,0.3-0.6,0.6-0.8,0.9c-1.3,0-2.5,0-3.8,0c0.9-1,1.8-2,2.9-2.9C449.5,293.9,586.1,183.7,722.8,73.5c1.4-1.1,3.1-2.1,4.6-3.1
					C727.4,71.4,727.4,72.4,727.4,73.4z"/>
				<path class="st0" d="M-24.5,121.9c23.3-18.7,46.6-37.4,69.8-56.2c67-54,133.9-108.1,200.9-162.1c42.2-34,84.4-68,126.6-102.1
					c0.4-0.4,0.8-0.8,1.2-1.2c1.3,0,2.5,0,3.8,0c-4.3,3.6-8.5,7.4-12.9,10.9C250-95.9,135.1-3.3,20.2,89.4
					c-13.9,11.3-27.9,22.5-41.9,33.7c-0.9,0.7-1.9,1.2-2.9,1.8C-24.5,124-24.5,122.9-24.5,121.9z"/>
				<path class="st0" d="M727.4,107.5c-1.3,0.8-2.8,1.5-3.9,2.4c-69,55.6-137.9,111.3-206.9,166.9c-52.5,42.3-104.9,84.7-157.4,127
					c-1.2,0.9-2,2.1-3,3.2c-1.6,0-3.1,0-4.7,0c11.3-9.2,22.5-18.6,33.9-27.7c112.3-90.6,224.6-181.2,336.9-271.8
					c1.6-1.3,3.4-2.5,5.2-3.8C727.4,105,727.4,106.3,727.4,107.5z"/>
				<path class="st0" d="M-24.5,54.5c7.6-6,15.3-11.8,22.8-17.9c95-76.6,189.9-153.2,284.8-229.8c2.5-2,4.8-4.2,7.2-6.3
					c1.6,0,3.1,0,4.7,0C242.8-157.4,190.5-115.2,138.3-73C84-29.3,29.7,14.5-24.5,58.2C-24.5,57-24.5,55.7-24.5,54.5z"/>
				<path class="st0" d="M727.4,90.1c-25.7,20.7-51.5,41.3-77.1,62.1c-63.3,51.1-126.6,102.2-189.9,153.3
					c-41.9,33.9-83.9,67.7-125.8,101.6c-1.3,0-2.5,0-3.8,0c8.1-6.7,16-13.4,24.2-20c121.3-97.9,242.6-195.7,363.9-293.6
					c2.7-2.2,5.7-4.3,8.5-6.4C727.4,88.1,727.4,89.1,727.4,90.1z"/>
				<path class="st0" d="M727.4,157.6c-9.3,7.3-18.6,14.6-27.8,21.9c-92.7,74.8-185.4,149.6-278.1,224.4c-1.2,1-2.2,2.1-3.3,3.1
					c-1.6,0-3.1,0-4.7,0c38.8-31.4,77.7-62.8,116.5-94.1c65-52.4,130-104.9,195-157.3c0.8-0.6,1.6-1.2,2.4-1.8
					C727.4,155,727.4,156.3,727.4,157.6z"/>
				<path class="st0" d="M-24.5,37.8c10.7-8.5,21.5-16.9,32.1-25.5C94-57.5,180.5-127.2,266.9-197c1-0.8,1.8-1.7,2.7-2.5
					c1.6,0,3.1,0,4.7,0C176-120.3,77.7-41-20.6,38.3c-1.2,0.9-2.6,1.7-3.9,2.5C-24.5,39.8-24.5,38.8-24.5,37.8z"/>
				<path class="st0" d="M727.4,174.3c-14.6,11.6-29.2,23.2-43.7,34.9c-69.4,56-138.8,112-208.2,168c-12.3,9.9-24.4,19.9-36.6,29.9
					c-1.3,0-2.5,0-3.8,0c1-1.1,1.9-2.2,3.1-3.2c95.3-76.9,190.6-153.8,285.9-230.7c0.9-0.8,2.2-1.3,3.3-2
					C727.4,172.2,727.4,173.2,727.4,174.3z"/>
				<path class="st0" d="M-24.5,21.1c20-16,40-32,59.9-48.1c70.3-56.7,140.5-113.4,210.8-170.1c1-0.8,1.9-1.7,2.8-2.5
					c1.3,0,2.5,0,3.8,0c-0.9,1-1.8,2-2.8,2.9C159.5-123.7,69.1-50.8-21.3,22.1c-1,0.8-2.2,1.3-3.3,2C-24.5,23.1-24.5,22.1-24.5,21.1
					z"/>
				<path class="st0" d="M727.4,190.9c-20.6,16.6-41.3,33.1-61.9,49.7C598,295.1,530.5,349.5,463,404c-1.2,1-2.4,2-3.5,3
					c-1.3,0-2.5,0-3.8,0c5.6-4.7,11.1-9.5,16.8-14.1c83.9-67.7,167.7-135.3,251.6-202.9c1-0.8,2.1-1.4,3.2-2.1
					C727.4,188.9,727.4,189.9,727.4,190.9z"/>
				<path class="st0" d="M727.4,208.4c-0.9,0.4-1.9,0.7-2.6,1.3C643.2,275.5,561.7,341.3,480.2,407c-1.3,0-2.5,0-3.8,0
					c9.1-7.5,18-15,27.2-22.4C577,325.4,650.4,266.2,723.8,207c1.1-0.9,2.4-1.6,3.5-2.4C727.4,205.8,727.4,207.1,727.4,208.4z"/>
				<path class="st0" d="M727.4,241.7c-1.1,0.7-2.3,1.2-3.2,2c-66.3,53.5-132.6,106.9-198.8,160.4c-1.1,0.9-1.9,1.9-2.8,2.9
					c-1.6,0-3.1,0-4.7,0c18.1-14.7,36.1-29.3,54.3-44c50.6-40.9,101.3-81.7,151.9-122.6c1.1-0.9,2.3-1.7,3.4-2.5
					C727.4,239.2,727.4,240.5,727.4,241.7z"/>
				<path class="st0" d="M-24.5,4.4C5.1-19.4,34.7-43.2,64.3-67.1c53.8-43.4,107.6-86.9,161.5-130.3c0.9-0.7,1.7-1.5,2.6-2.2
					c1.3,0,2.5,0,3.8,0c-3.1,2.7-6,5.4-9.2,8C141.5-125.9,60.1-60.3-21.3,5.3c-1,0.8-2.1,1.4-3.2,2.1C-24.5,6.4-24.5,5.4-24.5,4.4z"
					/>
				<path class="st0" d="M727.4,224.3c-75.5,60.9-151,121.8-226.5,182.7c-1.3,0-2.5,0-3.8,0c11.9-9.7,23.7-19.4,35.6-29.1
					c63.8-51.5,127.7-103,191.5-154.5c1-0.8,2.1-1.5,3.2-2.2C727.4,222.3,727.4,223.3,727.4,224.3z"/>
			</g>
		</g>
	</g>
</g>
</svg>
