<?xml version="1.0" encoding="utf-8"?>
<!-- Generator: Adobe Illustrator 24.2.1, SVG Export Plug-In . SVG Version: 6.00 Build 0)  -->
<svg version="1.1" id="Layer_1" xmlns="http://www.w3.org/2000/svg" xmlns:xlink="http://www.w3.org/1999/xlink" x="0px" y="0px"
	 viewBox="0 0 200 100" style="enable-background:new 0 0 200 100;" xml:space="preserve">
<style type="text/css">
	.st0{fill:#61BB71;}
	.st1{opacity:0.5;clip-path:url(#SVGID_2_);}
	.st2{opacity:0.5;}
	.st3{clip-path:url(#PhBxqe_5_);fill:#FFFFFF;}
	.st4{fill:#081E29;}
	.st5{fill:#FFFFFF;}
	.st6{clip-path:url(#SVGID_4_);}
	.st7{fill:#E6E6E6;}
	.st8{fill:none;stroke:#E6E6E6;stroke-miterlimit:10;}
	.st9{fill:#F2F2F2;}
	.st10{clip-path:url(#SVGID_6_);}
	.st11{fill:#DAFFCE;}
	.st12{fill:#F2F2F2;stroke:#000000;stroke-miterlimit:10;}
	.st13{fill:#FFFFFF;stroke:#000000;stroke-miterlimit:10;}
	.st14{fill:none;stroke:#000000;stroke-miterlimit:10;}
	.st15{fill:none;stroke:#61BB71;stroke-width:5;stroke-miterlimit:10;}
	.st16{fill:#FFFFFF;stroke:#61BB71;stroke-width:5;stroke-miterlimit:10;}
	.st17{clip-path:url(#SVGID_8_);}
	.st18{clip-path:url(#PhBxqe_6_);fill:#E6E6E6;}
	.st19{clip-path:url(#SVGID_10_);}
	.st20{clip-path:url(#SVGID_12_);}
	.st21{clip-path:url(#SVGID_14_);}
	.st22{opacity:0.5;clip-path:url(#SVGID_16_);}
	.st23{clip-path:url(#PhBxqe_7_);fill:#FFFFFF;}
	.st24{clip-path:url(#SVGID_20_);}
	.st25{clip-path:url(#SVGID_22_);}
	.st26{clip-path:url(#SVGID_24_);}
	.st27{opacity:0.5;clip-path:url(#SVGID_26_);}
	.st28{clip-path:url(#PhBxqe_8_);fill:#FFFFFF;}
	.st29{clip-path:url(#SVGID_30_);}
	.st30{clip-path:url(#SVGID_32_);}
	.st31{clip-path:url(#SVGID_34_);}
	.st32{clip-path:url(#SVGID_36_);}
</style>
<g id="nChGlZ_4_">
	<g>
		<g>
			<path class="st5" d="M36.1,72.6c-14,0.1-24.6-9.7-25.3-22.9c-0.7-13.2,8.9-23,20-24.9c8.5-1.5,19.5,2.7,24.5,11.7
				c0.7,1.3,1,2.3-0.2,3.6c-1.6,1.6-3,3.3-4.4,5.1c-1.2,1.4-2.2,1.2-3.3-0.1c-1-1.2-3-2.1-1.1-4.1c0.2-0.2,0.3-0.3,0.5-0.5
				c2.4-2.9,2.4-3.2-0.5-5.5c-5.7-4.6-11.9-5.5-18.6-2.7C20.7,35.1,17.3,40.8,17,48c-0.4,7.4,4.3,14,10.7,16.9
				c7.6,3.4,15.5,0.4,19.9-3.9c1.8-1.8,1.8-2.4,0.1-4.1c-3.1-3.2-6.3-6.3-9.5-9.5c-0.3-0.3-0.6-0.6-1-0.9c-1.4-1-3-1.1-3.9,0.2
				c-0.7,0.9-0.9,2.5-0.6,3.6c0.5,1.6,2.1,1.9,3.6,1.5c1.2-0.4,2.1-1.4,3.6,0c3,2.9,2.9,4.3-1.1,5.8c-4.1,1.6-8.6,0.2-11.3-3.5
				c-2.2-3.1-1.9-8.4,0.6-11.3c2.8-3.2,7.6-4.2,11.4-2.2c1.2,0.6,2.2,1.5,3.2,2.4c4.2,4.2,8.3,8.5,12.6,12.6
				c1.5,1.4,1.7,2.5,0.6,4.3C51,67.9,44.1,72.1,36.1,72.6z"/>
			<path class="st5" d="M143.2,48.4c0-4,0-8.1,0-12.1c0-1.8,0.6-2.7,2.5-2.6c4.6,0.1,9.2,0,13.8,0c1.9,0,2.5,0.9,2.6,2.7
				c0,1.9-0.9,2.6-2.7,2.5c-2.5,0-4.9,0-7.4,0c-3.3,0-3.3,0.1-3.3,3.5c0,0.3,0,0.7,0,1c0.1,2.7,0.1,2.8,2.9,2.8c2.7,0,5.4,0.1,8.1,0
				c1.8,0,2,1,1.9,2.4c0,1.3,0,2.5-1.8,2.5c-2.6,0-5.2,0-7.7,0c-3.3,0-3.3,0-3.3,3.4c0,0.3,0,0.7,0,1c0.1,2.7,0.1,2.7,2.9,2.8
				c2.7,0,5.4,0.1,8.1,0c1.7,0,2.4,0.6,2.4,2.4c0,1.8-0.5,2.7-2.5,2.6c-4.6-0.1-9.2-0.1-13.8,0c-1.9,0-2.6-0.7-2.6-2.5
				C143.2,56.7,143.2,52.6,143.2,48.4z"/>
			<path class="st5" d="M78.6,63.7c-6.9-0.3-12.5-4.7-14.4-11.4c-1.8-6.3,0.9-13.1,6.6-16.6c5.7-3.5,12.9-2.9,17.8,1.6
				c0.8,0.7,2.4,1.3,1.2,2.9c-1.5,1.9-3.3,2.4-4.9,1.2c-3.3-2.6-6.9-3.2-10.7-1.2c-3.6,1.9-5.3,5-5,9.1c0.4,5.6,5.6,9.4,11.5,8.3
				c2.3-0.4,4.2,0.8,4.5,3.2c0.1,0.4-0.5,1.3-0.9,1.4C82.5,62.8,80.5,63.2,78.6,63.7z"/>
			<path class="st5" d="M119,52.7c0-2.7,0-5.4,0-8.1c0-1.6,0.4-2.6,2.1-1.3c1.3,1,2.3,0.6,3.6-0.1c7.1-3.5,14.7,0.6,15.6,8.5
				c0.3,3.1,0.1,6.3,0.1,9.4c0,1.8-0.9,2.2-2.5,2.2c-1.8,0-2.7-0.5-2.7-2.5c0.1-2.5,0-4.9,0-7.4c0-4.3-1.8-6.5-5.4-6.6
				c-3.7-0.1-5.7,2.3-5.8,6.6c-0.1,2.6-0.1,5.1,0,7.7c0.1,1.7-0.7,2.1-2.2,2.1c-1.4-0.1-2.8,0.1-2.8-1.9C119,58.5,119,55.6,119,52.7
				C119,52.7,119,52.7,119,52.7z"/>
			<path class="st5" d="M97.5,63.4c-6,0-10.5-4.7-10.4-10.8c0.1-5.8,4.7-10.3,10.6-10.3c5.7,0,10.5,4.8,10.6,10.5
				C108.3,58.6,103.4,63.4,97.5,63.4z M97.6,58.4c3.2,0,5.8-2.7,5.7-5.7c-0.1-3-2.7-5.4-5.7-5.5c-3.2,0-5.6,2.4-5.6,5.8
				C92.1,56.2,94.4,58.4,97.6,58.4z"/>
			<path class="st5" d="M181.9,63.6c-2.3,0.3-3.7-0.7-4.7-2.6c-0.4-0.7-0.8-1.3-1.3-2c-1.5-2.2-1.5-2.2-3,0
				c-0.6,0.9-1.1,2.1-1.9,2.8c-0.8,0.7-1.9,1.4-3,1.6c-1,0.2-2.1-0.3-3.1-0.5c0.5-0.9,0.9-1.8,1.4-2.6c1.2-1.9,2.4-3.8,3.8-5.5
				c1.1-1.4,1-2.5-0.1-3.9c-1.6-2.1-3.1-4.4-4.6-6.6c-1-1.4-0.5-1.8,1.1-2c2.6-0.2,4.6,0.3,5.7,2.9c0.3,0.6,0.8,1.1,1.1,1.7
				c1,1.8,1.7,1.3,2.5-0.1c0.3-0.6,0.8-1.1,1.1-1.7c1.1-2.7,3.3-3,5.8-2.7c1.4,0.1,1.4,0.8,0.8,1.7c-1.4,2.1-2.8,4.3-4.4,6.3
				c-1.4,1.7-1.3,3,0.1,4.7c1.5,1.8,2.7,3.9,4,5.8c0.4,0.6,0.7,1.3,1,2C183.5,63.1,182.7,63.3,181.9,63.6z"/>
			<path class="st5" d="M115.8,52.9c0,2.8-0.1,5.6,0,8.4c0,1.7-0.8,2.1-2.3,2.1c-1.5,0-2.7-0.1-2.6-2.1c0-5.6,0-11.2,0-16.8
				c0-1.8,0.9-2.3,2.5-2.3c1.6,0,2.5,0.5,2.4,2.3C115.7,47.3,115.8,50.1,115.8,52.9z"/>
			<path class="st5" d="M113.2,39.7c-1.7,0-3-1.3-2.9-3c0.1-1.6,1.6-3,3.1-2.9c1.7,0.1,2.9,1.4,2.8,3.1
				C116.1,38.6,114.9,39.7,113.2,39.7z"/>
		</g>
	</g>
</g>
</svg>
