<svg xmlns="http://www.w3.org/2000/svg" xmlns:xlink="http://www.w3.org/1999/xlink" id="Layer_1" x="0" y="0" version="1.1" viewBox="0 0 200 100" xml:space="preserve" style="enable-background:new 0 0 200 100"><style type="text/css">.st5{fill:#fff}</style><g id="IckdE4.tif_1_"><g><g><path d="M26.1,30.4c0.8,0.2,1.7,0.5,2.5,0.7C35.5,32.9,40.9,39,41.9,46c0.9,6.1-0.7,11.5-5,15.9 c-4.8,5.1-10.9,6.7-17.7,4.9C12.7,65,8.5,60.5,6.6,54.1c-2.9-9.9,2.9-19.8,11.9-22.7c1.1-0.4,2.3-0.6,3.4-1 C23.3,30.4,24.7,30.4,26.1,30.4z M25.6,65c1.7,0,4.6-0.8,7.2-2.7c5.8-4.2,8-9.8,6.7-16.8c-1.7-8.7-10.6-14.8-19.8-12.2 C11.5,35.8,7.1,44.4,8.4,51.6C9.9,59.5,16.3,65.1,25.6,65z" class="st5"/><path d="M150.2,48.8c0-2.8,0-5.7,0-8.5c0-1.5,0-1.5,1.4-1.5c4.3,0,8.6,0,12.8,0c0.9,0,1.4,0.2,1.4,1.2 c0,3.9,0.3,3.2-3.1,3.2c-2,0-4,0-5.9,0c-0.9,0-1.3,0.4-1.2,1.2c0,0.2,0,0.4,0,0.6c0,1.7,0,1.7,1.7,1.7c2,0,4,0,5.9,0 c0.9,0,1.3,0.2,1.3,1.2c0,3.8,0.3,3-2.9,3.1c-1.5,0-3.1,0-4.6,0c-0.9,0-1.4,0.2-1.4,1.3c0.1,3-0.2,2.5,2.4,2.5c2.2,0,4.5,0,6.7,0 c1.4,0,1.5,0,1.5,1.5c0,3.5,0.2,2.9-2.9,3c-3.8,0-7.5,0-11.3,0c-1.7,0-1.8,0-1.8-1.8C150.2,54.5,150.2,51.7,150.2,48.8z" class="st5"/><path d="M186.7,59.2c-2.1,0.6-3.4-0.6-4.5-2.6c-0.5-1-1.2-1.9-1.9-2.9c-0.6-0.8-0.7-0.8-1.3,0.1 c-0.9,1.4-1.9,2.8-2.8,4.3c-0.5,0.8-1.1,1.1-2,1.1c-1.2,0-2.4,0-3.6,0c-1.2,0-1.3-0.1-0.6-1.1c1.7-2.5,3.4-4.9,5.1-7.3 c1.5-2.2,1.6-1.5,0-3.9c-1.6-2.4-3.3-4.7-4.9-7c-0.6-0.9-0.6-1,0.5-1.1c0.1,0,0.1,0,0.2,0c1.6,0,3.4-0.4,4.7,0.2 c1.2,0.6,1.9,2.3,2.7,3.6c1.5,2.2,1.5,2.2,2.9,0c0.6-0.9,1.3-1.9,1.9-2.9c0.4-0.7,1-1,1.9-1c1.2,0.1,2.4,0,3.6,0 c1,0,1,0.1,0.5,0.9c-1.6,2.3-3.2,4.6-4.8,6.8c-0.2,0.3-0.4,0.7-0.7,0.9c-0.7,0.8-0.7,1.5,0,2.3c1.8,2.4,3.5,4.9,5.2,7.3 c0.2,0.3,0.4,0.5,0.5,0.8c0.2,0.3,0.4,0.6,0.5,1c-0.4,0.1-0.8,0.3-1.2,0.3C188.2,59.2,187.6,59.2,186.7,59.2z" class="st5"/><path d="M112.3,49c0-3,0-5.9,0-8.9c0-1,0.3-1.3,1.3-1.3c4.4,0,8.8,0,13.2,0c0.9,0,1.2,0.3,1.2,1.2 c0,3.8,0.3,3.2-3,3.3c-1.9,0-3.8,0-5.7,0c-1.3,0-1.4,0.1-1.4,1.4c0,3.7-0.3,3.1,3.1,3.1c1.5,0,3.1,0,4.6,0c0.8,0,1.1,0.3,1.1,1.1 c0.2,3.2,0.3,3.2-2.9,3.2c-1.6,0-3.2,0-4.8,0c-0.9,0-1.3,0.3-1.2,1.2c0,1.5,0,3,0,4.6c0,1-0.3,1.4-1.3,1.3c-1,0-1.9,0-2.9,0 c-1,0-1.4-0.3-1.3-1.3C112.3,54.9,112.3,51.9,112.3,49z" class="st5"/><path d="M131.2,48.9c0-2.9,0-5.8,0-8.7c0-1.4,0-1.4,1.4-1.4c1.4,0,2.8,0.2,4.1,0.2c0.1,1.3,0.1,2.5,0.1,3.8 c0,3.5,0,7,0,10.4c0,1.5,0,1.5,1.5,1.5c2.2,0,4.5,0,6.7,0c1.4,0,1.4,0,1.4,1.3c0,3.7,0.5,3.1-3.1,3.1c-3.4,0-6.9,0-10.3,0 c-1.8,0-1.8,0-1.8-1.8C131.2,54.6,131.2,51.7,131.2,48.9z" class="st5"/><path d="M57.9,38.6c2.1,0,4.1,0.5,5.7,1.8c0.3,0.3,0.5,0.7,0.7,1.1c-0.4-0.1-0.8-0.2-1.1-0.5 c-3.5-2.2-7-2.2-10.5-0.1c-4.4,2.7-5.7,8.7-2.8,13.2c2.7,4.3,8.5,5.6,12.9,2.9c0.4-0.3,1-0.4,1.4-0.7c0.2,0.9-0.6,1-1,1.3 c-5.5,3.6-13.8,0.8-15.4-6.2c-1.2-5,1.5-11.3,7.8-12.6C56.4,38.8,57.1,38.7,57.9,38.6z" class="st5"/><path d="M81.7,51.6c0,3.6-2,6.4-5.2,7.3c-3.8,1-7.4-0.7-8.7-4.5c-0.9-2.7-0.7-5.4,1.1-7.7c1.8-2.4,4.9-3.3,7.9-2.3 c2.8,0.9,4.8,3.4,4.9,6.3C81.7,51,81.7,51.3,81.7,51.6z M80.9,51.5c0-0.3,0-0.6,0-0.9c-0.3-3-2.6-5.4-5.4-5.7 c-3.3-0.3-6,1.4-6.9,4.4c-0.5,1.6-0.5,3.2,0.1,4.9c1.1,3.4,4.5,5.1,7.9,4C79.2,57.3,80.9,54.8,80.9,51.5z" class="st5"/><path d="M93.9,51.5c0-1.8,0-3.7,0-5.5c0-0.4,0-0.8,0-1.1c0.1-0.2,0.3-0.5,0.5-0.7c0.1,0.3,0.3,0.5,0.4,0.8 c0.1,0.6,0,1.1,0,1.7c0,0.1,0,0.2,0.1,0.4c0.1-0.1,0.3-0.1,0.4-0.2c0.3-0.3,0.5-0.6,0.7-0.9c2.1-2.2,5.7-2.6,8.3-1.1 c1.5,0.9,2.3,2.3,2.4,3.9c0.1,3.2,0.1,6.3,0.1,9.5c0,0.2-0.3,0.5-0.4,0.7c-0.1-0.3-0.4-0.6-0.4-0.9c0-2.8,0-5.7,0-8.5 c0-2.2-1.2-3.9-3.1-4.5c-3.5-1-7.5,0.4-7.9,5.2c-0.2,2.3,0,4.7,0,7c0,0.4,0,0.9-0.1,1.3c0,0.1-0.2,0.3-0.4,0.3 c-0.1,0-0.3-0.2-0.4-0.3c-0.1-0.4-0.1-0.9-0.1-1.3C93.9,55.4,93.9,53.4,93.9,51.5z" class="st5"/><path d="M87.5,51.7c0,2.1,0,4.3,0,6.4c0,0.3-0.3,0.6-0.4,0.9c-0.1-0.3-0.4-0.6-0.4-0.9c0-4.2,0-8.3,0-12.5 c0-0.3,0-0.5,0-0.8c0.1-0.2,0.3-0.5,0.4-0.7c0.1,0.2,0.4,0.5,0.4,0.7C87.5,47.2,87.4,49.4,87.5,51.7 C87.4,51.7,87.4,51.7,87.5,51.7z" class="st5"/><path d="M86.9,37.9c0.4,0.6,0.9,0.9,0.9,1.1c0,0.3-0.5,0.6-0.8,0.8c-0.1,0.1-0.7-0.4-0.7-0.6 C86.2,38.9,86.5,38.6,86.9,37.9z" class="st5"/><path d="M10,48.1c0.7-5.2,3.1-9.1,7.7-11.6c3.5-1.9,7.8-0.1,9.1,3.8c0.1,0.3,0,0.6,0,0.9C26.5,41,26.2,41,26,40.9 c-0.3-0.2-0.7-0.4-1-0.6c-0.7-0.5-1.2-0.4-1.9,0c-1.9,1.2-3.8,2.3-5.7,3.4c-0.8,0.5-1.1,1-1.1,2c0.1,2.2,0.1,4.4,0,6.6 c0,0.9,0.3,1.6,1.1,1.9c1.1,0.5,1.6,1.2,1.7,2.4c0.2,2.1,1.1,4,2.8,5.4c0.2,0.2,0.3,0.5,0.5,0.7c-0.2,0-0.5,0-0.7-0.1 c-5.5-1.1-9-4.5-10.7-9.7C10.3,51.5,10.3,49.7,10,48.1z" class="st5"/><path d="M31.8,48.8c0-0.6-0.1-1.3,0-1.9c0.2-1.7-0.2-3.1-2-3.8c-0.3-0.1-0.7-0.7-0.7-1.2c-0.3-2.6-1.2-4.8-3.2-6.5 c-0.1-0.1-0.2-0.3-0.3-0.4c0.2,0,0.4-0.1,0.5,0c7,1.3,11.1,7.1,11.5,12.5c0.5,6.1-1.9,10.7-7.1,13.8c-3.9,2.4-8.2-0.1-9.3-3.5 c-0.1-0.3,0-0.7,0-1.1c0.3,0.1,0.7,0.1,0.9,0.3c1.3,1.2,2.5,0.9,3.9-0.1c1.5-1,3.1-1.9,4.8-2.8c0.7-0.4,1.1-0.9,1.1-1.8 C31.8,51.2,31.8,50,31.8,48.8z" class="st5"/><path d="M29.7,49c0.7,2.5-0.3,4-2.6,4.9C26,54.3,25,55.5,24,55.5c-1.1,0-2.1-1-3.1-1.7c-3.3-2-2.4-0.9-2.7-4.7 c-0.2-2.6,0.6-4.1,3-5.4c2.2-1.3,3.7-1.4,5.9,0C29.1,45.2,30.6,46.4,29.7,49z" class="st5"/></g></g></g></svg>