<svg xmlns="http://www.w3.org/2000/svg" xmlns:xlink="http://www.w3.org/1999/xlink" id="Layer_1" x="0" y="0" version="1.1" viewBox="0 0 200 100" xml:space="preserve" style="enable-background:new 0 0 200 100"><style type="text/css">.st5{fill:#fff}</style><g><g id="m661aU.tif_3_"><g><g><path d="M162,65.7c0,5.2,0,10.5,0,15.7c0,0.2,0,0.4,0,0.5c0,0.9,0,0.9-0.9,0.9c-2.6,0-5.1,0-7.7,0 c-0.8,0-0.8,0-0.8-0.8c0-3.5,0-7,0-10.5c0-1.3,0.1-1.2-1.2-1.2c-2.9,0-5.7,0-8.6,0c-1,0-1.1,0-1.1,1c0,3.4,0,6.8,0,10.1 c0,0.2,0,0.4,0,0.6c0,0.5-0.1,0.7-0.6,0.7c-2.8,0-5.5,0-8.3,0c-0.5,0-0.6-0.2-0.6-0.6c0-0.2,0-0.4,0-0.5c0-6.5,0-13.1,0-19.6 c0-0.1,0-0.2,0-0.3c0-0.8,0-0.8,0.8-0.8c4.4,0,8.7,0,13.1,0c1.8,0,3.5,0,5.3,0c1.1,0,1.1,0,1.1-1.1c0-3.3,0-6.6,0-9.9 c0-0.2,0-0.5,0-0.7c0-0.7,0-0.7,0.7-0.7c2.6,0,5.2,0,7.8,0c0.9,0,0.9,0,0.9,1c0,4.5,0,9,0,13.5C162,63.9,162,64.8,162,65.7z M160.5,65.7c0-4.8,0-9.5,0-14.3c0-0.3,0-0.6,0-0.8c0-0.5-0.2-0.7-0.7-0.7c-1.7,0-3.4,0-5.1,0c-0.7,0-0.7,0-0.7,0.7 c0,0.9,0,1.8,0,2.6c0,2.8,0,5.6,0,8.3c0,0.7,0,0.7-0.7,0.7c-0.2,0-0.5,0-0.7,0c-5.8,0-11.6,0-17.5,0c-0.3,0-0.6,0-0.8,0 c-0.4,0-0.6,0.2-0.6,0.6c0,0.2,0,0.5,0,0.7c0,4.2,0,8.3,0,12.5c0,1.4,0,2.9,0,4.3c0,0.9,0,0.9,1,0.9c1.4,0,2.8,0,4.2,0 c1.3,0,1.3,0,1.3-1.3c0-3.5,0-7,0-10.5c0-0.8,0-0.8,0.8-0.8c4.1,0,8.1,0,12.2,0c0.8,0,0.8,0,0.8,0.8c0,2.8,0,5.6,0,8.3 c0,0.9,0,1.8,0,2.7c0,0.4,0.2,0.7,0.6,0.7c1.8,0,3.5,0,5.3,0c0.4,0,0.6-0.2,0.6-0.6c0-0.3,0-0.6,0-0.8 C160.5,75.2,160.5,70.5,160.5,65.7z" class="st5"/><path d="M55.5,82.9c-1.7,0-3.3,0-5,0c-4.2,0.1-7.8-1.3-10.9-4c-3.1-2.7-5.2-6.1-6-10.2c-0.9-4.9,0.3-9.3,3.1-13.3 c1.8-2.5,4-4.4,6.8-5.7c1.5-0.7,3-1.1,4.7-1.1c4.7-0.1,9.4-0.1,14.1-0.1c0.8,0,0.8,0,0.8,0.8c0,2.6,0,5.2,0,7.8 c0,0.8,0,0.8-0.9,0.8c-3.9,0-7.8,0.1-11.6,0c-3.8-0.1-6.9,3.1-7.6,6.4c-0.5,2.8,0.5,5,2.4,6.9c1,1,2.2,1.9,3.7,2.2 c0.4,0.1,0.9,0.1,1.4,0.1c3.8,0,7.5,0,11.3,0c0.2,0,0.4,0,0.6,0c0.8,0,0.8,0,0.8,0.8c0,2.5,0,5.1,0,7.6c0,0.8,0,0.8-0.9,0.8 C60.1,82.9,57.8,82.9,55.5,82.9z M54.7,50.2C54.7,50.2,54.7,50.2,54.7,50.2c-1.8,0-3.5,0-5.3,0c-0.5,0-1.1,0-1.6,0.1 c-7.4,1.3-14.5,8.7-12.6,18.2c0.5,2.8,1.6,5.4,3.5,7.6c3.2,3.6,7.3,5.3,12,5.5c1.2,0,2.4,0,3.6,0c2.1,0,4.2,0,6.3,0c1,0,1,0,1-1 c0-1.2,0-2.3,0-3.5c0-0.5,0-0.9,0-1.4c0-0.3-0.1-0.5-0.5-0.5c-0.2,0-0.4,0-0.6,0c-3.4,0-6.7,0-10.1,0c-3,0-5.4-1.1-7.2-3.6 c-1.5-2.2-2.2-4.5-1.7-7.2c0.3-1.8,1.2-3.3,2.3-4.7c1.7-2.1,3.8-3.2,6.6-3.1c3.4,0.1,6.8,0,10.3,0c0.9,0,0.9,0,0.9-0.9 c0-1.5,0-3.1,0-4.6c0-0.8,0-0.8-0.9-0.9C58.8,50.2,56.7,50.2,54.7,50.2z" class="st5"/><path d="M84.9,74c-1,0-2,0-3.1,0c-0.9,0-0.9,0-1.2-0.8c-0.3-1-0.6-1.9-0.9-2.9c-0.1-0.4-0.2-0.8-0.8-0.8 c-0.6,0-0.7,0.4-0.8,0.8c-1.1,3.1-2.2,6.3-3.4,9.4c-0.3,0.9-0.6,1.7-0.9,2.6c-0.1,0.4-0.4,0.7-0.9,0.7c-2.4,0-4.8,0-7.2,0 c-0.7,0-1-0.4-1.3-0.9c-0.1-0.2,0-0.6,0.1-0.9c0.8-2.3,1.7-4.5,2.6-6.8c3-8.1,6.1-16.1,9.1-24.2c0.1-0.2,0.1-0.5,0.3-0.7 c0.4-0.7,1-1.3,1.9-1.2c0.3,0,0.6,0,0.8,0c1.7-0.2,2.2,0.5,2.7,1.9c1.6,4.9,3.3,9.8,4.9,14.7c0.8,2.5,1.7,4.9,2.5,7.4 c0.4,1.1-0.1,1.7-1.2,1.7C87.1,74,86,74,84.9,74C84.9,74,84.9,74,84.9,74z M69.3,81.3C69.3,81.3,69.3,81.3,69.3,81.3 c0.8,0,1.6,0,2.3,0c0.8,0,0.9,0,1.1-0.8c1.3-3.5,2.6-7,3.9-10.5c0.3-0.7,0.6-1.3,0.9-2c0.7,0,1.5,0,2.2-0.1 c0.5,0,0.7,0.2,0.8,0.6c0.3,1,0.7,2.1,1.1,3.1c0.3,0.9,0.3,0.9,1.3,0.9c1.3,0,2.5-0.1,3.8-0.1c1.2,0,1.2,0.1,0.8-1.1 c-2.2-6.7-4.4-13.5-6.7-20.2c-0.5-1.4-0.2-1.3-1.7-1.3c-1.6,0-1.3-0.3-1.9,1.3c-3.1,8.3-6.2,16.5-9.2,24.8 c-0.6,1.6-1.2,3.2-1.8,4.8c-0.1,0.4,0,0.5,0.4,0.5C67.5,81.3,68.4,81.3,69.3,81.3z" class="st5"/><path d="M105.5,82.9c-3.2,0-6.3,0-9.5,0c-1.1,0-1,0.1-1-1.1c0-2.3,0-4.6,0-7c0-1.4-0.1-1.3,1.2-1.3 c5.7,0,11.4,0,17,0c3.4,0,5.7-1.6,7.3-4.5c0.3-0.6,0.5-1.2,0.6-1.9c0.2-0.8,0.1-0.8,1-0.8c1.1,0,2.1,0,3.2,0c1.5,0,3,0,4.5,0 c0.8,0,0.8,0,0.8,0.8c-0.1,2.1-0.6,4-1.5,5.9c-2.1,4.3-5.4,7.2-9.9,8.9c-1.6,0.6-3.3,0.9-5.1,0.9 C111.3,82.9,108.4,82.9,105.5,82.9z M105.9,81.5C105.9,81.5,105.9,81.5,105.9,81.5c2.6,0,5.3,0,7.9,0c2.1,0,4-0.5,5.9-1.3 c3.5-1.5,5.9-4.1,7.7-7.4c0.7-1.3,1.1-2.7,1.3-4.1c0.1-0.8,0-0.9-0.8-0.9c-1.6,0-3.2,0-4.9,0c-0.6,0-0.8,0.2-0.9,0.8 c-0.1,0.4-0.2,0.9-0.4,1.3c-1.4,2.9-3.6,4.6-6.8,5.1c-1.2,0.2-2.5,0.2-3.8,0.2c-4.5,0-9,0-13.4,0c-0.2,0-0.4,0-0.6,0 c-0.4,0-0.7,0.1-0.7,0.6c0,1.8,0,3.5,0,5.3c0,0.3,0.1,0.5,0.5,0.5c0.2,0,0.5,0,0.7,0C100.4,81.5,103.2,81.5,105.9,81.5z" class="st5"/><path d="M120.4,48.5c3.1,0,6.2,0,9.3,0c1,0,1,0,1,1c0,2.5,0,4.9,0,7.4c0,0.9,0,0.9-0.9,0.9c-3.7,0-7.3,0-11,0 c-2.7,0-5.3,0.1-8,0.2c-0.4,0-0.9,0.1-1.3,0.3c-2.6,1.2-4.5,3.1-5,6c-0.1,0.5-0.2,0.7-0.8,0.7c-2.7,0-5.4,0-8,0 c-0.7,0-0.8,0-0.7-0.8c0-1.5,0.3-2.9,0.8-4.2c1.9-5.1,5.4-8.6,10.5-10.6c1.7-0.6,3.4-0.9,5.2-0.9 C114.4,48.5,117.4,48.5,120.4,48.5C120.4,48.5,120.4,48.5,120.4,48.5z M100,63.7c0.8,0,1.6,0,2.3,0c0.9,0,0.9,0,1.1-0.9 c1-3.6,4.3-6.2,8.1-6.3c2.3-0.1,4.6-0.1,6.9-0.1c3.1,0,6.3,0,9.4,0c0.2,0,0.4,0,0.6,0c0.7,0,0.7-0.1,0.7-0.7c0-1.1,0-2.3,0-3.4 c0-0.5,0-1.1,0-1.6c0-0.5-0.1-0.7-0.7-0.7c-0.1,0-0.3,0-0.4,0c-5.4,0-10.7,0-16.1,0c-2.1,0-4.2,0.5-6.2,1.3 c-4.2,1.9-6.9,5.1-8.5,9.3c-0.3,0.8-0.5,1.6-0.6,2.3c-0.1,0.7,0,0.8,0.7,0.8C98.4,63.7,99.2,63.7,100,63.7z" class="st5"/><path d="M120.1,26.7c-4.7,0-9.5,0-14.2,0c-1.1,0-1.3,0.1-1.3,1.3c0,4,0,8.1,0,12.1c0,0.2,0,0.5,0,0.7 c0,0.8-0.4,1.2-1.3,1.2c-1.2,0-2.4,0-3.6,0c-0.9,0-1.3-0.4-1.3-1.3c0-2.8,0-5.6,0-8.3c0-1.8,0.1-3.7,0-5.5 c-0.1-3,3.2-6.2,6.1-6.1c7.9,0.1,15.7,0,23.6,0c2.7,0,4.9,1.1,6.3,3.5c0.3,0.6,0.5,1.2,0.7,1.9c0.1,0.3,0,0.4-0.3,0.4 c-0.3,0-0.6,0-0.8,0C129.4,26.7,124.8,26.7,120.1,26.7C120.1,26.7,120.1,26.7,120.1,26.7z M119.3,25.7 C119.3,25.7,119.3,25.7,119.3,25.7c2.2,0,4.4,0,6.6,0c2.4,0,4.7,0,7.1,0c0.3,0,0.6-0.1,0.9-0.2c-0.1-0.3-0.2-0.6-0.3-0.9 c-1.2-1.8-2.8-2.9-5.1-2.9c-7.8,0.1-15.5,0-23.3,0.1c-3.3,0-5.6,2.3-5.6,5.6c0,4.2,0,8.3,0,12.5c0,0.2,0,0.5,0,0.7 c0,0.3,0.1,0.5,0.5,0.5c1,0,2,0.1,3,0.1c0.5,0,0.6-0.2,0.6-0.6c0-0.2,0-0.5,0-0.7c0-3.9,0-7.8,0-11.7c0-0.3,0-0.6,0-0.8 c0.1-0.9,0.6-1.5,1.6-1.6c0.3,0,0.6,0,0.8,0C110.5,25.7,114.9,25.7,119.3,25.7z" class="st5"/><path d="M83.4,21c1.4,0,2.9,0,4.3,0c0.8,0,0.8,0,0.8,0.8c0,1.4,0,2.8,0,4.2c0,0.8,0,0.8-0.8,0.8c-2.3,0-4.5,0-6.8,0 c-1.9,0-3.4,0.8-4.4,2.4c-1.9,3.4,1,7.3,4.2,7.2c2.1,0,4.2,0,6.2,0c0.1,0,0.3,0,0.4,0c1,0,1,0,1.1,1c0,1.3,0,2.7,0,4 c0,0.5-0.1,0.7-0.7,0.7c-2.7,0-5.5,0.1-8.2-0.1c-2.5-0.1-4.6-1.3-6.3-3c-1.6-1.6-2.7-3.5-3.1-5.8c-0.5-3.4,0.4-6.3,2.6-8.9 c0.8-0.9,1.8-1.7,2.9-2.3c1.1-0.7,2.3-1,3.5-1C80.7,21,82.1,21,83.4,21C83.4,21,83.4,21,83.4,21z M83.3,21.9 C83.3,21.9,83.3,21.9,83.3,21.9c-1.3,0-2.6-0.1-3.8,0.1c-3.9,0.6-6.6,2.9-8,6.6c-0.8,2.2-0.6,4.4,0.3,6.6 c1.3,3.4,3.9,5.2,7.3,5.9c2.6,0.6,5.3,0.2,8,0.2c0.4,0,0.5-0.3,0.5-0.6c0-0.8,0-1.7,0-2.5c0-0.9,0-0.9-1-0.9c-2,0-4.1,0-6.1,0 c-3.7-0.1-5.4-3.2-5.3-5.9c0-1.4,0.7-2.6,1.5-3.6c1.1-1.2,2.4-2,4.1-1.8c0.7,0,1.4,0,2.1,0c1.3,0,2.6,0,3.9,0 c0.7,0,0.8,0,0.8-0.8c0-0.8,0-1.5,0-2.3c0-0.9,0-0.9-0.9-0.9C85.5,21.9,84.4,21.9,83.3,21.9z" class="st5"/><path d="M23.8,42.2c-2.7,0-5.5,0-8.2,0c-0.3,0-0.7,0-0.9-0.1c-0.5-0.2-0.8-0.5-0.8-1.1c0-3.7,0-7.3,0-11 c0-0.7,0.5-1.2,1.1-1.3c0.2,0,0.4,0,0.6,0c5,0,9.9,0,14.9,0c1.2,0,1.2,0,0.9,1.1c-0.6,2.4-2.7,4.3-5.2,4.6 c-1.5,0.2-2.9,0.1-4.4,0.2c-0.3,0-0.8,0.1-0.8,0.2c-0.1,0.5,0,1,0,1.6c0,0.1,0.2,0.2,0.3,0.2c0.3,0,0.6,0,0.8,0 c3.2,0,6.5,0,9.7,0c1.2,0,1.9,0.6,1.9,1.9c0,0.8,0,1.5,0,2.3c0,0.9-0.5,1.5-1.5,1.5c-0.8,0-1.6,0-2.3,0 C27.9,42.2,25.8,42.2,23.8,42.2z M23.7,41.3c0.9,0,1.8,0,2.8,0c1.8,0,3.7,0,5.5,0c0.7,0,0.7-0.1,0.7-0.7c0-0.8,0-1.5,0-2.3 c0-0.7,0-0.7-0.8-0.7c-1,0-1.9,0-2.9,0c-2.8,0-5.6,0-8.4,0c-0.7,0-0.7,0-0.7-0.7c0-0.8,0-1.6,0-2.4c0-0.8,0-0.8,0.8-0.8 c1.5,0,3,0,4.5,0c2-0.1,3.5-1.1,4.6-2.8c0.7-1.1,0.5-1.2-0.7-1.2c-4.5,0-9,0-13.5,0c-0.2,0-0.4,0-0.5,0c-0.4,0-0.5,0.2-0.5,0.5 c0,3.6,0,7.1,0,10.7c0,0.4,0.2,0.6,0.6,0.6c0.2,0,0.5,0,0.7,0C18.6,41.3,21.2,41.3,23.7,41.3z" class="st5"/><path d="M59.3,42.2c-2.8,0-5.5,0-8.3,0c-0.3,0-0.7,0-0.9-0.1c-0.5-0.2-0.8-0.6-0.8-1.2c0-1.1,0-2.3,0-3.4 c0-2.5,0-4.9,0-7.4c0-1,0.4-1.5,1.5-1.5c5.2,0,10.4,0,15.6,0c0.7,0,0.7,0,0.6,0.8c-0.5,2.6-2.7,4.6-5.3,4.9 c-1.5,0.2-3,0.1-4.4,0.2c-0.9,0-0.9,0-0.9,0.9c0,0.2,0,0.4,0,0.6c0,0.3,0.2,0.4,0.5,0.4c0.3,0,0.6,0,0.8,0c3.2,0,6.4,0,9.6,0 c1.3,0,1.9,0.6,1.9,1.9c0,0.7,0,1.4,0,2.1c0,1.1-0.5,1.6-1.7,1.6c-1.9,0-3.9,0-5.8,0C60.9,42.2,60.1,42.2,59.3,42.2z M59.1,41.3 c1.9,0,3.8,0,5.7,0c0.9,0,1.8,0,2.8,0c0.3,0,0.7,0,0.7-0.5c0-1,0-1.9,0-2.9c0-0.3-0.1-0.5-0.4-0.5c-0.3,0-0.6,0-0.8,0 c-3,0-6.1,0-9.1,0c-0.6,0-1.2,0-1.8,0c-0.4,0-0.6-0.2-0.6-0.6c0-0.8,0-1.6,0-2.4c0-0.9,0-0.9,0.9-1c1.3,0,2.5,0,3.8,0 c0.9,0,1.8-0.1,2.6-0.5c1.3-0.6,2.3-1.6,2.9-2.9c0.2-0.5,0.2-0.6-0.4-0.7c-0.1,0-0.2,0-0.3,0c-4.6,0-9.2,0-13.9,0 c-0.9,0-0.9,0-0.9,1c0,3.3,0,6.5,0,9.8c0,1,0,1,1.1,1C53.9,41.3,56.5,41.3,59.1,41.3z" class="st5"/><path d="M34.6,29.2c0-2.3,0-4.5,0-6.8c0-1.1,0.3-1.4,1.4-1.4c1.2,0,2.3,0,3.5,0c1,0,1.2,0.3,1.2,1.3c0,4,0,8,0,12 c0,0.3,0,0.6,0,0.8c0,0.9,0.2,1.1,1.2,1.1c1.7,0,3.4,0,5.1,0c1.2,0,1.4,0.2,1.4,1.4c0,1.1,0,2.1,0,3.2c0,1.1-0.2,1.3-1.2,1.3 c-2.3,0-4.5,0-6.8,0c-0.8,0-1.6-0.2-2.2-0.6c-0.8-0.6-1.6-1.2-2.2-1.9c-1-1-1.3-2.4-1.3-3.8C34.6,33.6,34.6,31.4,34.6,29.2 C34.6,29.2,34.6,29.2,34.6,29.2z M35.7,29.4C35.7,29.4,35.6,29.4,35.7,29.4c0,2.1,0,4.3,0,6.4c0,3,2.3,5.3,5.3,5.3 c1.9,0,3.7,0,5.6,0c0.1,0,0.3,0,0.4,0c0.3,0,0.5-0.2,0.5-0.5c0-1,0-1.9,0-2.9c0-0.4-0.2-0.5-0.5-0.5c-0.2,0-0.5,0-0.7,0 c-1.6,0-3.2,0-4.8,0c-1.1,0-1.6-0.6-1.7-1.6c0-0.2,0-0.5,0-0.7c0-3.5,0-7,0-10.6c0-0.6,0-1.2,0-1.8c0-0.4-0.2-0.6-0.6-0.6 c-0.8,0-1.7,0-2.5,0c-0.8,0-0.9,0.1-0.9,0.9C35.6,25,35.7,27.2,35.7,29.4z" class="st5"/><path d="M147,20.8c5.9-0.1,10.9,5,10.9,10.8c0,5.4-4.7,10.7-11.1,10.6c-6-0.1-10.8-5-10.8-10.8 C136,25.4,141.3,20.6,147,20.8z M157,31.7c0.1-5.4-4.7-9.9-10-9.9c-5.4-0.1-10.1,4.6-10.1,9.8c0,5.4,4.6,10,10.1,10 C152.4,41.5,157,37,157,31.7z" class="st5"/><path d="M127.7,28.6c2.1,0,4.2,0,6.2,0c0.2,0,0.5,0,0.7,0c0.4,0,0.5,0.2,0.4,0.6c-0.4,1.8-1.3,3.3-3,4.2 c-0.9,0.5-1.9,0.8-2.9,0.9c-0.1,0-0.3,0.1-0.4,0.1c0.1,0.2,0.1,0.3,0.2,0.4c1.4,1.4,2.8,2.9,4.2,4.3c0.4,0.4,0.9,0.9,1.4,1.3 c0.2,0.2,0.4,0.4,0.5,0.7c0.2,0.7,0.1,0.9-0.7,0.9c-1.8,0-3.5,0-5.3,0c-0.4,0-0.7-0.1-1-0.4c-2.6-2.7-5.2-5.3-7.8-8 c-0.3-0.3-0.5-0.7-0.4-1.1c0-0.8,0-1.7,0-2.5c0-1.1,0.4-1.5,1.4-1.5C123.3,28.6,125.5,28.6,127.7,28.6 C127.7,28.6,127.7,28.6,127.7,28.6z M127.3,29.5C127.3,29.5,127.3,29.5,127.3,29.5c-1.8,0-3.7,0-5.5,0c-1.1,0-1.1,0-1.1,1.1 c0,0.6,0,1.1,0,1.7c0,0.5,0.1,0.8,0.5,1.1c2.4,2.5,4.8,4.9,7.3,7.4c0.2,0.2,0.6,0.4,0.9,0.4c1.2,0,2.4,0,3.6-0.1 c0.1,0,0.3-0.1,0.4-0.1c-0.1-0.1-0.1-0.3-0.2-0.4c-0.8-0.8-1.6-1.6-2.4-2.4c-1.4-1.4-2.9-2.9-4.3-4.3c-0.1-0.1-0.1-0.2-0.2-0.3 c0.1,0,0.3-0.1,0.4-0.1c0.6,0,1.2,0,1.8,0c1.8,0,3.3-0.7,4.5-2c0.4-0.4,0.6-1,0.9-1.5c0.1-0.2,0-0.4-0.3-0.4c-0.2,0-0.5,0-0.7,0 C131,29.5,129.1,29.5,127.3,29.5z" class="st5"/><path d="M158.6,31.5c0-3,0-6,0-9.1c0-1.2,0.2-1.3,1.3-1.4c1.3-0.1,2.1,0.3,3,1.3c1.9,2.2,3.9,4.4,5.8,6.5 c0.5,0.6,0.8,1.1,0.7,1.9c-0.1,0.7,0,1.3,0,2c0,0.4-0.2,0.6-0.6,0.6c-1.1,0-2.2,0-3.3,0c-1,0-1,0-1,1c0,2.1,0,4.1,0,6.2 c0,1.2-0.3,1.6-1.6,1.6c-1,0-2,0-3,0c-1.3,0.1-1.5-0.5-1.5-1.5c0-2.6,0-5.3,0-7.9C158.6,32.3,158.6,31.9,158.6,31.5z M161.6,41.2C161.6,41.2,161.6,41.1,161.6,41.2c0.4,0,0.7,0,1.1,0c0.9,0,0.9,0,0.9-0.9c0-2.2,0-4.4,0-6.6c0-1,0-1,1.1-1.1 c1.1,0,2.1,0,3.2-0.1c0.8,0,0.8,0,0.8-0.8c0-0.3,0-0.6,0-0.9c0-0.5-0.1-0.8-0.4-1.1c-2.1-2.4-4.3-4.8-6.4-7.1 c-0.2-0.2-0.4-0.4-0.7-0.5c-1.1-0.3-1.4,0-1.4,1.1c0,5.4,0,10.8,0,16.1c0,0.6,0.1,1.2,0.2,1.8C160.4,41.1,161,41.1,161.6,41.2z" class="st5"/><path d="M180.9,31.7c0,3,0,5.9,0,8.9c0,0.2,0,0.5,0,0.7c-0.1,0.6-0.3,0.8-0.9,0.9c-0.6,0-1.1,0-1.7,0 c-0.4,0-0.7-0.1-0.9-0.4c-2.3-2.6-4.7-5.3-7-7.9c-0.2-0.2-0.4-0.5-0.4-0.8c0-0.8,0-1.7,0-2.5c0-0.4,0.2-0.5,0.6-0.5 c0.9,0,1.8,0,2.8,0c0.3,0,0.6,0,1,0c0.5,0,0.6-0.2,0.6-0.6c0-1.1,0-2.1,0-3.2c0-1.2,0-2.5,0-3.7c0-0.9,0.6-1.5,1.5-1.5 c1,0,2,0,3,0c1,0,1.4,0.4,1.4,1.5C180.9,25.5,180.9,28.6,180.9,31.7z M179.9,31.6c0-0.5,0-1.1,0-1.6c0-2.4,0-4.9,0-7.3 c0-0.8,0-0.8-0.8-0.8c-0.7,0-1.3,0-2,0c-1.1,0-1.1,0-1.1,1c0,2.3,0,4.6,0,6.9c0,0.9,0,1-0.9,1c-1.2,0-2.3,0-3.5,0 c-0.5,0-0.7,0.2-0.7,0.7c0,0.2,0,0.5,0,0.7c-0.1,0.7,0.1,1.2,0.6,1.7c0.8,0.8,1.5,1.6,2.2,2.4c1.3,1.5,2.7,3,4,4.5 c0.5,0.6,1.2,0.5,1.8,0.4c0.1,0,0.3-0.2,0.3-0.4c0.1-0.3,0-0.6,0-0.8C179.9,37.2,179.9,34.4,179.9,31.6z" class="st5"/><path d="M89.7,82.9c-2,0-3.9,0.1-5.9-0.4c-1.2-0.3-2.4-0.7-3.4-1.4c-2.2-1.4-3.1-3.6-3.4-6c0-0.3,0-0.4,0.4-0.4 c1.9,0,3.8-0.1,5.7-0.1c1.7,0,3.4,0,5.1,0c0.3,0,0.6,0,0.8,0c0.9,0.2,1.5,0.5,1.9,1.4c0.8,2.1,1.7,4.1,2.6,6.1 c0.3,0.7,0.3,0.8-0.5,0.8C91.8,82.9,90.7,82.9,89.7,82.9z M83.9,75.9c-1.5,0-3.1,0-4.6,0c-0.8,0-0.8,0.1-0.5,0.8 c0.1,0.1,0.1,0.3,0.2,0.4c1,2.2,2.8,3.4,5,4.1c2.4,0.7,4.8,0.4,7.2,0.4c0.5,0,0.4-0.3,0.3-0.6c-0.6-1.4-1.2-2.9-1.7-4.3 c-0.2-0.6-0.5-0.8-1.2-0.8C87,76,85.4,75.9,83.9,75.9z" class="st5"/><path d="M59.4,27c-2.7,0-5.4,0-8.1,0c-0.3,0-0.6,0-0.8,0c-0.6-0.1-1-0.5-1-1.2c0-1.2,0-2.4,0-3.6 c0-0.7,0.5-1.2,1.2-1.3c0.2,0,0.5,0,0.7,0c5.3,0,10.6,0,16,0c0.2,0,0.5,0,0.7,0c0.8,0.1,1.2,0.6,1.2,1.4c0,1.1,0,2.2,0,3.3 c0,0.9-0.5,1.4-1.3,1.4c-0.3,0-0.6,0-0.8,0C64.5,27,61.9,27,59.4,27z M59.2,25.9c0.5,0,1,0,1.5,0c2.2,0,4.4,0,6.6,0 c1,0,1,0,1-1.1c0-0.8,0-1.6,0-2.4c0-0.4-0.2-0.6-0.6-0.6c-0.3,0-0.6,0-0.8,0c-4.9,0-9.9,0-14.8,0c-0.4,0-0.7,0-1.1,0 c-0.7,0-0.7,0-0.8,0.8c0,0.8,0,1.6,0,2.4c0,0.8,0,0.8,0.8,0.8C53.8,25.9,56.5,25.9,59.2,25.9z" class="st5"/><path d="M23.7,27c-2.6,0-5.3,0-7.9,0c-0.2,0-0.5,0-0.7,0c-0.7-0.1-1.1-0.5-1.1-1.2c0-1.2,0-2.3,0-3.5 c0-0.8,0.5-1.3,1.3-1.4c0.2,0,0.4,0,0.6,0c5.4,0,10.7,0,16.1,0c0.2,0,0.5,0,0.7,0c0.7,0.1,1.2,0.6,1.2,1.4c0,1.1,0,2.2,0,3.3 c0,0.9-0.4,1.4-1.4,1.5c-1,0-2,0-3.1,0C27.4,27,25.5,27,23.7,27z M23.7,25.9c0.9,0,1.8,0,2.7,0c1.9,0,3.7,0,5.6,0 c0.5,0,0.7-0.1,0.7-0.6c0-0.9,0-1.8,0-2.7c0-0.4-0.1-0.7-0.6-0.7c-0.3,0-0.6,0-0.8,0c-5.1,0-10.1,0-15.2,0c-0.2,0-0.4,0-0.6,0 c-0.7,0-0.7,0-0.8,0.8c0,0.8,0,1.5,0,2.3c0,0.9,0,0.9,1,0.9C18.3,25.9,21,25.9,23.7,25.9z" class="st5"/><path d="M141.7,52.7c0,1.1,0,2.3,0,3.4c0,0.9-1,1.9-1.9,1.9c-2.3,0-4.6,0-6.9,0c-0.7,0-0.7,0-0.7-0.7 c0-1.8,0.2-3.5,1-5.1c1-2.1,2.6-3.4,5-3.6c1-0.1,2,0,3,0c0.4,0,0.6,0.2,0.6,0.6C141.7,50.3,141.7,51.5,141.7,52.7 C141.7,52.7,141.7,52.7,141.7,52.7z M140.2,53.1C140.2,53.1,140.2,53.1,140.2,53.1c0-0.9,0-1.9,0-2.8c0-0.3-0.1-0.5-0.5-0.6 c-1.2-0.1-2.3,0-3.3,0.7c-2,1.4-2.5,3.4-2.6,5.6c0,0.5,0.3,0.5,0.6,0.5c1.7,0,3.4,0,5.1,0c0.5,0,0.7-0.2,0.7-0.7 C140.2,55,140.2,54.1,140.2,53.1z" class="st5"/><path d="M112.5,35.4c0-1.8,0-3.6,0-5.4c0-1.1,0.3-1.4,1.4-1.4c1.1,0,2.2,0,3.3,0c1,0,1.4,0.4,1.4,1.4 c0,3.5,0,7.1,0,10.6c0,1.1-0.4,1.5-1.5,1.5c-1.1,0-2.1,0-3.2,0c-1.1,0-1.4-0.3-1.4-1.4C112.5,39,112.5,37.2,112.5,35.4z M113.5,35.3c0,1.7,0,3.4,0,5.2c0,0.5,0.1,0.7,0.7,0.7c0.9,0,1.8,0,2.7,0c0.5,0,0.7-0.2,0.6-0.7c0-3.4,0-6.8,0-10.2 c0-0.7,0-0.7-0.8-0.7c-0.8,0-1.6,0-2.4,0c-0.8,0-0.8,0-0.8,0.8C113.5,32,113.5,33.6,113.5,35.3z" class="st5"/><path d="M93.1,20.9c1,0,2,0,3,0c0.9,0,1.3,0.4,1.3,1.4c0,1.1,0,2.1,0,3.2c0,0.7-0.5,1.3-1.2,1.3c-2.1,0-4.2,0-6.3,0 c-0.7,0-1-0.4-1-1.1c0-1.2,0-2.4,0-3.6c0-0.8,0.3-1.1,1.1-1.1C91,20.8,92,20.9,93.1,20.9z M93.1,21.8c-0.9,0-1.8,0-2.6,0 c-0.4,0-0.6,0.1-0.6,0.5c0,0.9,0,1.9,0,2.8c0,0.4,0.2,0.5,0.5,0.5c1.8,0,3.5,0,5.3,0c0.4,0,0.6-0.2,0.5-0.6c0-0.9,0-1.8,0-2.7 c0-0.4-0.2-0.6-0.6-0.6C94.8,21.9,94,21.8,93.1,21.8z" class="st5"/><path d="M146.9,37.3c-3.2,0-5.8-2.5-5.8-5.6c0-2.9,2.2-5.6,5.8-5.7c3.7,0,5.9,3,5.8,5.7 C152.7,34.8,150.1,37.3,146.9,37.3z M146.9,36.3c2.8,0,4.8-1.9,4.9-4.6c0-2.6-2.2-4.8-4.9-4.8c-2.6,0-4.7,2.2-4.8,4.8 C142.1,34.5,144.7,36.6,146.9,36.3z" class="st5"/></g></g></g><g id="m661aU.tif_2_"><g><g><path d="M162,65.7c0,5.2,0,10.5,0,15.7c0,0.2,0,0.4,0,0.5c0,0.9,0,0.9-0.9,0.9c-2.6,0-5.1,0-7.7,0 c-0.8,0-0.8,0-0.8-0.8c0-3.5,0-7,0-10.5c0-1.3,0.1-1.2-1.2-1.2c-2.9,0-5.7,0-8.6,0c-1,0-1.1,0-1.1,1c0,3.4,0,6.8,0,10.1 c0,0.2,0,0.4,0,0.6c0,0.5-0.1,0.7-0.6,0.7c-2.8,0-5.5,0-8.3,0c-0.5,0-0.6-0.2-0.6-0.6c0-0.2,0-0.4,0-0.5c0-6.5,0-13.1,0-19.6 c0-0.1,0-0.2,0-0.3c0-0.8,0-0.8,0.8-0.8c4.4,0,8.7,0,13.1,0c1.8,0,3.5,0,5.3,0c1.1,0,1.1,0,1.1-1.1c0-3.3,0-6.6,0-9.9 c0-0.2,0-0.5,0-0.7c0-0.7,0-0.7,0.7-0.7c2.6,0,5.2,0,7.8,0c0.9,0,0.9,0,0.9,1c0,4.5,0,9,0,13.5C162,63.9,162,64.8,162,65.7z M160.5,65.7c0-4.8,0-9.5,0-14.3c0-0.3,0-0.6,0-0.8c0-0.5-0.2-0.7-0.7-0.7c-1.7,0-3.4,0-5.1,0c-0.7,0-0.7,0-0.7,0.7 c0,0.9,0,1.8,0,2.6c0,2.8,0,5.6,0,8.3c0,0.7,0,0.7-0.7,0.7c-0.2,0-0.5,0-0.7,0c-5.8,0-11.6,0-17.5,0c-0.3,0-0.6,0-0.8,0 c-0.4,0-0.6,0.2-0.6,0.6c0,0.2,0,0.5,0,0.7c0,4.2,0,8.3,0,12.5c0,1.4,0,2.9,0,4.3c0,0.9,0,0.9,1,0.9c1.4,0,2.8,0,4.2,0 c1.3,0,1.3,0,1.3-1.3c0-3.5,0-7,0-10.5c0-0.8,0-0.8,0.8-0.8c4.1,0,8.1,0,12.2,0c0.8,0,0.8,0,0.8,0.8c0,2.8,0,5.6,0,8.3 c0,0.9,0,1.8,0,2.7c0,0.4,0.2,0.7,0.6,0.7c1.8,0,3.5,0,5.3,0c0.4,0,0.6-0.2,0.6-0.6c0-0.3,0-0.6,0-0.8 C160.5,75.2,160.5,70.5,160.5,65.7z" class="st5"/><path d="M55.5,82.9c-1.7,0-3.3,0-5,0c-4.2,0.1-7.8-1.3-10.9-4c-3.1-2.7-5.2-6.1-6-10.2c-0.9-4.9,0.3-9.3,3.1-13.3 c1.8-2.5,4-4.4,6.8-5.7c1.5-0.7,3-1.1,4.7-1.1c4.7-0.1,9.4-0.1,14.1-0.1c0.8,0,0.8,0,0.8,0.8c0,2.6,0,5.2,0,7.8 c0,0.8,0,0.8-0.9,0.8c-3.9,0-7.8,0.1-11.6,0c-3.8-0.1-6.9,3.1-7.6,6.4c-0.5,2.8,0.5,5,2.4,6.9c1,1,2.2,1.9,3.7,2.2 c0.4,0.1,0.9,0.1,1.4,0.1c3.8,0,7.5,0,11.3,0c0.2,0,0.4,0,0.6,0c0.8,0,0.8,0,0.8,0.8c0,2.5,0,5.1,0,7.6c0,0.8,0,0.8-0.9,0.8 C60.1,82.9,57.8,82.9,55.5,82.9z M54.7,50.2C54.7,50.2,54.7,50.2,54.7,50.2c-1.8,0-3.5,0-5.3,0c-0.5,0-1.1,0-1.6,0.1 c-7.4,1.3-14.5,8.7-12.6,18.2c0.5,2.8,1.6,5.4,3.5,7.6c3.2,3.6,7.3,5.3,12,5.5c1.2,0,2.4,0,3.6,0c2.1,0,4.2,0,6.3,0c1,0,1,0,1-1 c0-1.2,0-2.3,0-3.5c0-0.5,0-0.9,0-1.4c0-0.3-0.1-0.5-0.5-0.5c-0.2,0-0.4,0-0.6,0c-3.4,0-6.7,0-10.1,0c-3,0-5.4-1.1-7.2-3.6 c-1.5-2.2-2.2-4.5-1.7-7.2c0.3-1.8,1.2-3.3,2.3-4.7c1.7-2.1,3.8-3.2,6.6-3.1c3.4,0.1,6.8,0,10.3,0c0.9,0,0.9,0,0.9-0.9 c0-1.5,0-3.1,0-4.6c0-0.8,0-0.8-0.9-0.9C58.8,50.2,56.7,50.2,54.7,50.2z" class="st5"/><path d="M84.9,74c-1,0-2,0-3.1,0c-0.9,0-0.9,0-1.2-0.8c-0.3-1-0.6-1.9-0.9-2.9c-0.1-0.4-0.2-0.8-0.8-0.8 c-0.6,0-0.7,0.4-0.8,0.8c-1.1,3.1-2.2,6.3-3.4,9.4c-0.3,0.9-0.6,1.7-0.9,2.6c-0.1,0.4-0.4,0.7-0.9,0.7c-2.4,0-4.8,0-7.2,0 c-0.7,0-1-0.4-1.3-0.9c-0.1-0.2,0-0.6,0.1-0.9c0.8-2.3,1.7-4.5,2.6-6.8c3-8.1,6.1-16.1,9.1-24.2c0.1-0.2,0.1-0.5,0.3-0.7 c0.4-0.7,1-1.3,1.9-1.2c0.3,0,0.6,0,0.8,0c1.7-0.2,2.2,0.5,2.7,1.9c1.6,4.9,3.3,9.8,4.9,14.7c0.8,2.5,1.7,4.9,2.5,7.4 c0.4,1.1-0.1,1.7-1.2,1.7C87.1,74,86,74,84.9,74C84.9,74,84.9,74,84.9,74z M69.3,81.3C69.3,81.3,69.3,81.3,69.3,81.3 c0.8,0,1.6,0,2.3,0c0.8,0,0.9,0,1.1-0.8c1.3-3.5,2.6-7,3.9-10.5c0.3-0.7,0.6-1.3,0.9-2c0.7,0,1.5,0,2.2-0.1 c0.5,0,0.7,0.2,0.8,0.6c0.3,1,0.7,2.1,1.1,3.1c0.3,0.9,0.3,0.9,1.3,0.9c1.3,0,2.5-0.1,3.8-0.1c1.2,0,1.2,0.1,0.8-1.1 c-2.2-6.7-4.4-13.5-6.7-20.2c-0.5-1.4-0.2-1.3-1.7-1.3c-1.6,0-1.3-0.3-1.9,1.3c-3.1,8.3-6.2,16.5-9.2,24.8 c-0.6,1.6-1.2,3.2-1.8,4.8c-0.1,0.4,0,0.5,0.4,0.5C67.5,81.3,68.4,81.3,69.3,81.3z" class="st5"/><path d="M105.5,82.9c-3.2,0-6.3,0-9.5,0c-1.1,0-1,0.1-1-1.1c0-2.3,0-4.6,0-7c0-1.4-0.1-1.3,1.2-1.3 c5.7,0,11.4,0,17,0c3.4,0,5.7-1.6,7.3-4.5c0.3-0.6,0.5-1.2,0.6-1.9c0.2-0.8,0.1-0.8,1-0.8c1.1,0,2.1,0,3.2,0c1.5,0,3,0,4.5,0 c0.8,0,0.8,0,0.8,0.8c-0.1,2.1-0.6,4-1.5,5.9c-2.1,4.3-5.4,7.2-9.9,8.9c-1.6,0.6-3.3,0.9-5.1,0.9 C111.3,82.9,108.4,82.9,105.5,82.9z M105.9,81.5C105.9,81.5,105.9,81.5,105.9,81.5c2.6,0,5.3,0,7.9,0c2.1,0,4-0.5,5.9-1.3 c3.5-1.5,5.9-4.1,7.7-7.4c0.7-1.3,1.1-2.7,1.3-4.1c0.1-0.8,0-0.9-0.8-0.9c-1.6,0-3.2,0-4.9,0c-0.6,0-0.8,0.2-0.9,0.8 c-0.1,0.4-0.2,0.9-0.4,1.3c-1.4,2.9-3.6,4.6-6.8,5.1c-1.2,0.2-2.5,0.2-3.8,0.2c-4.5,0-9,0-13.4,0c-0.2,0-0.4,0-0.6,0 c-0.4,0-0.7,0.1-0.7,0.6c0,1.8,0,3.5,0,5.3c0,0.3,0.1,0.5,0.5,0.5c0.2,0,0.5,0,0.7,0C100.4,81.5,103.2,81.5,105.9,81.5z" class="st5"/><path d="M120.4,48.5c3.1,0,6.2,0,9.3,0c1,0,1,0,1,1c0,2.5,0,4.9,0,7.4c0,0.9,0,0.9-0.9,0.9c-3.7,0-7.3,0-11,0 c-2.7,0-5.3,0.1-8,0.2c-0.4,0-0.9,0.1-1.3,0.3c-2.6,1.2-4.5,3.1-5,6c-0.1,0.5-0.2,0.7-0.8,0.7c-2.7,0-5.4,0-8,0 c-0.7,0-0.8,0-0.7-0.8c0-1.5,0.3-2.9,0.8-4.2c1.9-5.1,5.4-8.6,10.5-10.6c1.7-0.6,3.4-0.9,5.2-0.9 C114.4,48.5,117.4,48.5,120.4,48.5C120.4,48.5,120.4,48.5,120.4,48.5z M100,63.7c0.8,0,1.6,0,2.3,0c0.9,0,0.9,0,1.1-0.9 c1-3.6,4.3-6.2,8.1-6.3c2.3-0.1,4.6-0.1,6.9-0.1c3.1,0,6.3,0,9.4,0c0.2,0,0.4,0,0.6,0c0.7,0,0.7-0.1,0.7-0.7c0-1.1,0-2.3,0-3.4 c0-0.5,0-1.1,0-1.6c0-0.5-0.1-0.7-0.7-0.7c-0.1,0-0.3,0-0.4,0c-5.4,0-10.7,0-16.1,0c-2.1,0-4.2,0.5-6.2,1.3 c-4.2,1.9-6.9,5.1-8.5,9.3c-0.3,0.8-0.5,1.6-0.6,2.3c-0.1,0.7,0,0.8,0.7,0.8C98.4,63.7,99.2,63.7,100,63.7z" class="st5"/><path d="M120.1,26.7c-4.7,0-9.5,0-14.2,0c-1.1,0-1.3,0.1-1.3,1.3c0,4,0,8.1,0,12.1c0,0.2,0,0.5,0,0.7 c0,0.8-0.4,1.2-1.3,1.2c-1.2,0-2.4,0-3.6,0c-0.9,0-1.3-0.4-1.3-1.3c0-2.8,0-5.6,0-8.3c0-1.8,0.1-3.7,0-5.5 c-0.1-3,3.2-6.2,6.1-6.1c7.9,0.1,15.7,0,23.6,0c2.7,0,4.9,1.1,6.3,3.5c0.3,0.6,0.5,1.2,0.7,1.9c0.1,0.3,0,0.4-0.3,0.4 c-0.3,0-0.6,0-0.8,0C129.4,26.7,124.8,26.7,120.1,26.7C120.1,26.7,120.1,26.7,120.1,26.7z M119.3,25.7 C119.3,25.7,119.3,25.7,119.3,25.7c2.2,0,4.4,0,6.6,0c2.4,0,4.7,0,7.1,0c0.3,0,0.6-0.1,0.9-0.2c-0.1-0.3-0.2-0.6-0.3-0.9 c-1.2-1.8-2.8-2.9-5.1-2.9c-7.8,0.1-15.5,0-23.3,0.1c-3.3,0-5.6,2.3-5.6,5.6c0,4.2,0,8.3,0,12.5c0,0.2,0,0.5,0,0.7 c0,0.3,0.1,0.5,0.5,0.5c1,0,2,0.1,3,0.1c0.5,0,0.6-0.2,0.6-0.6c0-0.2,0-0.5,0-0.7c0-3.9,0-7.8,0-11.7c0-0.3,0-0.6,0-0.8 c0.1-0.9,0.6-1.5,1.6-1.6c0.3,0,0.6,0,0.8,0C110.5,25.7,114.9,25.7,119.3,25.7z" class="st5"/><path d="M83.4,21c1.4,0,2.9,0,4.3,0c0.8,0,0.8,0,0.8,0.8c0,1.4,0,2.8,0,4.2c0,0.8,0,0.8-0.8,0.8c-2.3,0-4.5,0-6.8,0 c-1.9,0-3.4,0.8-4.4,2.4c-1.9,3.4,1,7.3,4.2,7.2c2.1,0,4.2,0,6.2,0c0.1,0,0.3,0,0.4,0c1,0,1,0,1.1,1c0,1.3,0,2.7,0,4 c0,0.5-0.1,0.7-0.7,0.7c-2.7,0-5.5,0.1-8.2-0.1c-2.5-0.1-4.6-1.3-6.3-3c-1.6-1.6-2.7-3.5-3.1-5.8c-0.5-3.4,0.4-6.3,2.6-8.9 c0.8-0.9,1.8-1.7,2.9-2.3c1.1-0.7,2.3-1,3.5-1C80.7,21,82.1,21,83.4,21C83.4,21,83.4,21,83.4,21z M83.3,21.9 C83.3,21.9,83.3,21.9,83.3,21.9c-1.3,0-2.6-0.1-3.8,0.1c-3.9,0.6-6.6,2.9-8,6.6c-0.8,2.2-0.6,4.4,0.3,6.6 c1.3,3.4,3.9,5.2,7.3,5.9c2.6,0.6,5.3,0.2,8,0.2c0.4,0,0.5-0.3,0.5-0.6c0-0.8,0-1.7,0-2.5c0-0.9,0-0.9-1-0.9c-2,0-4.1,0-6.1,0 c-3.7-0.1-5.4-3.2-5.3-5.9c0-1.4,0.7-2.6,1.5-3.6c1.1-1.2,2.4-2,4.1-1.8c0.7,0,1.4,0,2.1,0c1.3,0,2.6,0,3.9,0 c0.7,0,0.8,0,0.8-0.8c0-0.8,0-1.5,0-2.3c0-0.9,0-0.9-0.9-0.9C85.5,21.9,84.4,21.9,83.3,21.9z" class="st5"/><path d="M23.8,42.2c-2.7,0-5.5,0-8.2,0c-0.3,0-0.7,0-0.9-0.1c-0.5-0.2-0.8-0.5-0.8-1.1c0-3.7,0-7.3,0-11 c0-0.7,0.5-1.2,1.1-1.3c0.2,0,0.4,0,0.6,0c5,0,9.9,0,14.9,0c1.2,0,1.2,0,0.9,1.1c-0.6,2.4-2.7,4.3-5.2,4.6 c-1.5,0.2-2.9,0.1-4.4,0.2c-0.3,0-0.8,0.1-0.8,0.2c-0.1,0.5,0,1,0,1.6c0,0.1,0.2,0.2,0.3,0.2c0.3,0,0.6,0,0.8,0 c3.2,0,6.5,0,9.7,0c1.2,0,1.9,0.6,1.9,1.9c0,0.8,0,1.5,0,2.3c0,0.9-0.5,1.5-1.5,1.5c-0.8,0-1.6,0-2.3,0 C27.9,42.2,25.8,42.2,23.8,42.2z M23.7,41.3c0.9,0,1.8,0,2.8,0c1.8,0,3.7,0,5.5,0c0.7,0,0.7-0.1,0.7-0.7c0-0.8,0-1.5,0-2.3 c0-0.7,0-0.7-0.8-0.7c-1,0-1.9,0-2.9,0c-2.8,0-5.6,0-8.4,0c-0.7,0-0.7,0-0.7-0.7c0-0.8,0-1.6,0-2.4c0-0.8,0-0.8,0.8-0.8 c1.5,0,3,0,4.5,0c2-0.1,3.5-1.1,4.6-2.8c0.7-1.1,0.5-1.2-0.7-1.2c-4.5,0-9,0-13.5,0c-0.2,0-0.4,0-0.5,0c-0.4,0-0.5,0.2-0.5,0.5 c0,3.6,0,7.1,0,10.7c0,0.4,0.2,0.6,0.6,0.6c0.2,0,0.5,0,0.7,0C18.6,41.3,21.2,41.3,23.7,41.3z" class="st5"/><path d="M59.3,42.2c-2.8,0-5.5,0-8.3,0c-0.3,0-0.7,0-0.9-0.1c-0.5-0.2-0.8-0.6-0.8-1.2c0-1.1,0-2.3,0-3.4 c0-2.5,0-4.9,0-7.4c0-1,0.4-1.5,1.5-1.5c5.2,0,10.4,0,15.6,0c0.7,0,0.7,0,0.6,0.8c-0.5,2.6-2.7,4.6-5.3,4.9 c-1.5,0.2-3,0.1-4.4,0.2c-0.9,0-0.9,0-0.9,0.9c0,0.2,0,0.4,0,0.6c0,0.3,0.2,0.4,0.5,0.4c0.3,0,0.6,0,0.8,0c3.2,0,6.4,0,9.6,0 c1.3,0,1.9,0.6,1.9,1.9c0,0.7,0,1.4,0,2.1c0,1.1-0.5,1.6-1.7,1.6c-1.9,0-3.9,0-5.8,0C60.9,42.2,60.1,42.2,59.3,42.2z M59.1,41.3 c1.9,0,3.8,0,5.7,0c0.9,0,1.8,0,2.8,0c0.3,0,0.7,0,0.7-0.5c0-1,0-1.9,0-2.9c0-0.3-0.1-0.5-0.4-0.5c-0.3,0-0.6,0-0.8,0 c-3,0-6.1,0-9.1,0c-0.6,0-1.2,0-1.8,0c-0.4,0-0.6-0.2-0.6-0.6c0-0.8,0-1.6,0-2.4c0-0.9,0-0.9,0.9-1c1.3,0,2.5,0,3.8,0 c0.9,0,1.8-0.1,2.6-0.5c1.3-0.6,2.3-1.6,2.9-2.9c0.2-0.5,0.2-0.6-0.4-0.7c-0.1,0-0.2,0-0.3,0c-4.6,0-9.2,0-13.9,0 c-0.9,0-0.9,0-0.9,1c0,3.3,0,6.5,0,9.8c0,1,0,1,1.1,1C53.9,41.3,56.5,41.3,59.1,41.3z" class="st5"/><path d="M34.6,29.2c0-2.3,0-4.5,0-6.8c0-1.1,0.3-1.4,1.4-1.4c1.2,0,2.3,0,3.5,0c1,0,1.2,0.3,1.2,1.3c0,4,0,8,0,12 c0,0.3,0,0.6,0,0.8c0,0.9,0.2,1.1,1.2,1.1c1.7,0,3.4,0,5.1,0c1.2,0,1.4,0.2,1.4,1.4c0,1.1,0,2.1,0,3.2c0,1.1-0.2,1.3-1.2,1.3 c-2.3,0-4.5,0-6.8,0c-0.8,0-1.6-0.2-2.2-0.6c-0.8-0.6-1.6-1.2-2.2-1.9c-1-1-1.3-2.4-1.3-3.8C34.6,33.6,34.6,31.4,34.6,29.2 C34.6,29.2,34.6,29.2,34.6,29.2z M35.7,29.4C35.7,29.4,35.6,29.4,35.7,29.4c0,2.1,0,4.3,0,6.4c0,3,2.3,5.3,5.3,5.3 c1.9,0,3.7,0,5.6,0c0.1,0,0.3,0,0.4,0c0.3,0,0.5-0.2,0.5-0.5c0-1,0-1.9,0-2.9c0-0.4-0.2-0.5-0.5-0.5c-0.2,0-0.5,0-0.7,0 c-1.6,0-3.2,0-4.8,0c-1.1,0-1.6-0.6-1.7-1.6c0-0.2,0-0.5,0-0.7c0-3.5,0-7,0-10.6c0-0.6,0-1.2,0-1.8c0-0.4-0.2-0.6-0.6-0.6 c-0.8,0-1.7,0-2.5,0c-0.8,0-0.9,0.1-0.9,0.9C35.6,25,35.7,27.2,35.7,29.4z" class="st5"/><path d="M147,20.8c5.9-0.1,10.9,5,10.9,10.8c0,5.4-4.7,10.7-11.1,10.6c-6-0.1-10.8-5-10.8-10.8 C136,25.4,141.3,20.6,147,20.8z M157,31.7c0.1-5.4-4.7-9.9-10-9.9c-5.4-0.1-10.1,4.6-10.1,9.8c0,5.4,4.6,10,10.1,10 C152.4,41.5,157,37,157,31.7z" class="st5"/><path d="M127.7,28.6c2.1,0,4.2,0,6.2,0c0.2,0,0.5,0,0.7,0c0.4,0,0.5,0.2,0.4,0.6c-0.4,1.8-1.3,3.3-3,4.2 c-0.9,0.5-1.9,0.8-2.9,0.9c-0.1,0-0.3,0.1-0.4,0.1c0.1,0.2,0.1,0.3,0.2,0.4c1.4,1.4,2.8,2.9,4.2,4.3c0.4,0.4,0.9,0.9,1.4,1.3 c0.2,0.2,0.4,0.4,0.5,0.7c0.2,0.7,0.1,0.9-0.7,0.9c-1.8,0-3.5,0-5.3,0c-0.4,0-0.7-0.1-1-0.4c-2.6-2.7-5.2-5.3-7.8-8 c-0.3-0.3-0.5-0.7-0.4-1.1c0-0.8,0-1.7,0-2.5c0-1.1,0.4-1.5,1.4-1.5C123.3,28.6,125.5,28.6,127.7,28.6 C127.7,28.6,127.7,28.6,127.7,28.6z M127.3,29.5C127.3,29.5,127.3,29.5,127.3,29.5c-1.8,0-3.7,0-5.5,0c-1.1,0-1.1,0-1.1,1.1 c0,0.6,0,1.1,0,1.7c0,0.5,0.1,0.8,0.5,1.1c2.4,2.5,4.8,4.9,7.3,7.4c0.2,0.2,0.6,0.4,0.9,0.4c1.2,0,2.4,0,3.6-0.1 c0.1,0,0.3-0.1,0.4-0.1c-0.1-0.1-0.1-0.3-0.2-0.4c-0.8-0.8-1.6-1.6-2.4-2.4c-1.4-1.4-2.9-2.9-4.3-4.3c-0.1-0.1-0.1-0.2-0.2-0.3 c0.1,0,0.3-0.1,0.4-0.1c0.6,0,1.2,0,1.8,0c1.8,0,3.3-0.7,4.5-2c0.4-0.4,0.6-1,0.9-1.5c0.1-0.2,0-0.4-0.3-0.4c-0.2,0-0.5,0-0.7,0 C131,29.5,129.1,29.5,127.3,29.5z" class="st5"/><path d="M158.6,31.5c0-3,0-6,0-9.1c0-1.2,0.2-1.3,1.3-1.4c1.3-0.1,2.1,0.3,3,1.3c1.9,2.2,3.9,4.4,5.8,6.5 c0.5,0.6,0.8,1.1,0.7,1.9c-0.1,0.7,0,1.3,0,2c0,0.4-0.2,0.6-0.6,0.6c-1.1,0-2.2,0-3.3,0c-1,0-1,0-1,1c0,2.1,0,4.1,0,6.2 c0,1.2-0.3,1.6-1.6,1.6c-1,0-2,0-3,0c-1.3,0.1-1.5-0.5-1.5-1.5c0-2.6,0-5.3,0-7.9C158.6,32.3,158.6,31.9,158.6,31.5z M161.6,41.2C161.6,41.2,161.6,41.1,161.6,41.2c0.4,0,0.7,0,1.1,0c0.9,0,0.9,0,0.9-0.9c0-2.2,0-4.4,0-6.6c0-1,0-1,1.1-1.1 c1.1,0,2.1,0,3.2-0.1c0.8,0,0.8,0,0.8-0.8c0-0.3,0-0.6,0-0.9c0-0.5-0.1-0.8-0.4-1.1c-2.1-2.4-4.3-4.8-6.4-7.1 c-0.2-0.2-0.4-0.4-0.7-0.5c-1.1-0.3-1.4,0-1.4,1.1c0,5.4,0,10.8,0,16.1c0,0.6,0.1,1.2,0.2,1.8C160.4,41.1,161,41.1,161.6,41.2z" class="st5"/><path d="M180.9,31.7c0,3,0,5.9,0,8.9c0,0.2,0,0.5,0,0.7c-0.1,0.6-0.3,0.8-0.9,0.9c-0.6,0-1.1,0-1.7,0 c-0.4,0-0.7-0.1-0.9-0.4c-2.3-2.6-4.7-5.3-7-7.9c-0.2-0.2-0.4-0.5-0.4-0.8c0-0.8,0-1.7,0-2.5c0-0.4,0.2-0.5,0.6-0.5 c0.9,0,1.8,0,2.8,0c0.3,0,0.6,0,1,0c0.5,0,0.6-0.2,0.6-0.6c0-1.1,0-2.1,0-3.2c0-1.2,0-2.5,0-3.7c0-0.9,0.6-1.5,1.5-1.5 c1,0,2,0,3,0c1,0,1.4,0.4,1.4,1.5C180.9,25.5,180.9,28.6,180.9,31.7z M179.9,31.6c0-0.5,0-1.1,0-1.6c0-2.4,0-4.9,0-7.3 c0-0.8,0-0.8-0.8-0.8c-0.7,0-1.3,0-2,0c-1.1,0-1.1,0-1.1,1c0,2.3,0,4.6,0,6.9c0,0.9,0,1-0.9,1c-1.2,0-2.3,0-3.5,0 c-0.5,0-0.7,0.2-0.7,0.7c0,0.2,0,0.5,0,0.7c-0.1,0.7,0.1,1.2,0.6,1.7c0.8,0.8,1.5,1.6,2.2,2.4c1.3,1.5,2.7,3,4,4.5 c0.5,0.6,1.2,0.5,1.8,0.4c0.1,0,0.3-0.2,0.3-0.4c0.1-0.3,0-0.6,0-0.8C179.9,37.2,179.9,34.4,179.9,31.6z" class="st5"/><path d="M89.7,82.9c-2,0-3.9,0.1-5.9-0.4c-1.2-0.3-2.4-0.7-3.4-1.4c-2.2-1.4-3.1-3.6-3.4-6c0-0.3,0-0.4,0.4-0.4 c1.9,0,3.8-0.1,5.7-0.1c1.7,0,3.4,0,5.1,0c0.3,0,0.6,0,0.8,0c0.9,0.2,1.5,0.5,1.9,1.4c0.8,2.1,1.7,4.1,2.6,6.1 c0.3,0.7,0.3,0.8-0.5,0.8C91.8,82.9,90.7,82.9,89.7,82.9z M83.9,75.9c-1.5,0-3.1,0-4.6,0c-0.8,0-0.8,0.1-0.5,0.8 c0.1,0.1,0.1,0.3,0.2,0.4c1,2.2,2.8,3.4,5,4.1c2.4,0.7,4.8,0.4,7.2,0.4c0.5,0,0.4-0.3,0.3-0.6c-0.6-1.4-1.2-2.9-1.7-4.3 c-0.2-0.6-0.5-0.8-1.2-0.8C87,76,85.4,75.9,83.9,75.9z" class="st5"/><path d="M59.4,27c-2.7,0-5.4,0-8.1,0c-0.3,0-0.6,0-0.8,0c-0.6-0.1-1-0.5-1-1.2c0-1.2,0-2.4,0-3.6 c0-0.7,0.5-1.2,1.2-1.3c0.2,0,0.5,0,0.7,0c5.3,0,10.6,0,16,0c0.2,0,0.5,0,0.7,0c0.8,0.1,1.2,0.6,1.2,1.4c0,1.1,0,2.2,0,3.3 c0,0.9-0.5,1.4-1.3,1.4c-0.3,0-0.6,0-0.8,0C64.5,27,61.9,27,59.4,27z M59.2,25.9c0.5,0,1,0,1.5,0c2.2,0,4.4,0,6.6,0 c1,0,1,0,1-1.1c0-0.8,0-1.6,0-2.4c0-0.4-0.2-0.6-0.6-0.6c-0.3,0-0.6,0-0.8,0c-4.9,0-9.9,0-14.8,0c-0.4,0-0.7,0-1.1,0 c-0.7,0-0.7,0-0.8,0.8c0,0.8,0,1.6,0,2.4c0,0.8,0,0.8,0.8,0.8C53.8,25.9,56.5,25.9,59.2,25.9z" class="st5"/><path d="M23.7,27c-2.6,0-5.3,0-7.9,0c-0.2,0-0.5,0-0.7,0c-0.7-0.1-1.1-0.5-1.1-1.2c0-1.2,0-2.3,0-3.5 c0-0.8,0.5-1.3,1.3-1.4c0.2,0,0.4,0,0.6,0c5.4,0,10.7,0,16.1,0c0.2,0,0.5,0,0.7,0c0.7,0.1,1.2,0.6,1.2,1.4c0,1.1,0,2.2,0,3.3 c0,0.9-0.4,1.4-1.4,1.5c-1,0-2,0-3.1,0C27.4,27,25.5,27,23.7,27z M23.7,25.9c0.9,0,1.8,0,2.7,0c1.9,0,3.7,0,5.6,0 c0.5,0,0.7-0.1,0.7-0.6c0-0.9,0-1.8,0-2.7c0-0.4-0.1-0.7-0.6-0.7c-0.3,0-0.6,0-0.8,0c-5.1,0-10.1,0-15.2,0c-0.2,0-0.4,0-0.6,0 c-0.7,0-0.7,0-0.8,0.8c0,0.8,0,1.5,0,2.3c0,0.9,0,0.9,1,0.9C18.3,25.9,21,25.9,23.7,25.9z" class="st5"/><path d="M141.7,52.7c0,1.1,0,2.3,0,3.4c0,0.9-1,1.9-1.9,1.9c-2.3,0-4.6,0-6.9,0c-0.7,0-0.7,0-0.7-0.7 c0-1.8,0.2-3.5,1-5.1c1-2.1,2.6-3.4,5-3.6c1-0.1,2,0,3,0c0.4,0,0.6,0.2,0.6,0.6C141.7,50.3,141.7,51.5,141.7,52.7 C141.7,52.7,141.7,52.7,141.7,52.7z M140.2,53.1C140.2,53.1,140.2,53.1,140.2,53.1c0-0.9,0-1.9,0-2.8c0-0.3-0.1-0.5-0.5-0.6 c-1.2-0.1-2.3,0-3.3,0.7c-2,1.4-2.5,3.4-2.6,5.6c0,0.5,0.3,0.5,0.6,0.5c1.7,0,3.4,0,5.1,0c0.5,0,0.7-0.2,0.7-0.7 C140.2,55,140.2,54.1,140.2,53.1z" class="st5"/><path d="M112.5,35.4c0-1.8,0-3.6,0-5.4c0-1.1,0.3-1.4,1.4-1.4c1.1,0,2.2,0,3.3,0c1,0,1.4,0.4,1.4,1.4 c0,3.5,0,7.1,0,10.6c0,1.1-0.4,1.5-1.5,1.5c-1.1,0-2.1,0-3.2,0c-1.1,0-1.4-0.3-1.4-1.4C112.5,39,112.5,37.2,112.5,35.4z M113.5,35.3c0,1.7,0,3.4,0,5.2c0,0.5,0.1,0.7,0.7,0.7c0.9,0,1.8,0,2.7,0c0.5,0,0.7-0.2,0.6-0.7c0-3.4,0-6.8,0-10.2 c0-0.7,0-0.7-0.8-0.7c-0.8,0-1.6,0-2.4,0c-0.8,0-0.8,0-0.8,0.8C113.5,32,113.5,33.6,113.5,35.3z" class="st5"/><path d="M93.1,20.9c1,0,2,0,3,0c0.9,0,1.3,0.4,1.3,1.4c0,1.1,0,2.1,0,3.2c0,0.7-0.5,1.3-1.2,1.3c-2.1,0-4.2,0-6.3,0 c-0.7,0-1-0.4-1-1.1c0-1.2,0-2.4,0-3.6c0-0.8,0.3-1.1,1.1-1.1C91,20.8,92,20.9,93.1,20.9z M93.1,21.8c-0.9,0-1.8,0-2.6,0 c-0.4,0-0.6,0.1-0.6,0.5c0,0.9,0,1.9,0,2.8c0,0.4,0.2,0.5,0.5,0.5c1.8,0,3.5,0,5.3,0c0.4,0,0.6-0.2,0.5-0.6c0-0.9,0-1.8,0-2.7 c0-0.4-0.2-0.6-0.6-0.6C94.8,21.9,94,21.8,93.1,21.8z" class="st5"/><path d="M146.9,37.3c-3.2,0-5.8-2.5-5.8-5.6c0-2.9,2.2-5.6,5.8-5.7c3.7,0,5.9,3,5.8,5.7 C152.7,34.8,150.1,37.3,146.9,37.3z M146.9,36.3c2.8,0,4.8-1.9,4.9-4.6c0-2.6-2.2-4.8-4.9-4.8c-2.6,0-4.7,2.2-4.8,4.8 C142.1,34.5,144.7,36.6,146.9,36.3z" class="st5"/></g></g></g></g></svg>