<svg xmlns="http://www.w3.org/2000/svg" xmlns:xlink="http://www.w3.org/1999/xlink" id="Layer_1" x="0" y="0" version="1.1" viewBox="0 0 200 100" xml:space="preserve" style="enable-background:new 0 0 200 100"><style type="text/css">.st5{fill:#fff}</style><g id="tlFLzI.tif_1_"><g><g><path d="M39.1,78c-13.9,0.3-28.4-10.8-28.4-28.6c0-17.5,13.9-28.6,28.4-28.6c16.1,0,28.6,13.3,28.5,28.9 C67.4,65.8,54.1,78.3,39.1,78z M40.2,53.3c4,0.1,7.9,0.2,11.9,0.3c0.7,0,1.4-0.1,2.1-0.3c1.6-0.5,2.5-1.9,2.4-3.6 c-0.1-1.9-1.6-3.4-3.8-3.4c-2.3-0.1-4.6,0-6.8,0c-1,0-2-0.1-3.1-0.2c0.1-1,0.2-2.1,0.3-3.1c0.2-1.4,0.2-1.4,1.7-1.4c3,0,6,0,9,0 c2.5,0,4.2-1.5,4.2-3.6c0-2-1.7-3.5-4.1-3.5c-4.5,0-9,0-13.5,0c-2.4,0-3.7,1.2-4,3.6c-0.8,6.2-1.5,12.4-2.3,18.6 c-0.2,1.8-0.4,3.6-0.5,5.4c0,1.6,1.2,3,2.8,3.3c1.5,0.3,3.1-0.4,3.8-1.8c0.3-0.6,0.4-1.2,0.5-1.9c0.3-1.9,0.5-3.9,0.7-5.8 C41.9,54,41.9,54,40.2,53.3L40.2,53.3z M22.5,60.6c0,0.7,0,1.1,0,1.6c0.1,1.7,1.2,2.9,2.9,3.2c1.5,0.3,3.2-0.7,3.8-2.2 c0.2-0.7,0.4-1.4,0.4-2.1c0.6-5,1.2-10,1.9-14.9c0.3-2.4,0.6-4.8,0.9-7.2c0-0.3,0.1-0.7,0-1c-0.1-2-1.4-3.5-3.4-3.6 c-2.1-0.1-3.5,1-3.8,3.1c-0.5,4.1-1,8.3-1.5,12.4C23.3,53.5,22.9,57.2,22.5,60.6z" class="st5"/><path d="M72.3,38.1c0-0.6,0-1.5,0-2.3c0-0.8,0.3-1.2,1.1-1.2c1.4,0,2.9,0,4.3,0c0.7,0,1.1,0.3,1.1,1.1 c0,0.3,0,0.5,0,0.8c0.2,4.2,0.3,8.3,0.5,12.5c0,0.7,0.1,1.4,0.2,2.1c0.1,0.4,0.2,0.7,0.3,1.1c0.2-0.3,0.5-0.6,0.6-0.9 c1-2.1,1.9-4.3,2.8-6.5c1.3-3,2.6-6,3.9-9c0.4-0.9,0.9-1.3,1.9-1.3c0.9,0.1,1.8,0,2.7,0c1.5,0,1.5,0.1,1.5,1.6 c0,4.5,0,9,0.1,13.5c0,0.8,0.2,1.7,0.4,2.5c0.4-0.7,0.9-1.4,1.3-2.1c2.2-4.6,4.4-9.2,6.5-13.8c0.6-1.2,1.3-1.8,2.7-1.7 c1.3,0.1,2.6,0,3.9,0c0.6,0,0.9,0.2,0.6,0.8c-0.1,0.3-0.3,0.6-0.4,0.9c-4.2,8.9-8.5,17.7-12.7,26.6c-0.6,1.2-1.3,1.8-2.7,1.7 c-1.2-0.1-2.5,0-3.7,0c-1.5,0-1.5-0.1-1.6-1.6c-0.1-3.3-0.1-6.5-0.1-9.8c0-0.7-0.2-1.3-0.4-1.9c-0.3,0.5-0.7,1-1,1.6 c-1.6,3.4-3.2,6.7-4.7,10.1c-0.5,1.2-1.2,1.7-2.5,1.6c-1.2-0.1-2.5-0.1-3.7,0c-1,0-1.5-0.4-1.5-1.3c0-0.4-0.1-0.8-0.2-1.2 c-0.2-3.4-0.3-6.9-0.5-10.3C72.9,47.3,72.6,42.8,72.3,38.1z" class="st5"/><path d="M118.5,64.8c-1.1-0.2-2.2-0.5-3.4-0.6c-0.6,0-1.2,0.3-1.9,0.5c-2.9,0.8-5.7,0.6-7.7-1.8 c-0.9-1.1-1.6-2.5-1.8-3.8c-0.8-6.2,2.1-12.5,8.3-15.1c2.4-1,4.9-1.3,7.5-1c1.7,0.2,3.4,0.5,5,0.8c1.3,0.2,1.5,0.6,1.2,1.9 c-1.2,5.9-2.5,11.8-3.8,17.8c-0.2,0.9-0.6,1.4-1.5,1.3c-0.7,0-1.3,0-2,0C118.5,64.7,118.5,64.7,118.5,64.8z M110.2,55.8 c0,0.3,0,0.6,0,0.8c0.1,2.4,1.7,3.3,3.9,2.4c1.4-0.6,2.3-1.7,2.8-3.1c0.6-2,1.1-4.2,1.5-6.3c0.1-0.6-0.2-1-0.8-1.1 c-2.2-0.3-4.2,0.2-5.6,2.1C110.8,52.2,110.1,53.9,110.2,55.8z" class="st5"/><path d="M153.4,56.3c0-3.4,0.9-6.5,2.9-9.3c1.3-1.8,2.9-3,4.9-3.7c2.3-0.8,4.8-0.9,7.1-0.4c4.1,0.9,5.5,3.3,4.2,7.8 c-0.9,3-3.2,4.9-6.3,5.6c-1.7,0.4-3.5,0.5-5.2,0.8c-0.3,0-0.6,0.2-0.8,0.3c0.2,0.3,0.2,0.8,0.5,0.9c1.1,0.7,2.3,0.8,3.6,0.6 c1.7-0.3,3.4-0.7,5.1-1.1c0.7-0.2,1-0.2,0.8,0.7c-0.3,1.4-0.6,2.8-0.9,4.2c-0.1,0.7-0.5,1-1.1,1.2c-2.9,0.8-5.8,1.4-8.9,0.7 c-4.2-1-6.1-3.3-6.1-7.6C153.4,56.8,153.4,56.5,153.4,56.3z M162.4,51.8C162.4,51.8,162.5,51.8,162.4,51.8c0.7,0,1.4-0.1,2.1-0.3 c0.9-0.3,1.7-0.7,2-1.7c0.2-0.7,0-1.1-0.6-1.4c-1.8-0.8-4.5,0.5-5,2.5c-0.2,0.7,0.1,1,0.8,1C161.9,51.8,162.2,51.8,162.4,51.8z" class="st5"/><path d="M181,37.2c3.1,0,3.1,0,2.5,3c-0.6,2.9-0.6,2.9,2.3,2.9c0.7,0,1.4,0,2.2,0c1.3,0.1,1.4,0.2,1.2,1.4 c-0.2,1-0.5,2-0.6,3.1c-0.1,1.1-0.7,1.4-1.7,1.4c-1.2,0-2.3,0-3.5,0c-1.1,0-1.7,0.3-1.9,1.5c-0.4,2.2-1,4.4-1.4,6.7 c-0.4,2.1,0.3,2.8,2.5,2.2c1.3-0.3,2.6-0.8,3.9-1.3c0.7-0.2,1-0.2,0.8,0.6c-0.2,0.9-0.5,1.9-0.5,2.9c-0.2,1.9-1.1,2.9-3,3.2 c-2.2,0.4-4.3,0.8-6.6,0.2c-2.3-0.6-3.7-2.1-3.6-4.4c0.1-2.2,0.4-4.4,0.8-6.6c0.9-4.8,2-9.6,3-14.3c0.5-2.4,0.5-2.4,3.1-2.4 C180.5,37.2,180.8,37.2,181,37.2z" class="st5"/><path d="M145.5,65.4c-0.9-0.2-1.9-0.3-2.9-0.6c-2.1-0.7-3.2-2.9-2.7-5.7c0.6-3.3,1.2-6.7,1.9-10 c0.9-4.3,1.8-8.5,2.6-12.8c0.4-1.8,0.4-1.8,2.3-1.8c1.2,0,2.3,0,3.5,0c0.8,0,1,0.3,0.8,1.1c-0.7,3-1.2,6-1.9,9 c-0.8,3.8-1.6,7.5-2.4,11.3c0,0.1-0.1,0.3-0.1,0.4c-0.4,2.5,0.3,3.1,2.7,2.6c0.8-0.2,1.7-0.2,2.5-0.3c-0.2,0.8-0.3,1.7-0.5,2.5 c-0.3,1.1-0.2,2.6-0.9,3.3c-0.7,0.7-2.2,0.6-3.3,0.8C146.7,65.2,146.2,65.3,145.5,65.4z" class="st5"/><path d="M134.2,34.5c3.4,0,3.3-0.4,2.6,3.1c-1.3,6.3-2.6,12.6-4,18.9c-0.5,2,0.8,2.9,2.5,2.4c0.1,0,0.1,0,0.2,0 c2.7-0.6,2.7-0.6,2.2,2.2c-0.1,0.4-0.2,0.8-0.3,1.1c-0.5,2.4-0.5,2.4-3,2.7c-1.7,0.2-3.3,0.5-5,0c-2.1-0.6-3.3-1.8-3.3-4 c0-1.6,0.1-3.3,0.5-4.8c1.3-6.5,2.7-13,4.1-19.5c0.4-2,0.4-2,2.5-2.1C133.4,34.5,133.8,34.5,134.2,34.5z" class="st5"/><circle cx="41.1" cy="49.1" r=".9" class="st5"/></g></g></g></svg>