<?xml version="1.0" encoding="utf-8"?>
<!-- Generator: Adobe Illustrator 24.2.1, SVG Export Plug-In . SVG Version: 6.00 Build 0)  -->
<svg version="1.1" id="Layer_1" xmlns="http://www.w3.org/2000/svg" xmlns:xlink="http://www.w3.org/1999/xlink" x="0px" y="0px"
	 viewBox="0 0 200 100" style="enable-background:new 0 0 200 100;" xml:space="preserve">
<style type="text/css">
	.st0{fill:#61BB71;}
	.st1{opacity:0.5;clip-path:url(#SVGID_2_);}
	.st2{opacity:0.5;}
	.st3{clip-path:url(#PhBxqe_5_);fill:#FFFFFF;}
	.st4{fill:#081E29;}
	.st5{fill:#FFFFFF;}
	.st6{clip-path:url(#SVGID_4_);}
	.st7{fill:#E6E6E6;}
	.st8{fill:none;stroke:#E6E6E6;stroke-miterlimit:10;}
	.st9{fill:#F2F2F2;}
	.st10{clip-path:url(#SVGID_6_);}
	.st11{fill:#DAFFCE;}
	.st12{fill:#F2F2F2;stroke:#000000;stroke-miterlimit:10;}
	.st13{fill:#FFFFFF;stroke:#000000;stroke-miterlimit:10;}
	.st14{fill:none;stroke:#000000;stroke-miterlimit:10;}
	.st15{fill:none;stroke:#61BB71;stroke-width:5;stroke-miterlimit:10;}
	.st16{fill:#FFFFFF;stroke:#61BB71;stroke-width:5;stroke-miterlimit:10;}
	.st17{clip-path:url(#SVGID_8_);}
	.st18{clip-path:url(#PhBxqe_6_);fill:#E6E6E6;}
	.st19{clip-path:url(#SVGID_10_);}
	.st20{clip-path:url(#SVGID_12_);}
	.st21{clip-path:url(#SVGID_14_);}
	.st22{opacity:0.5;clip-path:url(#SVGID_16_);}
	.st23{clip-path:url(#PhBxqe_7_);fill:#FFFFFF;}
	.st24{clip-path:url(#SVGID_20_);}
	.st25{clip-path:url(#SVGID_22_);}
	.st26{clip-path:url(#SVGID_24_);}
	.st27{opacity:0.5;clip-path:url(#SVGID_26_);}
	.st28{clip-path:url(#PhBxqe_8_);fill:#FFFFFF;}
	.st29{clip-path:url(#SVGID_30_);}
	.st30{clip-path:url(#SVGID_32_);}
	.st31{clip-path:url(#SVGID_34_);}
	.st32{clip-path:url(#SVGID_36_);}
</style>
<g>
	<path class="st5" d="M19.9,45.6c0-0.6-0.1-1.1-0.3-1.5c-0.2-0.4-0.5-0.8-0.9-1.1c-0.4-0.3-0.9-0.5-1.4-0.7
		c-0.5-0.2-1.1-0.2-1.6-0.2c-0.5,0-1,0.1-1.4,0.2c-0.4,0.1-0.8,0.3-1.2,0.6c-0.4,0.2-0.6,0.5-0.8,0.9c-0.2,0.4-0.3,0.8-0.3,1.2v0.2
		c0,0.5,0.1,0.9,0.3,1.3c0.2,0.4,0.5,0.7,0.9,0.9c0.4,0.2,0.9,0.5,1.5,0.6c0.6,0.2,1.3,0.3,2.2,0.4c1.9,0.3,3.3,0.8,4.2,1.7
		c0.9,0.8,1.3,1.9,1.3,3.3v0.3c0,0.8-0.1,1.5-0.4,2.2c-0.3,0.6-0.7,1.2-1.2,1.7c-0.5,0.5-1.2,0.8-1.9,1.1c-0.8,0.3-1.7,0.4-2.7,0.4
		c-1.2,0-2.2-0.2-3.1-0.5c-0.9-0.3-1.6-0.8-2.3-1.4c-0.6-0.6-1-1.3-1.4-2.1c-0.3-0.8-0.5-1.7-0.5-2.7v-0.8h2.2v0.6
		c0,1.6,0.4,2.8,1.3,3.6c0.9,0.8,2.1,1.2,3.7,1.2c1.3,0,2.4-0.3,3.1-0.9c0.7-0.6,1-1.4,1-2.4v-0.2c0-0.9-0.3-1.7-1-2.2
		c-0.7-0.5-1.8-0.9-3.4-1.1c-0.9-0.1-1.7-0.3-2.5-0.6c-0.7-0.2-1.4-0.6-1.9-1c-0.5-0.4-0.9-0.9-1.2-1.5c-0.3-0.6-0.4-1.2-0.4-2v-0.3
		c0-0.7,0.1-1.4,0.4-1.9c0.3-0.6,0.7-1.1,1.2-1.5c0.5-0.4,1.2-0.8,1.9-1c0.7-0.2,1.5-0.3,2.4-0.3c1,0,1.9,0.1,2.8,0.4
		c0.8,0.3,1.5,0.7,2,1.2c0.6,0.5,1,1.1,1.3,1.7c0.3,0.7,0.4,1.4,0.4,2.1v1.1h-2.2V45.6L19.9,45.6z"/>
	<path class="st5" d="M25.7,40.3h11.6v2h-4.7v14.1h4.7v2H25.7v-2h4.7V42.3h-4.7V40.3z"/>
	<path class="st5" d="M41.3,40.3h6c2.3,0,3.9,0.5,4.9,1.6c1,1.1,1.5,2.8,1.5,5.1v4.7c0,2.4-0.5,4.1-1.5,5.1c-1,1.1-2.7,1.6-4.9,1.6
		h-6v-2h1.5V42.3h-1.5V40.3L41.3,40.3z M47,56.5c0.8,0,1.5-0.1,2.1-0.2c0.6-0.2,1.1-0.4,1.4-0.8c0.4-0.4,0.7-0.9,0.8-1.5
		c0.2-0.6,0.3-1.4,0.3-2.4v-4.4c0-0.9-0.1-1.7-0.3-2.4c-0.2-0.6-0.5-1.1-0.8-1.5c-0.4-0.4-0.9-0.6-1.4-0.8c-0.6-0.2-1.3-0.2-2.1-0.2
		h-1.9v14.1L47,56.5L47,56.5z"/>
	<path class="st5" d="M57.8,40.3h11v2H60v6h8.7v2H60v6.1h9v2H57.8V40.3z"/>
	<path class="st5" d="M83.5,45.6c0-0.6-0.1-1.1-0.3-1.5c-0.2-0.4-0.5-0.8-0.9-1.1c-0.4-0.3-0.9-0.5-1.4-0.7
		c-0.5-0.2-1.1-0.2-1.6-0.2c-0.5,0-1,0.1-1.4,0.2c-0.4,0.1-0.8,0.3-1.2,0.6c-0.4,0.2-0.6,0.5-0.8,0.9c-0.2,0.4-0.3,0.8-0.3,1.2v0.2
		c0,0.5,0.1,0.9,0.3,1.3c0.2,0.4,0.5,0.7,0.9,0.9c0.4,0.2,0.9,0.5,1.5,0.6c0.6,0.2,1.3,0.3,2.2,0.4c1.9,0.3,3.3,0.8,4.2,1.7
		c0.9,0.8,1.3,1.9,1.3,3.3v0.3c0,0.8-0.1,1.5-0.4,2.2c-0.3,0.6-0.7,1.2-1.2,1.7c-0.5,0.5-1.2,0.8-1.9,1.1c-0.8,0.3-1.7,0.4-2.7,0.4
		c-1.2,0-2.2-0.2-3.1-0.5c-0.9-0.3-1.6-0.8-2.3-1.4c-0.6-0.6-1-1.3-1.4-2.1c-0.3-0.8-0.5-1.7-0.5-2.7v-0.8h2.2v0.6
		c0,1.6,0.4,2.8,1.3,3.6c0.9,0.8,2.1,1.2,3.7,1.2c1.3,0,2.4-0.3,3.1-0.9c0.7-0.6,1-1.4,1-2.4v-0.2c0-0.9-0.3-1.7-1-2.2
		c-0.7-0.5-1.8-0.9-3.4-1.1c-0.9-0.1-1.7-0.3-2.5-0.6c-0.7-0.2-1.4-0.6-1.9-1c-0.5-0.4-0.9-0.9-1.2-1.5c-0.3-0.6-0.4-1.2-0.4-2v-0.3
		c0-0.7,0.1-1.4,0.4-1.9c0.3-0.6,0.7-1.1,1.2-1.5c0.5-0.4,1.2-0.8,1.9-1c0.7-0.2,1.5-0.3,2.4-0.3c1,0,1.9,0.1,2.8,0.4
		c0.8,0.3,1.5,0.7,2,1.2c0.6,0.5,1,1.1,1.3,1.7c0.3,0.7,0.4,1.4,0.4,2.1v1.1h-2.2V45.6z"/>
	<path class="st5" d="M89.1,40.3h2.2v8.1h7.8v-8.1h2.2v18.2h-2.2v-8.1h-7.8v8.1h-2.2V40.3z"/>
	<path class="st5" d="M105.3,40.3h11.6v2h-4.7v14.1h4.7v2h-11.6v-2h4.7V42.3h-4.7V40.3z"/>
	<path class="st5" d="M121.5,40.3h11.2v2h-9v6h8.8v2h-8.8v8.1h-2.2V40.3L121.5,40.3z"/>
	<path class="st5" d="M136.6,40.3h12.8v2H144v16.2h-2.2V42.3h-5.3V40.3z"/>
	<path class="st5" d="M153.6,57c0-0.5,0.2-0.9,0.5-1.3c0.4-0.4,0.8-0.5,1.3-0.5c0.5,0,0.9,0.2,1.3,0.5c0.4,0.4,0.5,0.8,0.5,1.3
		c0,0.5-0.2,0.9-0.5,1.3c-0.4,0.4-0.8,0.5-1.3,0.5c-0.5,0-0.9-0.2-1.3-0.5C153.8,58,153.6,57.5,153.6,57z"/>
	<path class="st5" d="M173.5,54h-7.8l-1.3,4.5h-2.4l5.5-18.2h4.1l5.5,18.2h-2.4L173.5,54z M169.4,41.2l-3.2,10.7h6.6l-3.2-10.7
		H169.4z"/>
	<path class="st5" d="M179.7,40.3h11.6v2h-4.7v14.1h4.7v2h-11.6v-2h4.7V42.3h-4.7V40.3z"/>
</g>
</svg>
