<svg xmlns="http://www.w3.org/2000/svg" xmlns:xlink="http://www.w3.org/1999/xlink" id="Layer_1" x="0" y="0" version="1.1" viewBox="0 0 200 100" xml:space="preserve" style="enable-background:new 0 0 200 100"><style type="text/css">.st5{fill:#fff}</style><g id="SCd0Qc_2_"><g><g><path d="M125.7,49c0,5.1-0.1,10.3,0,15.4c0,1.7-0.5,2.7-2,3.6c-9.1,5.1-18.2,10.3-27.2,15.6c-1.7,1-3,1-4.7,0 c-8.9-5.2-17.9-10.4-26.9-15.6c-1.5-0.8-2.1-1.8-2.1-3.5c0.1-10.7,0.1-21.4,0-32.1c0-1.8,0.6-2.7,2.1-3.5 c9-5.1,18.1-10.2,27-15.3c1.7-1,3.1-0.9,4.7,0c9,5.2,17.9,10.4,27,15.5c1.7,0.9,2.2,2,2.1,3.9C125.6,38.3,125.7,43.7,125.7,49z M121.5,48.6c0-4.5-0.1-9.1,0-13.6c0-1.7-0.4-2.7-2-3.5c-7.9-4.4-15.8-8.9-23.6-13.4c-1.3-0.8-2.3-0.8-3.6,0 c-7.8,4.5-15.5,8.9-23.3,13.3c-1.4,0.8-2,1.6-2,3.3c0.1,9.2,0.1,18.3,0,27.5c0,1.6,0.5,2.6,1.9,3.4c7.9,4.5,15.7,9,23.5,13.6 c1.2,0.7,2.1,0.7,3.3,0c8-4.6,16.1-9.2,24.1-13.7c1.2-0.7,1.7-1.5,1.6-2.9C121.4,57.9,121.5,53.2,121.5,48.6z" class="st5"/><path d="M117.8,40.2c0,0.2,0,0.4,0,0.6c-0.2,1.4-0.4,2.8-0.5,4.3c-1.9-0.7-3.8-1.3-5.6-2.2c-0.4-0.2-0.6-1.3-0.5-1.9 c0.3-1.9-0.8-2.7-2.2-3.5c-4.4-2.4-8.8-4.8-13.2-7.2c-1.2-0.7-2.1-0.7-3.3,0c-4.3,2.6-8.7,5.1-13.1,7.5c-1,0.6-1.8,1.2-1.7,2.5 c0.2,1.6,1.4,1.5,2.4,1.7c11.6,2.8,23.2,5.6,34.9,8.3c2.5,0.6,2.5,0.6,2.5,3.2c0,2,0,4,0,6c0,1.3-0.4,2.2-1.6,2.9 c-6.9,3.8-13.7,7.6-20.5,11.5c-1.1,0.6-1.8,0.4-2.8-0.1c-6.8-3.9-13.6-7.8-20.4-11.6c-0.9-0.5-1.6-1.1-1.5-2.3c0.1-2.3,0-4.6,0-7 c0-1.1,0.4-1.5,1.5-1.1c0.9,0.3,1.9,0.8,2.8,1c1.8,0.5,2.8,1.4,2.5,3.4c-0.2,1.3,0.4,2.2,1.7,2.9c4.5,2.4,9,4.9,13.5,7.4 c1,0.5,1.7,0.7,2.8,0.1c4.6-2.7,9.2-5.3,13.8-8c0.6-0.4,1.2-1.1,1.3-1.7c0.3-1.2-0.1-2-1.6-2.3c-6.8-1.5-13.5-3.2-20.2-4.8 c-5.3-1.2-10.5-2.5-15.8-3.7c-1.6-0.4-2.4-1-2.3-2.8c0.2-2.1,0.1-4.2,0-6.3c-0.1-1.4,0.5-2.2,1.7-2.9C79.2,30.5,86,26.8,92.7,23 c1.1-0.6,2-0.5,3,0.1c6.8,3.8,13.5,7.6,20.3,11.3c1.3,0.7,1.9,1.6,1.8,3.1C117.7,38.4,117.8,39.3,117.8,40.2z" class="st5"/></g></g></g></svg>