<svg xmlns="http://www.w3.org/2000/svg" xmlns:xlink="http://www.w3.org/1999/xlink" id="Layer_1" x="0" y="0" version="1.1" viewBox="0 0 200 100" xml:space="preserve" style="enable-background:new 0 0 200 100"><style type="text/css">.st5{fill:#fff}</style><g id="pQOqy8_2_"><g><g><path d="M75.3,64.8c-4.1,0-8.1,0-12.2,0c-1.3,0-1.4-0.2-0.7-1.3c2.8-4.4,5.6-8.8,8.4-13.2c2.1-3.3,4.2-6.6,6.2-9.9 c1-1.6,1-1.7-1.1-1.7c-3.3,0-6.5,0-9.8,0c-2,0-2,0-2.1-2.1c0-1.4,0-2.8,0-4.2c0-0.8,0.4-1.2,1.1-1.2c0.4,0,0.8,0,1.2,0 c7.6,0,15.1,0,22.7,0c0.3,0,0.6,0,0.9,0c1.1,0.1,1.3,0.3,0.7,1.3c-1.6,2.6-3.2,5.1-4.8,7.7c-3.3,5.2-6.6,10.4-9.9,15.6 c-0.3,0.5-0.5,1.1-0.8,1.6c0.7,0.1,1.3,0.3,2,0.3c3.3,0,6.5,0,9.8,0c1.9,0,1.9,0.1,2,2c0,1.2,0,2.3,0,3.5 c0.1,1.2-0.5,1.6-1.7,1.6C83.3,64.8,79.3,64.8,75.3,64.8z" class="st5"/><path d="M124.3,30.9c3.2,0.2,6.4,0.2,9.5,0.6c5.5,0.7,8.8,4.4,8.9,9.9c0,2.1,0,4.2-0.5,6.2c-0.9,3.9-3.7,6-7.5,6.8 c-1.3,0.3-3.1,0.2-3.9,1.1c-0.7,0.8-0.2,2.5-0.3,3.8c0,2.7,0,5.5,0,8.2c0,0.3-0.2,0.6-0.4,1c-0.3-0.2-0.5-0.3-0.7-0.5 c-1.8-1.7-3.5-3.5-5.4-5.2c-0.7-0.7-1-1.5-1-2.5c0-3.7,0-7.3,0-11c0-1.8,0.1-1.8,1.9-1.8c2,0,4.1,0,6.1,0c1.7,0,3.2-0.5,3.8-2.2 c0.6-1.7,0.7-3.5-0.3-5.2c-0.7-1.2-1.9-1.6-3.2-1.6c-2,0-4.1-0.1-6.1,0c-1.3,0.1-2.4-0.3-3.3-1.3c-1.8-1.8-3.6-3.4-5.4-5.1 c-0.2-0.2-0.3-0.5-0.4-0.8c0.3-0.1,0.5-0.3,0.8-0.3c2.5,0,5,0,7.5,0C124.3,31,124.3,31,124.3,30.9z" class="st5"/><path d="M120.6,65.2c-0.2,0.1-0.5,0.3-0.7,0.3c-2.4-0.5-4.7-1-7-1.6c-0.6-0.2-1.1-1-1.4-1.7c-1.4-3-2.6-6-3.9-9 c-0.3-0.7-0.6-1.4-1-2.1c-0.1-0.3-0.3-0.5-0.5-0.8c-0.2,0.3-0.5,0.5-0.7,0.8c-1.6,3.5-3.2,7.1-4.7,10.7c-0.6,1.5-1.4,2.3-3,2.5 c-1.5,0.3-3,0.7-4.6,1c-0.5,0.1-1,0.1-1.6,0.2c0.1-0.5,0.1-1,0.3-1.5c1.5-3.5,3-7,4.5-10.5c2.9-6.8,5.8-13.6,8.7-20.4 c0.2-0.6,0.6-1,0.9-1.6c0.3,0.5,0.7,1,0.9,1.6c3.2,7.5,6.4,15,9.6,22.5c1.2,2.9,2.4,5.7,3.7,8.6 C120.3,64.4,120.4,64.7,120.6,65.2z" class="st5"/><path d="M172,31.1c3.5,0,7,0,10.5,0c1.6,0,1.7,0.1,1.7,1.8c0,1.2,0,2.3,0,3.5c0,2-0.2,2.1-2.1,2.2 c-1.6,0-3.1,0-4.7,0c-1.9,0-1.9,0.1-1.9,2c0,8.3,0,16.7,0,25c0,0.8-0.1,1.7-0.2,2.5c-0.8-0.5-1.6-0.8-2.3-1.4 c-1.3-1.1-2.4-2.4-3.7-3.6c-1-0.9-1.4-1.9-1.4-3.3c0-6,0-12,0-18c0-0.5,0-1.1,0-1.6c0.1-1.2-0.4-1.7-1.6-1.7 c-1.7,0.1-3.4,0-5.1,0c-1.6,0-1.7-0.1-1.7-1.8c0-1.3,0-2.7,0-4c0-1.6,0.1-1.7,1.8-1.7C164.9,31.1,168.5,31.1,172,31.1z" class="st5"/><path d="M155.3,50.1c0,5.7,0,11.4,0,17.1c0,0.4-0.1,0.9-0.2,1.3c-0.4-0.2-0.8-0.4-1.1-0.7c-1.7-1.6-3.3-3.3-5-4.9 c-0.8-0.7-1.2-1.5-1.2-2.7c0-9.1,0-18.2,0-27.4c0-1.8,0.1-1.8,1.8-1.9c1.4,0,2.8,0,4.2,0c1.1,0,1.6,0.4,1.5,1.5 c0,1.8,0,3.6,0,5.4C155.4,42,155.4,46.1,155.3,50.1C155.4,50.1,155.4,50.1,155.3,50.1z" class="st5"/><path d="M8.9,37.7c1.1,0.2,2.1,0.2,3.2,0.5c8.6,2.3,17.2,4.6,25.8,6.9c0.4,0.1,0.7,0.2,1.1,0.3 c0.6,0.2,0.7,0.5,0.2,1c-1.3,1.3-2.5,2.5-3.8,3.7c-0.7,0.7-0.7,1.1,0.2,1.6c3.4,1.8,6.8,3.7,10.2,5.6c2.5,1.4,5,2.8,7.5,4.2l0,0 c-0.5,0-1,0-1.4-0.1c-9-2.4-18-4.8-27-7.3c-0.7-0.2-1.4-0.6-2.1-0.9c0.5-0.6,1-1.2,1.5-1.7c0.9-0.9,1.8-1.7,2.8-2.5 c0.8-0.7,0.6-1.1-0.2-1.5c-3.2-1.7-6.3-3.4-9.5-5.1C14.6,40.8,11.8,39.2,8.9,37.7L8.9,37.7z" class="st5"/><path d="M50.9,49.7c-0.4,2-0.8,4.1-1.3,6.1c-0.2,0.9-0.8,1.1-1.6,0.6c-0.3-0.2-0.5-0.4-0.8-0.5 c-1.2-0.4-1.4-1.1-1-2.3c2.4-9.5-3.5-17.8-12.3-19.4c-4.4-0.8-8.6,0.1-12.1,3c-1.7,1.4-3.2,1.1-4.9,0.4c-0.2-0.1-0.4-0.8-0.2-1 c0.2-0.5,0.7-0.8,1.1-1.2c6.3-6.1,16.6-7.1,23.9-2.2C47.7,37.1,50.7,42.6,50.9,49.7z" class="st5"/><path d="M31.7,69C18.3,68.7,9.2,57,12.3,44.7c0.1-0.5,0.3-1,0.5-1.5c0.2-0.6,0.6-0.9,1.3-0.5c0.3,0.2,0.7,0.4,1,0.6 c1.1,0.5,1.5,1.1,1.1,2.4C15.5,48,15.4,50.4,16,53c2.6,11,15.2,15.8,24.3,9.2c1.7-1.2,3.1-1.3,4.9-0.7c1,0.3,0.8,0.7,0.3,1.3 c-2.7,3.1-6.2,4.9-10.2,5.8C33.9,68.8,32.4,68.9,31.7,69z" class="st5"/><path d="M8.9,37.6c-0.1,0-0.1-0.1-0.2-0.1C8.8,37.6,8.8,37.6,8.9,37.6L8.9,37.6z" class="st5"/><path d="M53.3,61.5c0,0,0.1,0.1,0.1,0.1C53.4,61.6,53.4,61.5,53.3,61.5L53.3,61.5z" class="st5"/></g></g></g></svg>